<svg xmlns="http://www.w3.org/2000/svg" viewBox="0 0 404.99 406.29"><g id="Layer_2" data-name="Layer 2"><g id="Layer_2-2" data-name="Layer 2"><path d="M128.74,13.91l7.49-2.65c2.89-1,5,.47,5.62,2.37a4,4,0,0,1-1.12,4.47A4.11,4.11,0,0,1,145,20.88c.84,2.35-.25,5.18-3.58,6.36l-7.1,2.51ZM137.56,18a2.06,2.06,0,0,0,1.52-2.7,1.87,1.87,0,0,0-2.64-1l-3.85,1.36,1.31,3.69Zm2.63,6.64a2.38,2.38,0,0,0,1.71-3.15,2.26,2.26,0,0,0-3.12-1.27l-4.05,1.43L136.27,26Z"/><path d="M144.75,13.16l2.79-.79.62,2.17a3.14,3.14,0,0,1,2.39-3.18l1-.3.8,2.82-1,.3c-2.17.62-2.59,2.11-2,4.28L151,24.23l-2.88.82Z"/><path d="M154.32,19.71c-.6-2.65,1.36-3.88,3.14-4.53l2.47-.9c.77-.3,1.46-.65,1.25-1.56s-1.05-1.29-2.51-1c-1.73.39-2.37,1.22-2.37,2.35l-2.87.66c-.21-2.89,1.65-4.64,4.86-5.36s5.24.22,5.86,2.95l1.85,8.2-2.69.61-.47-2.11a4.62,4.62,0,0,1-3.71,3.32C156.79,22.91,154.85,22.05,154.32,19.71Zm5.06.08A3,3,0,0,0,162,16.18l-.13-.58a9.45,9.45,0,0,1-1.65.76l-1.38.54c-.88.32-1.86.79-1.61,1.91C157.41,19.75,158.21,20.06,159.38,19.79Z"/><path d="M166.2,7.94l2.87-.44.3,2a4.26,4.26,0,0,1,3.7-2.8c2.82-.43,4.44,1.07,4.86,3.84l1.23,8-2.95.46-1.14-7.48a2.16,2.16,0,0,0-2.64-2c-1.66.26-2.72,1.61-2.4,3.7l1,6.57-3,.46Z"/><path d="M179.94,12.14c-.3-3.75,1.62-6.58,5.07-6.85a4.11,4.11,0,0,1,4,1.65L188.5.5l3-.23,1.36,17-2.8.22-.17-2.1a4,4,0,0,1-3.83,2.68C182.61,18.36,180.24,15.92,179.94,12.14Zm6.49,3.17c2.08-.17,3.13-1.82,3-4s-1.46-3.55-3.52-3.38S182.8,9.68,183,11.85,184.37,15.47,186.43,15.31Z"/><path d="M194.5.09,197.62,0l.09,3.09-3.12.1Zm.19,4.82,3-.09.36,12.36-3,.08Z"/><path d="M200.56,4.71l2.9,0,0,2a4.25,4.25,0,0,1,4.12-2.13c2.86,0,4.19,1.81,4.14,4.62l-.16,8-3-.06.15-7.56a2.14,2.14,0,0,0-2.25-2.42c-1.68,0-3,1.12-3,3.23l-.13,6.65-3-.06Z"/><path d="M213.06,17.81l3,.28c.09,1.21,1,2.16,2.85,2.33,2,.19,3.27-.73,3.45-2.67l.2-2.13a4.34,4.34,0,0,1-4.22,1.81c-2.84-.26-5.3-2.39-4.92-6.45s3.26-5.92,6.23-5.65a4,4,0,0,1,3.59,2.31l.16-1.75,2.94.27-1.06,11.52c-.35,3.87-3.24,5.39-6.61,5.08C215.55,22.47,213.18,20.74,213.06,17.81ZM219.32,15c1.65.15,3.27-.69,3.5-3.13S221.7,8.29,220,8.13s-3.3.76-3.52,3.15A3.08,3.08,0,0,0,219.32,15Z"/><path d="M232.88,11.19c1.07-5.61,3.44-8,7.47-7.24s5.36,3.88,4.29,9.51-3.44,8-7.49,7.25S231.81,16.81,232.88,11.19Zm4.75,7c2.31.44,3.28-1.52,4-5.27s.55-6-1.76-6.4-3.25,1.53-4,5.28S235.35,17.73,237.63,18.16Z"/><path d="M244.65,19.15l6.82-3.29c2-1,3.44-1.82,3.84-3.36.36-1.37-.36-2.5-2-2.92-1.81-.48-3.29.23-4,2.63l-2.92-.77c1.1-4,4.33-5.24,7.84-4.32,3.15.84,4.81,3,4,5.94-.68,2.59-2.8,3.67-5.54,5l-4.07,2,7.61,2-.73,2.78L244,21.77Z"/><path d="M267.59,11.05,275,13.84c2.87,1.08,3.49,3.54,2.78,5.43a4,4,0,0,1-3.73,2.7,4.14,4.14,0,0,1,1.5,4.9c-.88,2.33-3.53,3.8-6.83,2.56l-7.06-2.64Zm1.88,15.58a2.38,2.38,0,0,0,3.33-1.32,2.24,2.24,0,0,0-1.57-3l-4-1.51-1.62,4.34Zm2.25-6.77a2.06,2.06,0,0,0,2.9-1.1,1.88,1.88,0,0,0-1.35-2.5l-3.82-1.43-1.37,3.66Z"/><path d="M280.31,20.77,283,22,282,24a3.14,3.14,0,0,1,3.87-.89l1,.44-1.2,2.67-1-.44c-2.06-.92-3.35-.05-4.27,2L278,33.28l-2.74-1.23Z"/><path d="M283.45,31.94c1.24-2.41,3.53-2.1,5.31-1.45l2.48.9c.78.26,1.53.43,1.95-.4s0-1.66-1.3-2.34c-1.58-.82-2.61-.59-3.33.28l-2.62-1.35c1.69-2.34,4.24-2.48,7.17-1s3.87,3.53,2.59,6l-3.85,7.47-2.45-1.27,1-1.92a4.61,4.61,0,0,1-5,.17C283.28,36,282.35,34.07,283.45,31.94Zm3.82,3.32a3,3,0,0,0,4.3-1.11l.27-.54a8,8,0,0,1-1.75-.47l-1.4-.47c-.89-.33-1.94-.6-2.46.43C285.79,34,286.21,34.71,287.27,35.26Z"/><path d="M300.11,30.55l2.48,1.51-1,1.7a4.24,4.24,0,0,1,4.63.23c2.44,1.48,2.72,3.66,1.26,6.06l-4.16,6.88-2.55-1.54,3.92-6.47a2.15,2.15,0,0,0-.74-3.22c-1.43-.87-3.11-.51-4.21,1.29l-3.44,5.69-2.57-1.56Z"/><path d="M307.94,42.6c2.18-3.07,5.47-4,8.28-2a4.13,4.13,0,0,1,2,3.84L322,39.18l2.45,1.73-9.89,13.91-2.29-1.62,1.23-1.73a4,4,0,0,1-4.67-.39C306,49.07,305.74,45.69,307.94,42.6Zm2.94,6.59c1.7,1.21,3.56.62,4.83-1.16s1.15-3.65-.53-4.85-3.46-.63-4.73,1.15S309.2,48,310.88,49.19Z"/><path d="M323.92,46.55l2.35,1.86-7.67,9.7-2.35-1.86Zm2.95-3.81,2.45,1.93L327.4,47.1,325,45.17Z"/><path d="M328.54,50.17l2.18,1.91-1.31,1.5a4.27,4.27,0,0,1,4.53,1c2.15,1.88,2,4.08.19,6.19l-5.3,6.06-2.24-2,5-5.69a2.15,2.15,0,0,0-.17-3.31c-1.26-1.11-3-1-4.37.55l-4.37,5-2.26-2Z"/><path d="M329.67,68.24l2.13,2.15c-.72,1-.64,2.28.67,3.61s3,1.55,4.36.18l1.52-1.5A4.38,4.38,0,0,1,334,71.35c-2-2-2.51-5.24.39-8.11s6.31-2.43,8.4-.31A4.06,4.06,0,0,1,344,67l1.24-1.24,2.08,2.1L339.12,76c-2.77,2.73-5.95,2-8.33-.37C328.58,73.4,327.88,70.55,329.67,68.24Zm6.61,1.86c1.16,1.18,2.94,1.58,4.68-.14s1.45-3.45.23-4.68-3-1.55-4.72.14S335.06,68.88,336.28,70.1Z"/><path d="M349.09,75.92c4.43-3.6,7.79-3.93,10.38-.75s1.61,6.43-2.84,10-7.78,3.93-10.39.73S344.67,79.53,349.09,75.92Zm-.84,8.39c1.49,1.82,3.49.94,6.44-1.47s4.25-4.21,2.77-6S354,75.89,351,78.3,346.78,82.51,348.25,84.31Z"/><path d="M353,89.58l7.35,1.87c2.18.54,3.8.81,5.1-.11,1.15-.82,1.33-2.15.38-3.5-1.09-1.53-2.67-1.94-4.74-.54l-1.74-2.47c3.4-2.34,6.69-1.23,8.78,1.74,1.88,2.66,1.76,5.4-.71,7.14-2.2,1.55-4.52,1-7.48.29l-4.39-1.1,4.54,6.43L357.73,101l-7-9.84Z"/><path d="M375.76,98.09l3.92,6.91c1.51,2.67.41,5-1.35,6a4,4,0,0,1-4.59-.32,4.12,4.12,0,0,1-2,4.71c-2.17,1.23-5.15.66-6.89-2.41l-3.71-6.55Zm-8.55,13.15a2.38,2.38,0,0,0,3.41,1.13,2.25,2.25,0,0,0,.69-3.29l-2.11-3.74-4,2.29Zm6.07-3.75a2.06,2.06,0,0,0,2.93,1,1.87,1.87,0,0,0,.57-2.78l-2-3.55-3.4,1.93Z"/><path d="M379.3,113.73l1.27,2.61-2,1a3.14,3.14,0,0,1,3.54,1.8l.48,1-2.63,1.28-.48-1c-1-2-2.53-2.18-4.56-1.19l-5.39,2.63-1.32-2.7Z"/><path d="M374.53,124.29c2.5-1.05,4.06.66,5,2.3l1.32,2.28c.43.7.9,1.32,1.76.95s1.08-1.26.5-2.63c-.69-1.64-1.62-2.13-2.73-1.93l-1.15-2.72c2.8-.71,4.85.82,6.13,3.86s.71,5.2-1.88,6.29L375.74,136l-1.07-2.55,2-.83a4.63,4.63,0,0,1-3.92-3.07C371.81,127.29,372.32,125.23,374.53,124.29Zm.81,5a3,3,0,0,0,4,1.91l.56-.23a9.08,9.08,0,0,1-1-1.49l-.76-1.27c-.48-.81-1.11-1.69-2.17-1.24C375,127.34,374.87,128.19,375.34,129.29Z"/><path d="M388.2,133.93l.94,2.75-1.89.64a4.25,4.25,0,0,1,3.41,3.15c.92,2.7-.27,4.56-2.93,5.46l-7.61,2.6-1-2.82,7.16-2.44a2.15,2.15,0,0,0,1.5-3c-.54-1.59-2.06-2.39-4.06-1.71l-6.29,2.15-1-2.84Z"/><path d="M386.47,148.19c3.64-.95,6.76.45,7.63,3.79a4.13,4.13,0,0,1-.93,4.24l6.25-1.63.76,2.9-16.51,4.31-.71-2.72,2-.53a4,4,0,0,1-3.32-3.31C380.81,151.9,382.8,149.15,386.47,148.19Zm-2,6.94c.53,2,2.34,2.77,4.45,2.22s3.23-2.06,2.71-4.06-2.24-2.71-4.36-2.16S384,153.14,384.48,155.13Z"/><path d="M396.16,161.49l.61,2.94-12.1,2.5-.61-2.94Zm4.72-1,.63,3.05-3,.63-.63-3.05Z"/><path d="M397.38,167.23l.44,2.87-2,.3a4.27,4.27,0,0,1,2.8,3.7c.44,2.82-1.06,4.44-3.83,4.86l-7.95,1.23-.45-2.94,7.47-1.15a2.15,2.15,0,0,0,2-2.64c-.25-1.66-1.6-2.72-3.69-2.39l-6.57,1-.46-3Z"/><path d="M386.63,181.79l.24,3c-1.18.29-2,1.34-1.81,3.2.17,2,1.29,3.1,3.23,3l2.13-.18a4.34,4.34,0,0,1-2.51-3.84c-.23-2.85,1.45-5.63,5.52-6s6.39,2.2,6.63,5.17a4.06,4.06,0,0,1-1.66,3.94l1.75-.14.24,2.94-11.53.93c-3.88.32-5.87-2.27-6.15-5.64C382.46,185,383.76,182.41,386.63,181.79Zm3.85,5.69a3.06,3.06,0,0,0,3.68,2.9c2.37-.19,3.33-1.71,3.19-3.43a3.08,3.08,0,0,0-3.7-2.93C391.3,184.21,390.34,185.75,390.48,187.48Z"/><path d="M396.56,200.15c5.72.1,8.5,2,8.43,6.12s-2.9,5.95-8.64,5.86-8.49-2-8.43-6.13S390.85,200.06,396.56,200.15Zm-6,5.89c0,2.35,2.06,3,5.88,3s6-.48,6-2.83-2.07-2.94-5.88-3S390.55,203.71,390.52,206Z"/><path d="M390.76,213.13l4.43,6.15c1.31,1.82,2.39,3.07,4,3.2,1.41.12,2.4-.79,2.54-2.44.16-1.87-.79-3.2-3.28-3.45l.25-3c4.11.39,5.91,3.36,5.61,7-.27,3.26-2.12,5.27-5.13,5-2.68-.22-4.11-2.12-5.91-4.58l-2.66-3.67-.65,7.85-2.87-.24,1-12Z"/><path d="M402.74,234.29l-1.44,7.81c-.55,3-2.87,4.06-4.85,3.69a4,4,0,0,1-3.32-3.19,4.13,4.13,0,0,1-4.55,2.33c-2.46-.45-4.37-2.8-3.73-6.28l1.37-7.41Zm-15,4.58a2.39,2.39,0,0,0,1.88,3.06,2.26,2.26,0,0,0,2.65-2.08l.78-4.22-4.56-.84Zm7.06,1a2.05,2.05,0,0,0,1.58,2.66,1.86,1.86,0,0,0,2.23-1.76l.74-4-3.85-.71Z"/><path d="M395.4,248.53l-.7,2.82-2.19-.55a3.15,3.15,0,0,1,1.56,3.66l-.26,1-2.84-.7.26-1.05c.55-2.19-.53-3.3-2.72-3.85l-5.83-1.44.73-2.92Z"/><path d="M385,253.58c2.59.8,2.68,3.11,2.36,5l-.45,2.6c-.13.82-.16,1.58.73,1.86s1.64-.27,2.08-1.69c.53-1.7.12-2.68-.86-3.23l.87-2.82c2.6,1.25,3.19,3.74,2.22,6.89s-2.8,4.43-5.49,3.6l-8-2.47.81-2.64,2.07.63a4.61,4.61,0,0,1-1-4.86C381,254.13,382.67,252.87,385,253.58Zm-2.6,4.35a3,3,0,0,0,1.85,4l.57.18a8.35,8.35,0,0,1,.16-1.81l.22-1.46c.16-.93.25-2-.85-2.35C383.39,256.23,382.72,256.78,382.36,257.93Z"/><path d="M389.24,269.75l-1.05,2.71-1.86-.72a4.23,4.23,0,0,1,.59,4.6c-1,2.67-3.14,3.32-5.76,2.3l-7.49-2.9,1.07-2.78,7.05,2.73a2.15,2.15,0,0,0,3-1.29c.61-1.56,0-3.15-2-3.91l-6.2-2.41,1.08-2.79Z"/><path d="M378.74,279.57c3.4,1.61,4.89,4.68,3.41,7.81a4.14,4.14,0,0,1-3.43,2.64l5.83,2.77-1.28,2.71-15.42-7.31,1.2-2.54,1.91.91a4,4,0,0,1-.42-4.66C372,278.77,375.31,277.94,378.74,279.57Zm-6,4c-.9,1.89,0,3.62,2,4.55s3.8.5,4.69-1.36,0-3.52-1.95-4.46S373.64,281.74,372.76,283.61Z"/><path d="M377.63,296l-1.42,2.64-10.89-5.86,1.43-2.64Zm4.27,2.25L380.42,301l-2.73-1.46,1.48-2.75Z"/><path d="M374.87,301.16l-1.5,2.49-1.7-1a4.24,4.24,0,0,1-.23,4.63c-1.47,2.45-3.66,2.72-6.06,1.27l-6.88-4.16,1.54-2.55,6.47,3.91a2.15,2.15,0,0,0,3.22-.74c.87-1.44.51-3.11-1.3-4.21l-5.69-3.44,1.56-2.56Z"/><path d="M357.27,305.42l-1.75,2.47c-1.09-.54-2.36-.24-3.44,1.29s-1,3.2.58,4.32l1.74,1.24a4.36,4.36,0,0,1,.55-4.55c1.65-2.33,4.73-3.39,8.06-1s3.48,5.8,1.76,8.22a4.07,4.07,0,0,1-3.8,2l1.43,1-1.71,2.41-9.44-6.69c-3.17-2.25-3-5.51-1.08-8.27C352,305.23,354.68,304.05,357.27,305.42Zm-.69,6.83a3.06,3.06,0,0,0,.95,4.59c1.94,1.38,3.65.83,4.65-.58s1-3.24-1-4.63A3.07,3.07,0,0,0,356.58,312.25Z"/><path d="M353.07,325.88c4.31,3.74,5.21,7,2.53,10.09s-6.05,2.7-10.39-1.05-5.21-7-2.51-10.11S348.75,322.15,353.07,325.88Zm-8.41.63c-1.54,1.77-.32,3.59,2.56,6.09s4.88,3.46,6.42,1.68.3-3.58-2.58-6.08S346.18,324.75,344.66,326.51Z"/><path d="M340.29,332.08l-.57,7.55c-.16,2.24-.14,3.89,1,5s2.34.94,3.51-.24,1.45-2.95-.29-4.75l2.13-2.14c2.89,2.94,2.36,6.37-.19,8.94-2.3,2.32-5,2.67-7.16.54-1.91-1.9-1.78-4.27-1.57-7.31l.32-4.52-5.54,5.59-2-2,8.48-8.55Z"/><path d="M335.85,356,329.72,361c-2.37,1.95-4.81,1.26-6.09-.3a4,4,0,0,1-.48-4.58,4.13,4.13,0,0,1-5-1.14c-1.59-1.92-1.54-4.95,1.18-7.2l5.82-4.8Zm-14.43-6.14a2.39,2.39,0,0,0-.53,3.55,2.25,2.25,0,0,0,3.36.12l3.32-2.74-2.95-3.57Zm4.74,5.33a2.06,2.06,0,0,0-.5,3.06,1.87,1.87,0,0,0,2.84.08l3.15-2.59-2.49-3Z"/><path d="M321.08,362.16l-2.34,1.71-1.33-1.82a3.13,3.13,0,0,1-1.15,3.8l-.88.64-1.72-2.37.88-.64c1.82-1.32,1.7-2.87.38-4.7l-3.53-4.85,2.42-1.76Z"/><path d="M309.85,359.32c1.47,2.27,0,4.11-1.39,5.32l-2,1.71c-.62.54-1.14,1.1-.64,1.89s1.44.85,2.69,0c1.49-1,1.81-2,1.41-3l2.48-1.6c1.19,2.63,0,4.92-2.72,6.7s-5,1.6-6.53-.76l-4.56-7,2.32-1.5,1.18,1.81a4.59,4.59,0,0,1,2.33-4.39C306.42,357.16,308.54,357.3,309.85,359.32ZM305.06,361a3,3,0,0,0-1.18,4.28l.33.5a8.9,8.9,0,0,1,1.28-1.29l1.12-1c.72-.61,1.47-1.39.85-2.35C306.94,360.34,306.07,360.33,305.06,361Z"/><path d="M302.73,374.46l-2.54,1.41-1-1.75a4.28,4.28,0,0,1-2.51,3.91c-2.5,1.38-4.53.52-5.89-1.93l-3.88-7,2.61-1.44,3.65,6.62a2.15,2.15,0,0,0,3.16,1c1.47-.81,2-2.44,1-4.29l-3.21-5.82,2.62-1.45Z"/><path d="M288.39,375.25c1.58,3.42.75,6.73-2.39,8.18a4.14,4.14,0,0,1-4.33-.18l2.69,5.87-2.72,1.25-7.13-15.5,2.55-1.17.88,1.91a4,4,0,0,1,2.67-3.84C283.75,370.33,286.81,371.8,288.39,375.25Zm-7.18-.74c-1.9.87-2.31,2.78-1.4,4.76s2.59,2.83,4.47,2,2.28-2.68,1.36-4.67S283.09,373.65,281.21,374.51Z"/><path d="M277,387.13l-2.79,1.11-4.58-11.48,2.79-1.11Zm1.83,4.46-2.9,1.16-1.15-2.88,2.9-1.15Z"/><path d="M271.56,389.33l-2.74.94-.65-1.88a4.24,4.24,0,0,1-3.14,3.4c-2.71.93-4.56-.26-5.47-2.92l-2.6-7.61,2.82-1,2.44,7.15a2.15,2.15,0,0,0,2.95,1.5c1.59-.54,2.39-2.05,1.71-4.05l-2.16-6.29,2.84-1Z"/><path d="M255.33,381.3l-2.93.76c-.49-1.11-1.66-1.69-3.47-1.22-2,.51-2.83,1.81-2.34,3.69l.54,2.06a4.35,4.35,0,0,1,3.35-3.13c2.77-.72,5.8.44,6.83,4.39s-1.05,6.68-3.93,7.43a4.08,4.08,0,0,1-4.17-.94l.44,1.69-2.85.75-2.93-11.19c-1-3.77,1.21-6.18,4.49-7C251.4,377.76,254.22,378.59,255.33,381.3Zm-4.93,4.79c-1.6.42-2.84,1.76-2.22,4.13s2.27,3,3.94,2.54a3.45,3.45,0,0,0-1.72-6.67Z"/><path d="M239,394.27c.91,5.64-.5,8.71-4.55,9.36s-6.37-1.83-7.28-7.49.5-8.71,4.58-9.36S238.08,388.63,239,394.27Zm-6.84-4.93c-2.32.37-2.56,2.55-1.95,6.31s1.51,5.79,3.83,5.42,2.53-2.55,1.93-6.32S234.44,389,232.14,389.34Z"/><path d="M225.19,390.8l-5.29,5.42c-1.56,1.61-2.6,2.88-2.46,4.46.13,1.41,1.19,2.23,2.84,2.08,1.86-.17,3-1.33,2.83-3.82l3-.28c.33,4.12-2.29,6.4-5.89,6.73-3.25.29-5.56-1.18-5.83-4.2-.24-2.67,1.38-4.41,3.5-6.6l3.15-3.25-7.84.71-.26-2.87,12-1.08Z"/><path d="M206.34,406.29l-7.94-.13c-3.07-.05-4.48-2.16-4.45-4.18a4,4,0,0,1,2.61-3.79,4.13,4.13,0,0,1-3.06-4.11c0-2.5,2.05-4.77,5.57-4.71l7.54.12Zm-7-14a2.38,2.38,0,0,0-2.7,2.36,2.25,2.25,0,0,0,2.48,2.27l4.3.07.07-4.63Zm.15,7.13a2.06,2.06,0,0,0-2.36,2c0,1,.67,1.88,2.11,1.9l4.08.07.06-3.91Z"/><path d="M191.12,401.48l-2.9-.21.16-2.25a3.16,3.16,0,0,1-3.33,2.18l-1.08-.08.2-2.92,1.08.08c2.25.16,3.16-1.11,3.31-3.36l.42-6,3,.21Z"/><path d="M184.35,392.08c-.34,2.69-2.6,3.18-4.49,3.19h-2.64c-.82,0-1.58.12-1.7,1s.56,1.57,2,1.76c1.77.22,2.66-.35,3-1.42l2.93.37c-.78,2.78-3.13,3.79-6.39,3.39-3.41-.43-4.86-2-4.51-4.77l1-8.34,2.74.34-.26,2.15a4.59,4.59,0,0,1,4.61-1.87C183.11,388.22,184.64,389.69,184.35,392.08Zm-4.74-1.8A3,3,0,0,0,176,392.8l-.07.6a8.12,8.12,0,0,1,1.81-.17l1.48,0c.94,0,2-.11,2.16-1.26C181.46,391,180.8,390.43,179.61,390.28Z"/><path d="M169.16,399.12l-2.85-.56.39-2a4.27,4.27,0,0,1-4.43,1.39c-2.81-.55-3.82-2.51-3.28-5.27l1.55-7.89,2.92.57L162,392.82a2.15,2.15,0,0,0,1.8,2.78c1.65.32,3.1-.59,3.51-2.67l1.27-6.52,2.95.57Z"/><path d="M157.68,390.5c-1,3.64-3.76,5.64-7.09,4.73a4.16,4.16,0,0,1-3.21-2.92l-1.7,6.23-2.89-.79,4.5-16.46L150,382l-.56,2a4,4,0,0,1,4.52-1.23C157.29,383.75,158.68,386.85,157.68,390.5Zm-5-5.18c-2-.55-3.55.64-4.13,2.75s.17,3.83,2.16,4.37,3.47-.59,4-2.7S154.65,385.87,152.65,385.32Z"/><path d="M139.88,396.89l-3-1,1-2.94,3,1Zm1.46-4.6-2.85-.94,3.87-11.74,2.85.94Z"/><path d="M135.74,390.47l-2.71-1,.72-1.86a4.27,4.27,0,0,1-4.6.59c-2.67-1-3.32-3.14-2.31-5.76l2.9-7.49,2.78,1.07-2.73,7a2.16,2.16,0,0,0,1.29,3.05c1.57.6,3.16-.05,3.92-2l2.4-6.2,2.79,1.09Z"/><path d="M128.48,373.89l-2.74-1.29c.34-1.16-.18-2.37-1.87-3.17-1.85-.87-3.33-.43-4.16,1.33l-.91,1.93a4.34,4.34,0,0,1,4.58-.25c2.58,1.22,4.15,4.06,2.41,7.75s-5.1,4.44-7.79,3.17a4.07,4.07,0,0,1-2.58-3.4l-.75,1.58L112,380.28l4.94-10.46c1.66-3.51,4.89-3.95,8-2.5C127.74,368.66,129.37,371.1,128.48,373.89Zm-6.85.51c-1.5-.71-3.31-.47-4.36,1.74s-.17,3.74,1.39,4.48a3.46,3.46,0,0,0,3-6.22Z"/><path d="M107.6,373.31c-2.93,4.91-6,6.36-9.5,4.25s-3.71-5.49-.77-10.41,6-6.35,9.52-4.24S110.53,368.41,107.6,373.31Zm-2.08-8.17c-2-1.21-3.59.31-5.55,3.59s-2.56,5.4-.54,6.61,3.57-.33,5.53-3.6S107.52,366.33,105.52,365.14Z"/><path d="M99.27,361.8l-7.53.75c-2.24.23-3.85.54-4.76,1.84s-.52,2.47.84,3.42c1.54,1.07,3.16.91,4.63-1.11l2.48,1.73c-2.4,3.36-5.87,3.43-8.84,1.36-2.68-1.86-3.49-4.48-1.77-7,1.54-2.2,3.9-2.49,6.93-2.81l4.5-.46-6.46-4.5,1.64-2.36,9.89,6.88Z"/><path d="M75,361.56l-6-5.15c-2.33-2-2.07-4.52-.76-6.05a4,4,0,0,1,4.42-1.27,4.12,4.12,0,0,1,.27-5.11c1.62-1.9,4.61-2.37,7.29-.08l5.73,4.89Zm-.88-9.68a2,2,0,0,0-3.09,0,1.87,1.87,0,0,0,.41,2.81l3.1,2.65,2.54-3Zm4.43-5.59a2.39,2.39,0,0,0-3.59.1,2.25,2.25,0,0,0,.47,3.33l3.27,2.79,3-3.52Z"/><path d="M66.3,348.07l-2.09-2,1.57-1.62a3.16,3.16,0,0,1-4-.48l-.77-.75,2-2.11.78.75c1.62,1.57,3.12,1.19,4.69-.43l4.17-4.32,2.16,2.09Z"/><path d="M67.16,336.52c-2,1.84-4,.76-5.48-.45l-2-1.68c-.64-.52-1.29-.94-2-.3s-.58,1.56.43,2.65c1.21,1.3,2.26,1.44,3.23.87l2,2.16c-2.39,1.63-4.84.89-7.08-1.52s-2.44-4.64-.38-6.55L62,326l1.87,2-1.58,1.47A4.6,4.6,0,0,1,67.06,331C68.69,332.77,68.92,334.88,67.16,336.52Zm-2.47-4.43a3,3,0,0,0-4.41-.42l-.44.41a9.66,9.66,0,0,1,1.49,1l1.15.93c.73.6,1.62,1.21,2.46.43S65.51,333,64.69,332.09Z"/><path d="M51,332.14l-1.83-2.26,1.55-1.25a4.24,4.24,0,0,1-4.28-1.79c-1.79-2.22-1.31-4.37.88-6.13l6.25-5L55.46,318l-5.88,4.75a2.15,2.15,0,0,0-.4,3.29c1,1.3,2.75,1.54,4.4.21L58.75,322l1.88,2.34Z"/><path d="M47.77,318.17c-3.1,2.15-6.5,1.91-8.47-.93a4.14,4.14,0,0,1-.59-4.29l-5.3,3.68-1.71-2.47,14-9.72,1.6,2.31L45.58,308a4,4,0,0,1,4.25,2C51.8,312.75,50.88,316,47.77,318.17Zm-.53-7.2c-1.19-1.71-3.14-1.79-4.93-.54s-2.33,3-1.15,4.74,3,1.77,4.83.53S48.42,312.67,47.24,311Z"/><path d="M30,311.63,28.37,309,31,307.34,32.65,310ZM34.09,309l-1.58-2.55L43,300l1.59,2.55Z"/><path d="M31,304.05l-1.4-2.54,1.74-1a4.25,4.25,0,0,1-3.9-2.5c-1.39-2.5-.54-4.53,1.92-5.89l7-3.89,1.44,2.6-6.61,3.66a2.14,2.14,0,0,0-1,3.16c.81,1.47,2.44,2,4.29,1l5.82-3.21,1.45,2.62Z"/><path d="M36,286.67l-1.27-2.75c1-.67,1.38-1.93.6-3.63-.85-1.85-2.27-2.46-4-1.65l-1.94.9a4.32,4.32,0,0,1,3.67,2.74c1.2,2.59.59,5.79-3.12,7.49s-6.76.14-8-2.56a4.05,4.05,0,0,1,.19-4.27l-1.59.73L19.3,281l10.5-4.84c3.53-1.63,6.29.11,7.71,3.18C38.82,282.18,38.51,285.1,36,286.67Zm-5.58-4c-.69-1.5-2.23-2.48-4.45-1.46s-2.53,2.76-1.81,4.33S26.5,288,28.68,287A3.08,3.08,0,0,0,30.45,282.66Z"/><path d="M20.4,272.86c-5.39,1.87-8.65,1-10-2.84s.67-6.59,6.09-8.48,8.66-1,10,2.87S25.8,271,20.4,272.86Zm3.66-7.6c-.77-2.22-3-2.07-6.56-.82s-5.43,2.5-4.66,4.72,2.95,2,6.55.8S24.82,267.46,24.06,265.26Z"/><path d="M21.4,258.67l-6.26-4.27c-1.86-1.26-3.3-2.06-4.83-1.65-1.36.38-2,1.57-1.55,3.16.49,1.81,1.84,2.74,4.26,2.13l.79,2.92c-4,1-6.7-1.14-7.65-4.64-.86-3.15.2-5.67,3.12-6.47,2.59-.7,4.59.59,7.11,2.3l3.75,2.53-2.06-7.59,2.78-.76L24,258Z"/><path d="M2.93,242.85,1.62,235c-.51-3,1.32-4.79,3.3-5.12a4,4,0,0,1,4.21,1.87A4.11,4.11,0,0,1,12.62,228c2.46-.41,5.05,1.15,5.63,4.63l1.24,7.43Zm5.55-8a2.06,2.06,0,0,0-2.4-2,1.88,1.88,0,0,0-1.49,2.42l.67,4,3.86-.64Zm7-1.43a2.38,2.38,0,0,0-2.81-2.23,2.25,2.25,0,0,0-1.79,2.85l.71,4.24,4.57-.77Z"/><path d="M5,227l-.3-2.89,2.25-.24a3.14,3.14,0,0,1-2.72-2.9l-.11-1.07L7,219.56l.11,1.08c.24,2.24,1.63,2.92,3.88,2.68l6-.62.32,3Z"/><path d="M13.07,218.67c-2.71.14-3.58-2-3.91-3.87l-.47-2.59c-.16-.81-.39-1.55-1.32-1.5S5.92,211.53,6,213c.09,1.78.8,2.56,1.92,2.74l.14,2.95c-2.87-.29-4.28-2.43-4.44-5.72s1.12-5.12,3.93-5.26l8.39-.41.13,2.76-2.16.1a4.64,4.64,0,0,1,2.64,4.22C16.65,216.79,15.47,218.56,13.07,218.67Zm1-5a3,3,0,0,0-3.11-3.16l-.6,0a8.92,8.92,0,0,1,.47,1.76l.29,1.45c.16.93.45,2,1.6,1.92C13.64,215.64,14.09,214.9,14,213.7Z"/><path d="M3.52,204.93l.06-2.9,2,0a4.23,4.23,0,0,1-2.13-4.12c.05-2.86,1.81-4.19,4.61-4.14l8.05.16-.06,3-7.56-.14a2.14,2.14,0,0,0-2.42,2.26c0,1.68,1.12,2.95,3.23,3l6.65.13-.06,3Z"/><path d="M10,192.13c-3.75-.34-6.21-2.71-5.89-6.15a4.15,4.15,0,0,1,2.31-3.67L0,181.73l.27-3,17,1.55-.25,2.8-2.11-.2a4,4,0,0,1,2,4.23C16.59,190.57,13.79,192.48,10,192.13Zm4.22-5.85c.19-2.08-1.25-3.39-3.43-3.59s-3.74.84-3.92,2.89,1.19,3.32,3.36,3.51S14.05,188.33,14.23,186.28Z"/><path d="M.62,175.71l.44-3.09,3.06.44-.44,3.09Zm4.78.64.42-3,12.24,1.75-.43,3Z"/><path d="M6.2,170.54l.56-2.85,2,.38a4.28,4.28,0,0,1-1.39-4.43c.55-2.8,2.51-3.81,5.27-3.28l7.89,1.54-.57,2.92-7.42-1.44a2.15,2.15,0,0,0-2.78,1.8c-.32,1.65.6,3.1,2.67,3.51L18.91,170l-.58,2.94Z"/><path d="M21.26,160.47l.79-2.92c1.21.13,2.3-.59,2.79-2.4.54-2-.16-3.35-2-3.86l-2.06-.56a4.37,4.37,0,0,1,1.05,4.46c-.75,2.76-3.28,4.81-7.22,3.74s-5.26-4.24-4.48-7.12a4.06,4.06,0,0,1,2.9-3.14l-1.69-.46.77-2.85,11.17,3c3.75,1,4.74,4.13,3.86,7.39C26.28,158.83,24.16,160.86,21.26,160.47Zm-1.7-6.66c.43-1.59-.11-3.33-2.48-4s-3.71.48-4.16,2.15.17,3.38,2.49,4A3.08,3.08,0,0,0,19.56,153.81Z"/><path d="M18.17,139.83c-5.34-2-7.3-4.78-5.84-8.62s4.75-4.61,10.11-2.57,7.3,4.78,5.83,8.64S23.5,141.86,18.17,139.83Zm7.68-3.47c.84-2.2-.93-3.49-4.5-4.85s-5.77-1.57-6.6.62.94,3.47,4.51,4.83S25,138.53,25.85,136.36Z"/><path d="M28.06,129.59,26,122.3c-.61-2.16-1.2-3.7-2.64-4.37-1.28-.59-2.52-.08-3.22,1.42-.78,1.7-.35,3.28,1.9,4.37l-1.27,2.74c-3.72-1.77-4.4-5.17-2.88-8.46,1.37-3,3.8-4.22,6.54-3,2.44,1.13,3.14,3.41,4,6.33l1.24,4.36,3.3-7.15,2.62,1.2-5.05,10.94Z"/><path d="M24.05,105.63l4-6.84C29.64,96.14,32.17,96,33.9,97a4,4,0,0,1,2,4.14,4.14,4.14,0,0,1,5.08-.63c2.15,1.27,3.13,4.13,1.34,7.17l-3.82,6.49Zm9.38-2.55a2,2,0,0,0-.58-3,1.87,1.87,0,0,0-2.69.89l-2.07,3.51,3.37,2Zm6.28,3.39A2.39,2.39,0,0,0,39,103a2.25,2.25,0,0,0-3.2,1l-2.18,3.7,4,2.35Z"/><path d="M35.84,94.74l1.63-2.41,1.87,1.26a3.16,3.16,0,0,1-.22-4l.61-.89,2.43,1.64-.61.89c-1.26,1.87-.63,3.29,1.24,4.55l5,3.36-1.68,2.49Z"/><path d="M47.37,93.59c-2.16-1.64-1.45-3.84-.51-5.48l1.31-2.28c.4-.73.69-1.43-.05-2s-1.64-.31-2.54.88c-1.07,1.42-1,2.47-.29,3.33L43.5,90.39c-2-2.07-1.71-4.61.28-7.23s4.15-3.21,6.38-1.51l6.69,5.07-1.66,2.2-1.72-1.3a4.61,4.61,0,0,1-.7,4.92C51.32,94.45,49.28,95,47.37,93.59ZM51.3,90.4A3,3,0,0,0,51,86l-.48-.37a8.37,8.37,0,0,1-.77,1.65L49,88.56c-.47.82-.92,1.8,0,2.5C49.75,91.64,50.57,91.35,51.3,90.4Z"/><path d="M48.89,76.92l1.91-2.18,1.5,1.31a4.26,4.26,0,0,1,1-4.53c1.88-2.15,4.08-2,6.2-.2l6,5.29-2,2.24-5.69-5a2.16,2.16,0,0,0-3.31.17c-1.1,1.27-1,3,.55,4.37l5,4.38-2,2.26Z"/><path d="M62.09,71.3c-2.65-2.68-3-6.07-.55-8.51a4.15,4.15,0,0,1,4.13-1.32l-4.55-4.59,2.14-2.11,12,12.13-2,2-1.49-1.5a4,4,0,0,1-1.19,4.52C68.13,74.34,64.76,74,62.09,71.3Zm7-1.76c1.48-1.47,1.22-3.41-.31-5s-3.41-1.77-4.88-.31-1.22,3.3.32,4.85S67.62,71,69.09,69.54Z"/><path d="M65.46,52.69l2.33-2.08,2.06,2.31L67.52,55Zm3.25,3.57,2.24-2,8.23,9.21-2.23,2Z"/><path d="M73.06,52.32l2.26-1.82,1.25,1.55a4.26,4.26,0,0,1,1.79-4.28c2.22-1.8,4.37-1.32,6.13.87l5.06,6.25-2.31,1.87-4.76-5.88a2.15,2.15,0,0,0-3.28-.4c-1.31,1.06-1.54,2.76-.21,4.4l4.18,5.17-2.34,1.89Z"/><path d="M91.06,54.3l2.48-1.73c.85.88,2.15,1,3.68,0,1.68-1.16,2-2.67.92-4.26l-1.21-1.75a4.35,4.35,0,0,1-2.07,4.09c-2.34,1.63-5.59,1.58-7.92-1.77s-1.31-6.63,1.13-8.33A4.07,4.07,0,0,1,92.31,40l-1-1.43,2.42-1.69,6.61,9.5c2.22,3.19,1,6.21-1.79,8.14C96,56.26,93,56.46,91.06,54.3Zm3-6.19a3.07,3.07,0,0,0,.67-4.64c-1.36-1.95-3.16-2-4.58-1s-2,2.7-.66,4.67A3.08,3.08,0,0,0,94,48.11Z"/><path d="M102,36.48c-2.79-5-2.53-8.35,1.05-10.35s6.61-.49,9.41,4.52S115,39,111.35,41,104.76,41.46,102,36.48Zm8.13,2.27c2-1.15,1.52-3.27-.35-6.6s-3.41-4.91-5.46-3.76-1.5,3.26.36,6.59S108.06,39.89,110.09,38.75Z"/><path d="M116.09,35l3.11-6.9c.91-2.06,1.45-3.61.77-5s-1.88-1.69-3.38-1c-1.69.8-2.37,2.29-1.35,4.56l-2.73,1.3c-1.72-3.76-.05-6.8,3.22-8.35,3-1.39,5.63-.8,6.92,1.94,1.15,2.43.22,4.62-1,7.4l-1.85,4.14,7.12-3.37,1.23,2.61-10.89,5.15Z"/></g></g></svg>