<svg xmlns="http://www.w3.org/2000/svg" viewBox="0 0 405.52 405.31"><g id="Layer_2" data-name="Layer 2"><g id="Layer_2-2" data-name="Layer 2"><path d="M131.06,22.06c-1.93-5.37-1.12-8.65,2.75-10s6.59.62,8.53,6,1.12,8.65-2.76,10S133,27.44,131.06,22.06Zm7.64,3.58c2.21-.79,2-3,.75-6.57s-2.55-5.4-4.77-4.61-2,3-.72,6.56S136.51,26.43,138.7,25.64Z"/><path d="M144,20.6l2.91-.83c.59,2.08,2.13,2.49,3.91,2s2.61-1.62,2.18-3.1-1.83-1.79-3.82-1.23l-1.13.33-.73-2.56,1.06-.31c2-.56,2.63-1.82,2.24-3.16s-1.63-1.8-3-1.4a2.77,2.77,0,0,0-2.1,3.75l-2.91.83c-1.13-4,1.55-6.29,4.39-7.1,3-.85,5.75.06,6.52,2.76a3.94,3.94,0,0,1-1.81,4.58A3.94,3.94,0,0,1,156,18.07c.81,2.84-1.07,5.19-4.5,6.18S145,24.25,144,20.6Z"/><path d="M161.29,14.93,159.42,4.56l3-.55,1.88,10.39c.48,2.63,2.1,3.53,4.44,3.1s3.52-1.83,3.05-4.45L169.93,2.66l3-.56,1.87,10.37c.79,4.35-1.5,7.08-5.58,7.82S162.08,19.27,161.29,14.93Z"/><path d="M181.89,9.25l-6.36-7.52,3.75-.36,4.19,5.17L186.55.68,190.3.32l-4.8,8.59L192.35,17l-3.75.36L184,11.63l-3.5,6.51-3.75.36Z"/><path d="M191.42,18.14,197.47.5,199.1.44,193,18.08Z"/><path d="M199.89,10.53,200.12,0l3.07.07L203,10.62c-.06,2.66,1.36,3.87,3.73,3.92s3.82-1.09,3.87-3.75L210.79.23l3.1.07-.23,10.53c-.1,4.41-2.88,6.63-7,6.54S199.79,14.94,199.89,10.53Z"/><path d="M217.12.61l3.07.24L218.86,17.6l-3.06-.24Z"/><path d="M228.64,1.65l6,1c5.49.89,7.46,5,6.75,9.31s-4,8.15-9.85,7.21l-5.54-.9ZM232,16.3c3.79.61,5.74-1.67,6.25-4.8.48-3-.55-5.46-4.11-6L231.21,5l-1.77,10.9Z"/><path d="M241.74,14.79c.87-3.64,3.67-5.85,7.55-4.92,3.24.78,5.1,3.1,4.14,7.09l-.33,1.37-8.68-2.08a3,3,0,0,0,2.5,3.66c1.29.31,2.31.06,2.86-.89l2.85.68c-1.17,2.58-3.84,3.25-6.43,2.63C242.79,21.51,240.78,18.8,241.74,14.79Zm9.12.66c.33-1.6-.32-2.69-2.14-3.13a3,3,0,0,0-3.67,1.74Z"/><path d="M253.08,19.76l2.9.89c-.14,1.26.75,2.11,2.27,2.58,1.28.39,2.16.24,2.42-.61s-.47-1.4-1.58-2l-1.51-.74c-1.8-.91-3.54-2.22-2.77-4.72s2.94-3.11,5.93-2.2,4.58,2.82,4,5.48l-2.82-.87c.21-1.19-.56-2-2-2.44s-2.1-.14-2.34.66.39,1.43,1.45,2l1.78.9c1.76.89,3.39,2.12,2.67,4.49s-3.26,3.09-6,2.24S252.5,22.64,253.08,19.76Z"/><path d="M267.42,15.4l2.83,1-4.14,11.65-2.82-1ZM269,10.84l2.94,1-1,2.92-2.94-1Z"/><path d="M267.22,28.83,270,30c-.28,1.19.3,2.36,2,3.07,1.89.78,3.35.26,4.09-1.54l.81-2a4.31,4.31,0,0,1-4.56.49c-2.64-1.08-4.36-3.84-2.81-7.62s4.86-4.69,7.61-3.56A4,4,0,0,1,280,22.1l.67-1.62,2.73,1.12L279,32.3c-1.48,3.6-4.68,4.2-7.81,2.92C268.23,34,266.47,31.66,267.22,28.83ZM274,28c1.54.63,3.33.31,4.26-2s0-3.74-1.61-4.4-3.38-.24-4.29,2A3.07,3.07,0,0,0,274,28Z"/><path d="M285.75,22.7l2.6,1.3-.88,1.78a4.23,4.23,0,0,1,4.63-.16c2.56,1.27,3,3.43,1.77,5.94l-3.58,7.2-2.67-1.32L291,30.67a2.16,2.16,0,0,0-1-3.16c-1.5-.74-3.14-.25-4.08,1.65l-3,5.95-2.69-1.33Z"/><path d="M299.35,34.32c3-4.86,6.07-6.27,9.56-4.12s3.64,5.54.62,10.43-6.06,6.27-9.58,4.1S296.35,39.18,299.35,34.32Zm2,8.2c2,1.24,3.6-.26,5.61-3.51s2.63-5.36.63-6.6-3.58.27-5.58,3.52S299.33,41.3,301.31,42.52Z"/><path d="M308.53,43.5,311,45.26c-1.26,1.76-.62,3.22.89,4.29s2.89,1,3.78-.22.26-2.56-1.42-3.76l-1-.68,1.55-2.17.9.64c1.68,1.2,3.06.92,3.87-.22s.39-2.4-.8-3.25a2.78,2.78,0,0,0-4.24.69l-2.46-1.75c2.39-3.36,5.87-2.71,8.28-1s3.55,4.54,1.92,6.82a4,4,0,0,1-4.72,1.45,3.92,3.92,0,0,1,.41,5.21c-1.71,2.41-4.72,2.41-7.63.34S306.33,46.59,308.53,43.5Z"/><path d="M323.78,53.52l6.93-7.94,2.31,2-6.94,7.95c-1.75,2-1.44,3.84.35,5.41s3.63,1.6,5.38-.41l6.94-7.95,2.34,2-6.93,7.94c-2.9,3.33-6.46,3.25-9.59.52S320.88,56.84,323.78,53.52Z"/><path d="M341.07,66.05,343,56.39l2.62,2.7-1.42,6.5,6.5-1.26,2.63,2.7-9.7,1.62-2,10.41-2.63-2.71,1.57-7.2-7.27,1.33-2.62-2.71Z"/><path d="M340.08,79l17.54-6.3L358.69,74l-17.56,6.27Z"/><path d="M351.32,80.91l8.38-6.39L361.56,77l-8.39,6.4c-2.12,1.62-2.18,3.48-.74,5.37s3.24,2.3,5.35.68l8.39-6.4,1.88,2.46-8.37,6.39c-3.51,2.68-7,1.88-9.5-1.42S347.81,83.59,351.32,80.91Z"/><path d="M369.82,88.17l1.72,2.55-13.92,9.41-1.72-2.55Z"/><path d="M376.18,97.82l3,5.26c2.72,4.85.77,8.92-3.08,11.08s-8.89,1.92-11.77-3.21l-2.75-4.89Zm-9.37,11.74c1.89,3.35,4.89,3.45,7.65,1.9s3.93-3.84,2.16-7l-1.44-2.58-9.62,5.42Z"/><path d="M374.09,116.26c3.39-1.59,6.87-.78,8.56,2.83,1.41,3,.76,5.92-3,7.66l-1.28.6-3.79-8.08a3,3,0,0,0-1.3,4.24c.56,1.19,1.39,1.84,2.48,1.67l1.24,2.65c-2.74.71-4.93-1-6.06-3.38C369.49,121.27,370.35,118,374.09,116.26Zm5.17,7.54c1.46-.74,1.91-1.93,1.11-3.62a3,3,0,0,0-3.64-1.79Z"/><path d="M377.29,128.26l1.11,2.81c-1.07.68-1.18,1.91-.6,3.38.49,1.25,1.16,1.84,2,1.51s.8-1.24.55-2.46l-.36-1.64c-.42-2-.48-4.14,2-5.1s4.26.35,5.41,3.26.66,5.33-1.78,6.53l-1.09-2.75c1.07-.57,1.22-1.69.68-3.05s-1.19-1.72-2-1.41-.87,1.19-.64,2.36l.41,2c.4,1.93.45,4-1.85,4.88s-4.44-.62-5.51-3.32S374.67,129.6,377.29,128.26Z"/><path d="M389.64,136.71l1,2.84-11.69,4-1-2.84Zm4.54-1.62,1,2.95-2.92,1-1-3Z"/><path d="M379,145l.85,2.91c-1.1.52-1.65,1.7-1.13,3.5.57,2,1.88,2.78,3.75,2.23l2-.6a4.31,4.31,0,0,1-3.22-3.26c-.8-2.74.28-5.8,4.2-6.94s6.7.87,7.53,3.72a4,4,0,0,1-.83,4.2l1.69-.49.82,2.83-11.1,3.24c-3.74,1.08-6.21-1-7.15-4.3C375.59,149,376.33,146.13,379,145Zm4.93,4.79c.46,1.59,1.83,2.79,4.18,2.11s2.92-2.35,2.43-4-1.91-2.79-4.21-2.12S383.45,148.08,383.94,149.74Z"/><path d="M395.35,155.57l.62,2.84-2,.42a4.26,4.26,0,0,1,3,3.52c.6,2.8-.8,4.5-3.54,5.09l-7.87,1.7-.62-2.91,7.39-1.6a2.14,2.14,0,0,0,1.83-2.75c-.35-1.64-1.76-2.62-3.83-2.17l-6.5,1.4-.63-2.93Z"/><path d="M394.76,173.47c5.67-.69,8.68.83,9.17,4.91s-2.06,6.29-7.76,7-8.68-.84-9.17-4.93S389.09,174.16,394.76,173.47Zm-5.19,6.65c.28,2.33,2.45,2.65,6.23,2.19s5.84-1.29,5.56-3.62-2.45-2.63-6.23-2.17S389.29,177.81,389.57,180.12Z"/><path d="M393.31,186.38l.16,3c-2.15.12-2.9,1.53-2.8,3.37s1,2.9,2.54,2.82,2.16-1.39,2.05-3.45l-.07-1.18,2.66-.14.06,1.1c.11,2.06,1.2,3,2.59,2.89s2.12-1.19,2-2.66a2.77,2.77,0,0,0-3.18-2.88l-.17-3c4.13-.22,5.79,2.91,5.95,5.86.16,3.12-1.34,5.6-4.14,5.75a4,4,0,0,1-4.07-2.78,3.94,3.94,0,0,1-3.82,3.57c-2.95.16-4.83-2.19-5-5.76S389.52,186.58,393.31,186.38Z"/><path d="M395,204.53l10.52.45-.13,3.07-10.55-.45c-2.66-.11-3.89,1.28-4,3.65s1,3.84,3.67,3.95l10.55.45-.14,3.09-10.52-.45c-4.41-.19-6.57-3-6.39-7.16S390.59,204.35,395,204.53Z"/><path d="M396,225.87l8.73-4.55-.47,3.73-6,2.95,5,4.29-.47,3.74-7.32-6.56-9.4,4.9.47-3.73,6.61-3.28-5.58-4.84.47-3.74Z"/><path d="M385.26,233.21,401.13,243l-.3,1.6L385,234.79Z"/><path d="M390.82,243.16,401,245.72l-.75,3-10.24-2.57c-2.59-.65-4.08.47-4.65,2.77s.22,4,2.8,4.61l10.25,2.57-.76,3-10.22-2.56c-4.28-1.07-5.83-4.28-4.82-8.31S386.53,242.08,390.82,243.16Z"/><path d="M396.67,262.15l-.92,2.93-16-5,.92-2.93Z"/><path d="M393.08,273.16l-2.26,5.58c-2.1,5.16-6.5,6.16-10.59,4.5s-7-5.76-4.82-11.2l2.11-5.21Zm-15,0c-1.45,3.56.34,6,3.28,7.16s5.44.69,6.8-2.65l1.11-2.73L379,270.76Z"/><path d="M377.36,283c3.35,1.66,4.89,4.89,3.12,8.45-1.49,3-4.17,4.29-7.84,2.47l-1.27-.63,4-8a3,3,0,0,0-4.13,1.62,2.35,2.35,0,0,0,.23,3l-1.3,2.63c-2.26-1.71-2.31-4.47-1.12-6.86C370.57,282.53,373.66,281.17,377.36,283Zm-2.68,8.74c1.48.68,2.7.29,3.53-1.38a3,3,0,0,0-.87-4Z"/><path d="M370,293l-1.51,2.62c-1.2-.42-2.23.26-3,1.64-.67,1.16-.72,2,.05,2.49s1.47-.15,2.27-1.1l1.06-1.3c1.28-1.56,2.95-3,5.21-1.65s2.38,3.56.83,6.26-3.77,3.84-6.23,2.68l1.48-2.56c1.11.47,2.08-.1,2.81-1.37s.6-2-.13-2.43-1.47.06-2.25,1l-1.27,1.53c-1.26,1.52-2.82,2.84-5,1.6s-2.29-3.86-.84-6.38S367.29,291.75,370,293Z"/><path d="M371.05,307.88l-1.6,2.54L359,303.8l1.61-2.53Zm4.1,2.55-1.67,2.63-2.61-1.66,1.67-2.63Z"/><path d="M358,304.74l-1.75,2.47c-1.09-.53-2.36-.23-3.44,1.31s-1,3.2.59,4.32l1.75,1.23a4.33,4.33,0,0,1,.54-4.55c1.64-2.34,4.71-3.41,8.05-1.06s3.5,5.79,1.79,8.22a4.08,4.08,0,0,1-3.8,2l1.44,1-1.71,2.41L352,315.41c-3.18-2.24-3.06-5.5-1.11-8.27C352.69,304.57,355.38,303.38,358,304.74Zm-.68,6.83a3.07,3.07,0,0,0,1,4.59c1.94,1.37,3.65.82,4.65-.6a3.46,3.46,0,0,0-5.62-4Z"/><path d="M359.87,324.12,358,326.37l-1.54-1.26a4.26,4.26,0,0,1-.87,4.56c-1.81,2.22-4,2.18-6.19.41L343.2,325l1.88-2.31,5.86,4.78a2.16,2.16,0,0,0,3.3-.28c1.06-1.31.94-3-.7-4.35l-5.15-4.2,1.9-2.33Z"/><path d="M345.51,334.84c4.08,4,4.77,7.3,1.9,10.23s-6.21,2.32-10.3-1.7-4.77-7.3-1.88-10.24S341.43,330.84,345.51,334.84Zm-8.43.1c-1.65,1.68-.55,3.57,2.18,6.24s4.65,3.76,6.3,2.08.52-3.56-2.2-6.23S338.71,333.28,337.08,334.94Z"/><path d="M334.52,341.77l-2.25,2c-1.44-1.61-3-1.31-4.39-.08s-1.64,2.6-.61,3.74,2.43.82,4-.56l.88-.78,1.77,2-.82.73c-1.54,1.38-1.57,2.79-.64,3.82s2.26.91,3.35-.06a2.77,2.77,0,0,0,.26-4.29l2.25-2c2.76,3.07,1.35,6.33-.85,8.29s-5.21,2.47-7.08.37A4,4,0,0,1,330,350a3.91,3.91,0,0,1-5.17-.75c-2-2.2-1.31-5.13,1.35-7.52S332,338.94,334.52,341.77Z"/><path d="M321.4,354.44l6.22,8.5-2.48,1.82-6.24-8.53c-1.57-2.15-3.42-2.25-5.34-.85s-2.37,3.19-.8,5.34l6.23,8.52-2.5,1.83-6.21-8.51c-2.61-3.56-1.75-7,1.61-9.47S318.79,350.87,321.4,354.44Z"/><path d="M305.37,368.52l9,4-3.22,2-6-2.82-.21,6.62-3.22,2,.57-9.82-9.7-4.29,3.21-2,6.69,3.12.3-7.38,3.22-2Z"/><path d="M292.93,364.69l2.25,18.51-1.44.77-2.23-18.52Z"/><path d="M288.6,375.25l4.37,9.59-2.79,1.27-4.39-9.61c-1.1-2.42-2.9-2.89-5.06-1.9s-3,2.64-1.86,5.06l4.39,9.61-2.82,1.29L276.07,381c-1.84-4-.29-7.23,3.48-9S286.77,371.23,288.6,375.25Z"/><path d="M277.44,391.66l-2.87,1.12-6.09-15.66,2.87-1.11Z"/><path d="M266.57,395.73l-5.77,1.71c-5.34,1.58-8.88-1.23-10.13-5.46s.11-9.1,5.75-10.76l5.39-1.6ZM257.22,384c-3.69,1.08-4.45,4-3.55,7s2.86,4.68,6.31,3.66l2.83-.84-3.13-10.58Z"/><path d="M249.07,389.58c.79,3.66-.78,6.87-4.67,7.71-3.26.71-6-.58-6.81-4.59l-.3-1.38,8.72-1.89a3,3,0,0,0-3.84-2.21c-1.29.28-2.1.94-2.18,2l-2.86.62c-.08-2.83,2.05-4.59,4.65-5.15C245.21,384,248.19,385.55,249.07,389.58Zm-8.51,3.36c.39,1.59,1.45,2.29,3.28,1.89a3,3,0,0,0,2.56-3.15Z"/><path d="M236.7,390l-3,.46c-.43-1.2-1.6-1.58-3.17-1.34-1.33.2-2,.72-1.92,1.6s1,1.05,2.28,1.08l1.68,0c2,0,4.15.46,4.54,3.05s-1.3,4.08-4.39,4.55-5.35-.55-6-3.2l2.92-.44c.33,1.16,1.38,1.56,2.83,1.34s1.94-.78,1.82-1.61-1-1.12-2.17-1.15l-2,0c-2,0-4-.44-4.35-2.89s1.6-4.19,4.47-4.63S236,387.17,236.7,390Z"/><path d="M225.68,400.18l-3,.32-1.34-12.29,3-.32Zm.57,4.79-3.1.34-.34-3.08,3.1-.34Z"/><path d="M220,388l-3,.19c-.26-1.19-1.29-2-3.16-1.88-2,.12-3.13,1.22-3,3.16l.13,2.13a4.33,4.33,0,0,1,3.89-2.42c2.85-.17,5.6,1.56,5.84,5.64s-2.33,6.34-5.3,6.52a4.08,4.08,0,0,1-3.91-1.74l.11,1.75-2.95.18L207.92,390c-.23-3.88,2.39-5.82,5.77-6C216.83,383.75,219.44,385.11,220,388Zm-5.76,3.74c-1.65.1-3.13,1.17-3,3.62s1.64,3.36,3.37,3.26a3.45,3.45,0,0,0-.39-6.88Z"/><path d="M206,401.59l-2.9,0,0-2A4.27,4.27,0,0,1,199,401.7c-2.85-.05-4.2-1.8-4.15-4.61l.13-8,3,.05-.12,7.56a2.16,2.16,0,0,0,2.27,2.41c1.68,0,3-1.13,3-3.24l.11-6.65,3,.05Z"/><path d="M188.7,397c-.58,5.68-2.72,8.29-6.8,7.88s-5.69-3.4-5.12-9.11,2.72-8.29,6.83-7.87S189.27,391.36,188.7,397Zm-5.35-6.52c-2.34-.24-3.13,1.8-3.51,5.6s0,6,2.32,6.22,3.1-1.81,3.48-5.61S185.67,390.75,183.35,390.52Z"/><path d="M176.42,392.79l-3-.5c.36-2.13-.86-3.16-2.68-3.47s-3,.33-3.31,1.85.89,2.41,2.92,2.76l1.16.19-.44,2.63-1.09-.19c-2-.34-3.16.52-3.39,1.89s.7,2.33,2.15,2.58a2.77,2.77,0,0,0,3.51-2.48l3,.51c-.69,4.07-4.11,5-7,4.51-3.08-.52-5.17-2.53-4.7-5.3a3.94,3.94,0,0,1,3.61-3.36,3.93,3.93,0,0,1-2.65-4.51c.49-2.91,3.2-4.23,6.73-3.63S177.05,389.05,176.42,392.79Z"/><path d="M158.33,390.44l-2.77,10.17-3-.81,2.78-10.19c.7-2.57-.38-4.08-2.67-4.71s-4,.14-4.67,2.71l-2.78,10.19-3-.82,2.78-10.16c1.16-4.26,4.4-5.74,8.4-4.65S159.49,386.19,158.33,390.44Z"/><path d="M137.33,386.7l2.49,9.52-3.54-1.29-1.54-6.47-5.31,4-3.54-1.29,8-5.67-2.69-10.26,3.54,1.29,1.72,7.17,6-4.36,3.54,1.3Z"/><path d="M132.56,374.58l-13.08,13.29-1.49-.65,13.1-13.28Z"/><path d="M121.63,377.78l-4.77,9.39-2.74-1.39,4.78-9.42c1.21-2.37.46-4.07-1.66-5.15s-3.91-.66-5.12,1.71l-4.78,9.41-2.76-1.4,4.77-9.39c2-3.94,5.47-4.73,9.17-2.85S123.63,373.84,121.63,377.78Z"/><path d="M101.8,379.25l-2.65-1.55,8.46-14.51,2.65,1.54Z"/><path d="M91.88,373.3l-4.94-3.45c-4.56-3.19-4.57-7.7-2-11.32s7.18-5.58,12-2.21l4.6,3.22Zm3.35-14.63c-3.14-2.2-5.89-1-7.71,1.6s-1.88,5.16,1.07,7.22L91,369.18l6.33-9Z"/><path d="M85.79,355.8c-2.37,2.9-5.85,3.68-8.94,1.16-2.59-2.11-3.26-5-.66-8.19l.89-1.09L84,353.32a3,3,0,0,0-.67-4.38c-1-.84-2-1.06-3-.44l-2.27-1.85c2.17-1.82,4.87-1.26,6.94.42C87.75,349.29,88.4,352.6,85.79,355.8Zm-7.94-4.55c-1,1.29-.88,2.56.57,3.74a3,3,0,0,0,4.06,0Z"/><path d="M77.7,346.39l-2.22-2.05c.67-1.08.23-2.24-.93-3.31-1-.91-1.85-1.15-2.45-.5s-.18,1.47.57,2.46l1,1.32c1.23,1.6,2.23,3.53.45,5.45s-4,1.54-6.29-.58-2.91-4.52-1.23-6.66l2.17,2c-.71,1-.36,2.05.71,3.05s1.83,1,2.4.41.26-1.45-.45-2.41L70.25,344c-1.2-1.57-2.14-3.38-.47-5.2s4.28-1.38,6.42.59S79.47,344,77.7,346.39Z"/><path d="M59.5,347.57l-2.2-2.21,2.2-2.19,2.2,2.21Zm3.39-3.44L60.77,342l8.76-8.72,2.12,2.13Z"/><path d="M68.87,332.09l-2-2.24c.76-1,.74-2.26-.51-3.65s-2.91-1.67-4.35-.37l-1.59,1.43a4.37,4.37,0,0,1,4.33,1.53c1.91,2.12,2.27,5.35-.76,8.08s-6.41,2.14-8.4-.07a4.05,4.05,0,0,1-1.08-4.13l-1.3,1.17-2-2.19,8.58-7.75c2.89-2.61,6-1.77,8.31.75C70.2,327,70.77,329.86,68.87,332.09Zm-6.51-2.16c-1.11-1.23-2.87-1.71-4.69-.07s-1.6,3.38-.44,4.66,2.94,1.68,4.72.07A3.07,3.07,0,0,0,62.36,329.93Z"/><path d="M49.54,329.65l-1.79-2.29,1.56-1.23a4.23,4.23,0,0,1-4.25-1.85c-1.76-2.24-1.24-4.39,1-6.12l6.32-5,1.84,2.35-5.95,4.66a2.15,2.15,0,0,0-.45,3.28c1,1.32,2.73,1.58,4.39.27l5.24-4.1L59.27,322Z"/><path d="M42.26,313.31c-4.8,3.09-8.18,3-10.4-.41s-.9-6.56,3.92-9.67,8.18-3.05,10.42.42S47.06,310.21,42.26,313.31ZM44,305.06c-1.27-2-3.36-1.32-6.57.75s-4.69,3.71-3.41,5.69,3.35,1.29,6.55-.78S45.28,307,44,305.06Z"/><path d="M37.92,301.05l-1.47-2.64c1.89-1.05,1.94-2.64,1-4.26S35.33,292,34,292.72s-1.33,2.2-.33,4l.57,1L31.89,299l-.54-1c-1-1.81-2.37-2.15-3.58-1.47s-1.39,2-.68,3.28a2.77,2.77,0,0,0,4.12,1.2l1.47,2.65c-3.61,2-6.47-.09-7.9-2.67-1.52-2.73-1.25-5.62,1.2-7a4,4,0,0,1,4.88.73,3.92,3.92,0,0,1,1.88-4.88c2.58-1.44,5.3-.14,7,3S41.24,299.21,37.92,301.05Z"/><path d="M28.47,285.45l-9.67,4.17-1.22-2.82,9.69-4.18c2.45-1.06,3-2.84,2-5s-2.58-3-5-2l-9.69,4.18L13.34,277,23,272.8c4.06-1.75,7.23-.14,8.88,3.67S32.52,283.7,28.47,285.45Z"/><path d="M18.29,266.7l-5.88,7.9L11.21,271l4.09-5.24-6.41-1.67-1.2-3.58,9.45,2.74,6.34-8.51,1.19,3.57-4.52,5.82,7.13,1.94,1.19,3.57Z"/><path d="M24.79,255.4,6.25,253.48l-.42-1.58,18.54,1.95Z"/><path d="M15.47,248.85,5.15,251l-.62-3,10.34-2.14c2.61-.53,3.47-2.18,3-4.51s-1.92-3.47-4.53-2.93L3,240.52l-.62-3,10.31-2.13c4.33-.89,7.11,1.32,8,5.39S19.79,248,15.47,248.85Z"/><path d="M2,234.28l-.45-3,16.62-2.45.45,3Z"/><path d="M.41,222.81l-.39-6c-.35-5.56,3.17-8.38,7.58-8.66s8.85,2.13,9.22,8l.36,5.6Zm13.53-6.51c-.24-3.83-2.9-5.23-6.06-5s-5.21,1.75-5,5.35l.19,2.94,11-.7Z"/><path d="M10.25,207.09c-3.74-.06-6.51-2.31-6.45-6.3.06-3.33,1.92-5.66,6-5.59l1.41,0-.15,8.92a3,3,0,0,0,3-3.23c0-1.32-.45-2.27-1.5-2.6l0-2.93c2.78.58,4,3.05,4,5.71C16.59,204.61,14.38,207.16,10.25,207.09ZM8.91,198c-1.63,0-2.55.9-2.59,2.77A3,3,0,0,0,8.82,204Z"/><path d="M12.59,194.93l.22-3c1.26-.15,1.89-1.22,2-2.8.09-1.34-.26-2.16-1.14-2.22s-1.26.78-1.56,2l-.38,1.63c-.48,2-1.37,3.94-4,3.76S4.06,192.12,4.28,189s1.71-5.1,4.43-5.12l-.21,3c-1.21,0-1.83,1-1.93,2.46s.33,2.07,1.17,2.13,1.3-.71,1.6-1.86l.47-1.94c.48-1.92,1.31-3.79,3.77-3.61,2.61.18,3.75,2.48,3.54,5.37S15.53,194.85,12.59,194.93Z"/><path d="M.31,181.47l.35-3.1,3.07.35-.35,3.1ZM5.1,182l.34-3,12.28,1.39-.33,3Z"/><path d="M18.24,179.1l.49-3c1.21,0,2.22-.83,2.52-2.68.33-2-.5-3.31-2.42-3.63l-2.11-.34a4.35,4.35,0,0,1,1.51,4.33c-.46,2.82-2.75,5.12-6.78,4.46s-5.67-3.67-5.2-6.61a4.05,4.05,0,0,1,2.56-3.42L7.08,168,7.55,165,19,166.89c3.83.63,5.15,3.61,4.6,7C23.07,177,21.17,179.19,18.24,179.1Zm-2.38-6.44c.27-1.63-.45-3.31-2.87-3.7s-3.64.86-3.92,2.57.53,3.34,2.89,3.73A3.07,3.07,0,0,0,15.86,172.66Z"/><path d="M8.08,162.48l.67-2.83,1.94.46a4.24,4.24,0,0,1-1.21-4.48c.66-2.78,2.65-3.71,5.39-3.06l7.82,1.86L22,157.32l-7.35-1.74a2.15,2.15,0,0,0-2.85,1.69c-.38,1.63.47,3.12,2.53,3.61l6.46,1.53-.69,2.92Z"/><path d="M16.32,146.58c-5.42-1.83-7.48-4.49-6.17-8.38s4.58-4.79,10-3,7.47,4.49,6.16,8.4S21.73,148.4,16.32,146.58Zm7.54-3.76c.75-2.23-1.07-3.45-4.68-4.67s-5.82-1.35-6.57.87,1.07,3.43,4.69,4.65S23.12,145,23.86,142.82Z"/><path d="M23.19,135.54l1.16-2.79c2,.82,3.27-.13,4-1.83s.35-3-1.07-3.64-2.55.32-3.34,2.23l-.45,1.09-2.46-1,.42-1c.79-1.91.21-3.19-1.08-3.72s-2.43.16-3,1.51a2.78,2.78,0,0,0,1.63,4l-1.16,2.79c-3.81-1.58-4-5.12-2.83-7.85s3.62-4.47,6.21-3.4a4,4,0,0,1,2.47,4.27,3.92,3.92,0,0,1,5-1.57c2.72,1.12,3.41,4.05,2,7.36S26.7,137,23.19,135.54Z"/><path d="M29.5,118.44l-9.29-5,1.45-2.71,9.32,5c2.34,1.25,4.06.54,5.18-1.56s.75-3.9-1.6-5.15l-9.31-5,1.46-2.73,9.29,5c3.9,2.09,4.62,5.58,2.66,9.24S33.4,120.53,29.5,118.44Z"/><path d="M37.85,98.78,28,99.1l2-3.16,6.64-.07L34,89.81l2-3.16,3.75,9.09,10.6-.34-2.05,3.16L41,98.65l2.92,6.78-2.05,3.16Z"/><path d="M50.73,96.83,40.67,81.14l1-1.32,10,15.71Z"/><path d="M50,85.47l-8.11-6.73,2-2.37L52,83.12c2.05,1.7,3.87,1.35,5.39-.48s1.52-3.67-.53-5.37l-8.12-6.75,2-2.38,8.11,6.73c3.4,2.82,3.4,6.38.75,9.58S53.42,88.29,50,85.47Z"/><path d="M53,65.83l2.09-2.25L67.35,75l-2.1,2.25Z"/><path d="M61,57.45l4.45-4.06c4.12-3.75,8.53-2.76,11.5.51s3.86,8.23-.49,12.19l-4.15,3.78ZM74.5,63.94c2.84-2.58,2.27-5.53.13-7.87s-4.62-3-7.28-.55l-2.18,2,7.43,8.16Z"/><path d="M79.38,55.37c-2.31-2.95-2.3-6.52.84-9,2.62-2.06,5.6-2.07,8.13,1.16l.87,1.11-7,5.51a3,3,0,0,0,4.43.31c1-.81,1.48-1.76,1.07-2.79L90,49.89c1.3,2.51.16,5-1.94,6.67C85.3,58.72,81.93,58.62,79.38,55.37Zm6.19-6.74c-1-1.25-2.31-1.42-3.78-.27a3,3,0,0,0-.93,4Z"/><path d="M90.35,49.55l2.49-1.71c.9.89,2.12.72,3.43-.18,1.1-.77,1.52-1.55,1-2.28s-1.39-.5-2.52,0l-1.51.72c-1.84.85-3.94,1.4-5.42-.76s-.62-4.24,2-6,5-1.85,6.77.26l-2.43,1.67c-.8-.9-1.92-.8-3.13,0s-1.41,1.55-.93,2.24,1.36.58,2.45.09l1.81-.84c1.79-.82,3.77-1.34,5.17.7s.4,4.47-2,6.12S92.24,51.8,90.35,49.55Z"/><path d="M93.2,31.56l2.64-1.66,1.64,2.62-2.64,1.66Zm2.6,4.06L98.34,34l6.57,10.47-2.54,1.59Z"/><path d="M106.24,44.1l2.63-1.48c.76,1,2,1.22,3.67.3s2.28-2.46,1.33-4.15l-1.05-1.87a4.35,4.35,0,0,1-2.45,3.88c-2.49,1.4-5.71,1-7.71-2.52s-.67-6.72,1.93-8.18a4,4,0,0,1,4.26-.14L108,28.41,110.57,27l5.66,10.08c1.91,3.39.39,6.28-2.56,7.93C110.93,46.52,108,46.44,106.24,44.1Zm3.55-5.88a3.06,3.06,0,0,0,1.1-4.55c-1.16-2.07-3-2.31-4.45-1.47a3.09,3.09,0,0,0-1.11,4.59A3.07,3.07,0,0,0,109.79,38.22Z"/><path d="M112.9,25.77l2.63-1.24.85,1.81a4.25,4.25,0,0,1,2.75-3.74c2.58-1.22,4.55-.24,5.75,2.3l3.43,7.27-2.69,1.27-3.23-6.84a2.14,2.14,0,0,0-3.09-1.16c-1.52.71-2.15,2.31-1.25,4.22l2.84,6L118.17,37Z"/></g></g></svg>