<svg xmlns="http://www.w3.org/2000/svg" viewBox="0 0 405.52 406.37"><g id="Layer_2" data-name="Layer 2"><g id="Layer_2-2" data-name="Layer 2"><path d="M131.3,22.24c-1.93-5.37-1.12-8.65,2.74-10s6.59.61,8.53,6,1.12,8.65-2.76,10.05S133.23,27.61,131.3,22.24Zm7.63,3.58c2.22-.8,2-3,.75-6.57s-2.55-5.4-4.77-4.61-2,3-.72,6.56S136.74,26.61,138.93,25.82Z"/><path d="M143.72,20.94l2.93-.85c.58,1.84,1.82,2.58,3.6,2.06s2.46-1.84,1.91-3.75-2-2.72-3.58-2.26a3.29,3.29,0,0,0-2.1,1.73l-2.79.81-1.45-9,8.94-2.59L152,9.88l-6.74,1.95.6,3.87a4.89,4.89,0,0,1,2.91-2.12c2.79-.8,5.36.55,6.3,3.8s-.38,6.19-4.09,7.26C147.69,25.59,144.76,24.44,143.72,20.94Z"/><path d="M162,4.36l3.46-.67,9.64,15.23-3.25.64L169.64,16l-6.95,1.35L162,21.47l-3.25.64Zm6.14,9.05-3.8-6.28-1.17,7.25Z"/><path d="M173.55,6.77l2.88-.35.24,2a4.24,4.24,0,0,1,3.79-2.67c2.83-.34,4.4,1.21,4.73,4l.95,8-3,.36-.89-7.51a2.15,2.15,0,0,0-2.57-2.09c-1.67.2-2.77,1.52-2.52,3.61l.79,6.61L175,19Z"/><path d="M186.2,14.29c-.15-2.71,2-3.6,3.85-3.94l2.59-.48c.81-.17,1.54-.4,1.49-1.33s-.83-1.45-2.31-1.37c-1.78.1-2.55.82-2.73,1.93l-3,.17c.27-2.88,2.41-4.29,5.69-4.48s5.13,1.09,5.28,3.89l.47,8.39-2.76.15-.12-2.16a4.6,4.6,0,0,1-4.2,2.66C188.11,17.86,186.34,16.68,186.2,14.29Zm5,.92a3,3,0,0,0,3.14-3.13l0-.6a8.69,8.69,0,0,1-1.75.48l-1.45.3c-.93.17-2,.47-1.91,1.62C189.24,14.84,190,15.28,191.18,15.21Z"/><path d="M198.43.05l3,0,.28,17.07-3,.05Z"/><path d="M202.73,18.33l1.39,0c1.18,0,1.76-.28,2.14-1.09l.21-.48L201.7,4.62l3.22.08L208,13.5l3.35-8.62,3.15.08L208.9,18.13c-.89,2.11-2.14,2.95-4.68,2.88l-1.56,0Z"/><path d="M215.31,14l.47-6.18-2.2-.16.2-2.64,2.2.17.22-2.87,3.06-.61L219,5.37l2.59.2-.21,2.63L218.77,8l-.44,5.72c-.07,1,.23,1.39,1.21,1.47l1.53.11-.19,2.61-2.3-.18C216.23,17.56,215.13,16.32,215.31,14Z"/><path d="M222.4,5.67l3,.32-1.3,12.29-3-.32Zm.46-4.8,3.1.33-.32,3.08L222.53,4Z"/><path d="M225.28,12.25c.53-3.59,3-6.16,7.08-5.56,3.23.48,5,2.61,4.77,5.46l-3-.44A2.2,2.2,0,0,0,232,9.26c-2.28-.34-3.36,1.2-3.67,3.34s.34,3.88,2.48,4.2a2.23,2.23,0,0,0,2.83-1.74l3,.44c-.62,2.85-3.1,4.35-6.35,3.87C226.25,18.77,224.76,15.71,225.28,12.25Z"/><path d="M236.15,16.06l3,.62c0,1.27.95,2,2.5,2.35,1.32.28,2.17,0,2.36-.83s-.61-1.35-1.76-1.81l-1.57-.6c-1.88-.73-3.73-1.87-3.19-4.44s2.63-3.37,5.69-2.73S248,11,247.62,13.69l-2.89-.6c.11-1.2-.74-1.95-2.18-2.24s-2.09.05-2.26.87.52,1.39,1.63,1.84l1.85.73c1.84.72,3.58,1.79,3.07,4.21s-3,3.39-5.8,2.79S235.84,19,236.15,16.06Z"/><path d="M251,14.73c1.59-5.48,4.16-7.66,8.1-6.52s5,4.36,3.4,9.87-4.16,7.66-8.12,6.52S249.38,20.22,251,14.73Zm4.09,7.38c2.26.65,3.4-1.22,4.46-4.89s1.1-5.87-1.16-6.52-3.38,1.22-4.44,4.88S252.82,21.46,255.05,22.11Z"/><path d="M261.79,21l2.87,1c-.6,1.82,0,3.15,1.71,3.77s3.08,0,3.75-1.92,0-3.38-1.58-3.93a3.3,3.3,0,0,0-2.71.18l-2.74-1L267.17,11l8.77,3.14-1,2.71-6.6-2.36L266.59,18a4.86,4.86,0,0,1,3.6,0c2.73,1,4,3.58,2.88,6.77s-3.93,4.79-7.57,3.48C262.29,27.06,260.59,24.41,261.79,21Z"/><path d="M286.31,18.23l3.2,1.48-1.12,18-3-1.39.33-4.21-6.42-3-3,3-3-1.39ZM286,29.16l.61-7.31L281.38,27Z"/><path d="M294.28,27l2.53,1.41-1,1.74a4.28,4.28,0,0,1,4.64.06c2.5,1.39,2.85,3.56,1.49,6l-3.91,7-2.61-1.45,3.68-6.6a2.15,2.15,0,0,0-.86-3.2c-1.46-.82-3.13-.4-4.15,1.45l-3.24,5.81-2.62-1.46Z"/><path d="M300.11,40.46c1.47-2.28,3.72-1.75,5.42-.94l2.39,1.14c.75.34,1.48.58,2-.21s.18-1.65-1.07-2.46c-1.49-1-2.54-.84-3.34,0L303,36.36c1.91-2.17,4.47-2.07,7.24-.29s3.52,3.89,2,6.25l-4.55,7.07-2.32-1.49,1.17-1.82a4.63,4.63,0,0,1-5-.31C299.56,44.47,298.81,42.48,300.11,40.46Zm3.49,3.67a3,3,0,0,0,4.38-.69l.33-.51a8.47,8.47,0,0,1-1.71-.63l-1.34-.61c-.86-.41-1.87-.78-2.5.19C302.24,42.69,302.59,43.48,303.6,44.13Z"/><path d="M318.39,36.11l2.45,1.73L311,51.79l-2.45-1.72Z"/><path d="M311.12,53.42l1.1.85a2,2,0,0,0,2.38.37l.45-.27,3.29-12.65,2.55,2-2.63,9,7.77-5,2.5,1.91-12.3,7.36c-2,1.18-3.46,1.12-5.48-.43l-1.24-.94Z"/><path d="M323.87,57.26l4-4.72-1.68-1.43,1.71-2,1.68,1.43,1.86-2.2,2.83,1.3-2.4,2.84,2,1.68-1.71,2-2-1.68-3.71,4.37c-.63.74-.63,1.27.12,1.9l1.17,1-1.7,2-1.75-1.49C322.5,60.73,322.34,59.07,323.87,57.26Z"/><path d="M334.45,54.72l2.23,2-8.27,9.18-2.23-2Zm3.2-3.61L340,53.2l-2.08,2.3-2.31-2.09Z"/><path d="M332.94,61.75c2.54-2.59,6.06-3.21,9-.34,2.34,2.29,2.54,5.07.66,7.23l-2.18-2.14a2.2,2.2,0,0,0-.29-3.23c-1.65-1.61-3.42-1-4.93.54s-2,3.35-.46,4.86a2.22,2.22,0,0,0,3.31.25l2.18,2.13c-2.17,2-5.05,1.71-7.4-.59C329.9,67.6,330.49,64.25,332.94,61.75Z"/><path d="M339.5,71.22l2,2.24c-.76,1-.42,2.2.65,3.37.9,1,1.74,1.31,2.39.71s.31-1.45-.36-2.5l-.92-1.4c-1.09-1.7-1.91-3.71,0-5.47s4.12-1.18,6.22,1.12,2.51,4.76.65,6.74l-2-2.18c.79-.91.54-2-.45-3.09s-1.72-1.19-2.35-.62-.39,1.42.25,2.44l1.07,1.68c1.06,1.66,1.84,3.55,0,5.21s-4.38,1-6.33-1.14S337.53,73.4,339.5,71.22Z"/><path d="M352.27,78.83c4.5-3.52,7.86-3.78,10.39-.54s1.48,6.45-3,10-7.87,3.77-10.41.52S347.77,82.35,352.27,78.83Zm-1,8.37c1.45,1.86,3.47,1,6.47-1.34s4.34-4.12,2.89-6-3.45-1-6.46,1.37S349.83,85.37,351.26,87.2Z"/><path d="M357.4,90.24l1.72,2.51c-1.55,1.13-1.87,2.54-.82,4.06s2.52,1.76,4.16.64,2-2.77,1-4.11a3.28,3.28,0,0,0-2.3-1.45l-1.64-2.39,8.06-4.2L372.87,93l-2.37,1.63-4-5.78L363,90.61a4.85,4.85,0,0,1,2.93,2.1c1.64,2.4,1.16,5.26-1.63,7.17s-6,1.58-8.18-1.6C354.23,95.47,354.4,92.32,357.4,90.24Z"/><path d="M378.88,102.37l1.73,3.08-11.44,13.94-1.62-2.88,2.73-3.22-3.47-6.17-4.17.66L361,104.89ZM372.22,111l4.77-5.57-7.26,1.16Z"/><path d="M380.22,114.09l1.23,2.63-1.81.85a4.25,4.25,0,0,1,3.73,2.76c1.21,2.58.23,4.55-2.31,5.74l-7.28,3.41-1.26-2.69,6.84-3.21a2.15,2.15,0,0,0,1.17-3.09c-.71-1.52-2.3-2.15-4.21-1.26l-6,2.82L369,119.34Z"/><path d="M377.07,128.49c2.52-1,4,.76,4.94,2.42l1.27,2.31c.4.71.86,1.34,1.73,1s1.11-1.23.57-2.62c-.65-1.65-1.57-2.16-2.69-2l-1.08-2.75c2.82-.64,4.83.94,6,4s.58,5.21-2,6.24L378,140.16l-1-2.57,2-.78a4.62,4.62,0,0,1-3.84-3.16C374.27,131.41,374.83,129.36,377.07,128.49Zm.67,5a3,3,0,0,0,4,2l.56-.22a9,9,0,0,1-1-1.51l-.73-1.28c-.46-.83-1.06-1.73-2.14-1.31C377.49,131.54,377.31,132.39,377.74,133.51Z"/><path d="M394.42,135.65l1,2.84-16.13,5.56-1-2.84Z"/><path d="M378.39,145.42l.4,1.33c.34,1.13.82,1.58,1.71,1.69l.51.05,10.09-8.32.92,3.08L384.63,149l9.24.5.9,3-14.27-1.25c-2.29-.19-3.46-1.12-4.19-3.55l-.45-1.5Z"/><path d="M386.47,156l6-1.46-.53-2.15,2.57-.63.52,2.15,2.8-.68,1.53,2.71-3.62.88.62,2.52-2.57.63-.61-2.52-5.57,1.36c-.94.23-1.25.65-1,1.61l.36,1.49-2.54.62-.54-2.24C383.33,158,384.16,156.57,386.47,156Z"/><path d="M396.54,160.18l.62,2.93-12.08,2.58-.63-2.93Zm4.71-1.05.65,3.05-3,.64-.65-3Z"/><path d="M391.19,165c3.57-.61,6.79,1,7.48,5,.54,3.22-.93,5.59-3.72,6.23l-.51-3a2.21,2.21,0,0,0,1.67-2.79c-.39-2.28-2.18-2.82-4.31-2.46s-3.59,1.54-3.23,3.67a2.24,2.24,0,0,0,2.54,2.15l.51,3c-2.9.3-5.1-1.59-5.65-4.83C385.29,167.92,387.73,165.56,391.19,165Z"/><path d="M390.93,176.46l.33,3c-1.21.37-1.64,1.53-1.46,3.11.15,1.33.64,2.07,1.52,2s1.1-1,1.18-2.24l.08-1.67c.11-2,.62-4.13,3.22-4.42s4,1.46,4.37,4.56-.76,5.33-3.43,5.84l-.32-2.93c1.17-.28,1.61-1.32,1.45-2.77s-.7-2-1.54-1.88-1.15.92-1.23,2.12l-.12,2c-.12,2-.6,4-3.05,4.23-2.6.28-4.14-1.77-4.46-4.65S388.05,177.07,390.93,176.46Z"/><path d="M396.79,190.14c5.71-.21,8.58,1.57,8.73,5.67s-2.59,6.09-8.33,6.3-8.58-1.57-8.73-5.69S391.08,190.34,396.79,190.14Zm-5.73,6.18c.08,2.35,2.21,2.85,6,2.72s5.93-.79,5.85-3.14-2.22-2.83-6-2.69S391,194,391.06,196.32Z"/><path d="M394.24,202.36l-.08,3c-1.92,0-3,1-3,2.8s1,2.9,3,3,3.2-1.1,3.24-2.73a3.28,3.28,0,0,0-1-2.52l.08-2.91,9,1.34-.24,9.3-2.88-.07.18-7-3.87-.61a4.88,4.88,0,0,1,1.14,3.42c-.08,2.9-2.15,4.94-5.53,4.85s-5.77-2.24-5.68-6.1C388.61,204.74,390.59,202.29,394.24,202.36Z"/><path d="M404.53,224.77l-.4,3.51-17.44,4.59.37-3.29,4.11-1,.8-7-3.77-1.9.38-3.29Zm-10.48,3.12,7.13-1.72-6.56-3.31Z"/><path d="M398.74,235.08l-.54,2.86-2-.38a4.27,4.27,0,0,1,1.41,4.42c-.54,2.81-2.49,3.83-5.25,3.31l-7.89-1.51.55-2.92,7.43,1.41a2.15,2.15,0,0,0,2.76-1.82c.32-1.65-.61-3.09-2.68-3.49L386,235.72l.56-2.95Z"/><path d="M387.75,244.9c2.63.68,2.83,3,2.59,4.85l-.33,2.62c-.08.82-.08,1.59.82,1.82s1.63-.34,2-1.79c.44-1.72,0-2.67-1-3.18l.74-2.86c2.65,1.13,3.36,3.59,2.54,6.78s-2.59,4.56-5.31,3.86l-8.14-2.1.69-2.67,2.09.54a4.64,4.64,0,0,1-1.26-4.82C383.77,245.63,385.43,244.3,387.75,244.9Zm-2.39,4.46a3,3,0,0,0,2,3.95l.58.15a9.43,9.43,0,0,1,.08-1.82l.15-1.47c.12-.94.15-2-1-2.31C386.31,247.62,385.66,248.2,385.36,249.36Z"/><path d="M397.61,260.87l-.87,2.88-16.32-5,.87-2.87Z"/><path d="M378.9,259.4l-.46,1.31a2,2,0,0,0,.39,2.38l.39.34,13.06-.83-1.06,3-9.34.3,7.2,5.82-1,3-10.83-9.38c-1.74-1.5-2.15-2.94-1.31-5.34l.51-1.47Z"/><path d="M379.26,272.69,385,275l.84-2,2.44,1-.83,2,2.67,1.08-.36,3.1-3.44-1.4-1,2.4-2.44-1,1-2.4-5.31-2.16c-.89-.36-1.4-.2-1.77.71l-.58,1.42-2.42-1,.87-2.13C375.54,272.47,377.06,271.79,379.26,272.69Z"/><path d="M385,282l-1.21,2.75-11.31-5,1.22-2.74Zm4.44,1.91-1.26,2.85-2.84-1.25,1.26-2.85Z"/><path d="M377.82,282.72c3.25,1.61,4.94,4.76,3.12,8.44-1.44,2.93-4,4-6.66,2.88l1.35-2.74a2.21,2.21,0,0,0,3-1.28c1-2.07-.12-3.56-2.06-4.52s-3.8-.86-4.76,1.08a2.24,2.24,0,0,0,.8,3.23l-1.35,2.73c-2.52-1.45-3.19-4.27-1.74-7.22C371.31,281.66,374.68,281.18,377.82,282.72Z"/><path d="M370.88,291.9l-1.49,2.63c-1.21-.41-2.23.28-3,1.66-.67,1.17-.7,2.06.07,2.5s1.47-.16,2.26-1.12l1.05-1.31c1.27-1.57,2.92-3,5.2-1.69s2.41,3.54.87,6.26-3.73,3.87-6.2,2.72l1.45-2.57c1.12.46,2.09-.12,2.81-1.39s.58-2-.15-2.43-1.47.07-2.24,1l-1.26,1.55c-1.25,1.53-2.81,2.85-5,1.63s-2.31-3.84-.88-6.37S368.18,290.7,370.88,291.9Z"/><path d="M367.61,306.41c4.74,3.18,6,6.3,3.74,9.71s-5.67,3.42-10.43.22-6-6.3-3.74-9.73S362.86,303.23,367.61,306.41Zm-8.27,1.65c-1.31,1.95.12,3.61,3.29,5.73s5.26,2.84,6.57.88-.13-3.58-3.3-5.71S360.63,306.12,359.34,308.06Z"/><path d="M358.36,314.84l-1.85,2.42c-1.56-1.13-3-1-4.12.48s-.89,2.94.69,4.15,3.23,1,4.22-.3A3.29,3.29,0,0,0,358,319l1.77-2.31,6.49,6.36-5.66,7.4-2.28-1.75,4.26-5.57-2.78-2.76a4.85,4.85,0,0,1-1.09,3.43c-1.77,2.31-4.64,2.74-7.32.68s-3.36-5.2-1-8.27C352.41,313.45,355.45,312.64,358.36,314.84Z"/><path d="M353.52,339l-2.39,2.6-16.8-6.53,2.23-2.44,3.91,1.6,4.79-5.22-1.93-3.76,2.24-2.44Zm-10.31-3.63,6.77,2.79-3.35-6.53Z"/><path d="M342.79,343.94l-2.12,2-1.36-1.45a4.27,4.27,0,0,1-1.46,4.41c-2.08,2-4.26,1.64-6.18-.41l-5.51-5.85,2.16-2,5.19,5.5a2.14,2.14,0,0,0,3.3.15c1.22-1.15,1.33-2.86-.12-4.4L332.13,337l2.19-2.05Z"/><path d="M328.15,345.42c1.74,2.09.54,4.08-.74,5.46l-1.8,1.92c-.56.62-1,1.24-.41,2s1.52.67,2.67-.28c1.37-1.13,1.57-2.17,1.05-3.17l2.27-1.89c1.49,2.48.62,4.88-1.91,7s-4.78,2.18-6.57,0L317.35,350l2.12-1.76,1.38,1.66a4.63,4.63,0,0,1,1.8-4.64C324.5,343.68,326.62,343.58,328.15,345.42Zm-4.55,2.22a3,3,0,0,0-.67,4.39l.39.46a8.52,8.52,0,0,1,1.12-1.43l1-1.1c.64-.69,1.3-1.55.57-2.44C325.38,346.78,324.52,346.87,323.6,347.64Z"/><path d="M326.75,364.16,324.37,366,314,352.4l2.39-1.82Z"/><path d="M312.47,352l-1.14.79c-1,.67-1.25,1.28-1.08,2.16l.12.5,11.07,7-2.64,1.84L311.06,359l2.42,8.93-2.57,1.8-3.3-13.95c-.53-2.23,0-3.64,2.07-5.1l1.28-.89Z"/><path d="M305,363l3.29,5.25,1.87-1.17,1.4,2.24-1.87,1.17,1.52,2.44-2.09,2.3-2-3.15-2.19,1.37-1.4-2.23,2.19-1.38-3-4.86c-.51-.81-1-1-1.84-.46l-1.3.82-1.39-2.22,1.95-1.22C302.07,360.63,303.69,361,305,363Z"/><path d="M304.17,373.84l-2.59,1.52-6.25-10.66,2.59-1.52Zm2.48,4.14L304,379.56l-1.57-2.67,2.69-1.58Z"/><path d="M297.93,370.27c1.71,3.2,1.22,6.75-2.4,8.67-2.88,1.53-5.59.88-7.08-1.56l2.69-1.43a2.21,2.21,0,0,0,3.17.7c2-1.08,2-3,1-4.86s-2.59-2.92-4.49-1.91a2.23,2.23,0,0,0-1.25,3.08l-2.69,1.43c-1.19-2.65-.09-5.33,2.81-6.88C293.28,365.6,296.29,367.18,297.93,370.27Z"/><path d="M286.92,373.65l-2.75,1.27c-.74-1-2-1.08-3.41-.42-1.22.56-1.77,1.26-1.4,2.07s1.28.73,2.49.41l1.61-.45c2-.52,4.11-.7,5.2,1.68s-.12,4.28-3,5.58-5.29.95-6.62-1.42l2.68-1.23c.63,1,1.76,1.12,3.09.51s1.65-1.29,1.3-2-1.24-.81-2.4-.51l-1.93.51c-1.9.51-3.94.68-5-1.57s.37-4.47,3-5.68S285.43,371.11,286.92,373.65Z"/><path d="M275.78,383.51c2,5.36,1.2,8.64-2.65,10.07s-6.6-.55-8.59-5.93-1.2-8.64,2.67-10.08S273.8,378.16,275.78,383.51ZM268.11,380c-2.21.82-2,3-.69,6.58s2.61,5.38,4.81,4.57,2-3,.67-6.57S270.29,379.2,268.11,380Z"/><path d="M263.36,384.92l-2.92.88c-.6-1.83-1.85-2.55-3.62-2s-2.45,1.86-1.87,3.77,2,2.69,3.6,2.23a3.32,3.32,0,0,0,2.08-1.76l2.78-.83,1.54,9L256,398.83l-.82-2.76,6.71-2-.63-3.87a4.8,4.8,0,0,1-2.89,2.15c-2.79.83-5.37-.5-6.34-3.74s.33-6.19,4-7.3C259.34,380.31,262.29,381.44,263.36,384.92Z"/><path d="M245.26,401.67l-3.46.71L232,387.23l3.24-.67,2.23,3.59,6.94-1.42.64-4.17,3.24-.66Zm-6.22-9,3.84,6.24,1.12-7.26Z"/><path d="M233.68,399.36l-2.88.37-.25-2a4.26,4.26,0,0,1-3.77,2.7c-2.83.37-4.4-1.17-4.76-4l-1-8,2.95-.38,1,7.5a2.15,2.15,0,0,0,2.59,2.06c1.66-.21,2.75-1.54,2.48-3.63l-.84-6.59,3-.39Z"/><path d="M221,392c.18,2.71-2,3.62-3.81,4l-2.59.5c-.8.17-1.54.41-1.48,1.35s.84,1.43,2.33,1.34c1.77-.12,2.54-.84,2.71-2l2.95-.19c-.25,2.88-2.37,4.32-5.65,4.53s-5.15-1-5.33-3.84l-.53-8.39,2.75-.18.14,2.16a4.62,4.62,0,0,1,4.18-2.7C219,388.41,220.81,389.57,221,392Zm-5-.88a3,3,0,0,0-3.11,3.16l0,.6a8.7,8.7,0,0,1,1.75-.5l1.45-.31c.93-.18,2-.48,1.89-1.63C217.92,391.44,217.17,391,216,391.08Z"/><path d="M208.81,406.3l-3,.07-.38-17.06,3-.06Z"/><path d="M204.39,388.07,203,388c-1.17,0-1.76.31-2.13,1.12l-.2.47,4.87,12.14-3.21-.06-3.21-8.77-3.27,8.66-3.15-.06,5.52-13.22c.88-2.12,2.12-3,4.66-2.92l1.56,0Z"/><path d="M191.86,392.56l-.42,6.18,2.2.15-.17,2.63-2.21-.15-.19,2.87-3,.64.25-3.71-2.58-.18.17-2.63,2.59.18.39-5.73c.06-.95-.25-1.38-1.23-1.45l-1.53-.1.17-2.61,2.3.15C190.9,389,192,390.19,191.86,392.56Z"/><path d="M184.43,405.71l-3.11-.3.3-3.08,3.11.3Zm.42-4.81-3-.29,1.2-12.3,3,.29Z"/><path d="M181.88,394.35c-.5,3.59-3,6.18-7,5.61-3.23-.45-5-2.56-4.82-5.42l3,.42a2.22,2.22,0,0,0,2.16,2.44c2.28.31,3.34-1.24,3.64-3.38s-.38-3.88-2.52-4.18a2.25,2.25,0,0,0-2.82,1.77l-3-.42c.58-2.85,3.05-4.37,6.31-3.92C180.85,387.83,182.36,390.88,181.88,394.35Z"/><path d="M171,390.64l-3-.59c0-1.27-1-2-2.52-2.33-1.32-.26-2.18,0-2.35.85s.62,1.35,1.77,1.8l1.58.58c1.89.71,3.74,1.84,3.24,4.41s-2.61,3.4-5.67,2.79-4.85-2.33-4.53-5l2.89.57c-.09,1.21.77,1.94,2.21,2.22s2.09-.07,2.25-.9-.53-1.37-1.64-1.81l-1.87-.71c-1.84-.71-3.59-1.77-3.11-4.19s2.92-3.41,5.77-2.85S171.3,387.71,171,390.64Z"/><path d="M156.18,392.09c-1.53,5.51-4.09,7.71-8,6.61s-5-4.32-3.49-9.84,4.09-7.71,8.07-6.6S157.71,386.59,156.18,392.09ZM152,384.76c-2.26-.63-3.39,1.25-4.41,4.92s-1,5.89,1.22,6.52,3.37-1.25,4.39-4.93S154.26,385.38,152,384.76Z"/><path d="M145.3,386l-2.88-1c.58-1.83,0-3.15-1.74-3.76s-3.08.08-3.74,2,.07,3.38,1.62,3.91a3.3,3.3,0,0,0,2.71-.2l2.74,1L140,396l-8.79-3.06.94-2.72,6.62,2.3,1.76-3.5a4.82,4.82,0,0,1-3.6,0c-2.75-1-4.06-3.55-2.94-6.74s3.89-4.83,7.54-3.56C144.75,379.87,146.47,382.51,145.3,386Z"/><path d="M120.81,388.92l-3.21-1.46,1-18,3,1.36-.3,4.21,6.45,2.92,3-3,3,1.36ZM121,378l-.54,7.31,5.16-5.23Z"/><path d="M112.78,380.27l-2.55-1.39,1-1.75a4.28,4.28,0,0,1-4.64,0c-2.5-1.37-2.88-3.54-1.54-6l3.85-7.06,2.61,1.43-3.61,6.64a2.14,2.14,0,0,0,.88,3.18c1.48.81,3.14.37,4.15-1.48l3.17-5.84,2.64,1.43Z"/><path d="M106.8,366.81c-1.45,2.3-3.71,1.78-5.42,1L99,366.69c-.76-.34-1.49-.57-2,.22s-.16,1.66,1.1,2.45c1.5.95,2.55.81,3.34,0l2.5,1.57c-1.89,2.19-4.45,2.11-7.23.35s-3.56-3.86-2.06-6.23L99.13,358l2.34,1.47-1.15,1.83a4.61,4.61,0,0,1,5,.27C107.32,362.8,108.08,364.78,106.8,366.81Zm-3.52-3.64a3,3,0,0,0-4.38.73l-.32.51a9.22,9.22,0,0,1,1.71.62l1.35.6c.86.4,1.88.76,2.49-.21S104.29,363.81,103.28,363.17Z"/><path d="M88.56,371.32l-2.47-1.71,9.7-14,2.47,1.71Z"/><path d="M95.68,354l-1.11-.83a1.93,1.93,0,0,0-2.38-.35l-.44.26-3.18,12.69L86,363.79l2.55-9-7.73,5.09L78.31,358l12.23-7.47c1.95-1.2,3.45-1.16,5.48.37l1.25.94Z"/><path d="M82.89,350.22l-4,4.76,1.69,1.41-1.69,2L77.23,357l-1.84,2.21-2.85-1.28,2.39-2.86-2-1.66,1.69-2,2,1.66,3.68-4.41c.61-.74.62-1.26-.14-1.9l-1.18-1,1.68-2,1.77,1.48C84.23,346.75,84.42,348.4,82.89,350.22Z"/><path d="M69.17,356.51l-2.34-2.07,2-2.32,2.34,2.07Zm3.16-3.64-2.25-2,8.2-9.26,2.25,2Z"/><path d="M73.78,345.82c-2.51,2.61-6,3.26-9,.41-2.36-2.26-2.58-5-.72-7.21l2.19,2.11a2.22,2.22,0,0,0,.32,3.24c1.66,1.59,3.43,1,4.93-.59s2-3.37.41-4.87a2.22,2.22,0,0,0-3.31-.22l-2.2-2.11c2.15-2,5-1.75,7.41.53C76.77,339.94,76.21,343.29,73.78,345.82Z"/><path d="M67.15,336.41l-2.06-2.22c.75-1,.4-2.21-.67-3.37-.92-1-1.76-1.29-2.41-.68s-.29,1.45.39,2.49l.93,1.4c1.11,1.68,2,3.69,0,5.47s-4.1,1.22-6.22-1.07-2.56-4.73-.72-6.73l2,2.16c-.78.92-.52,2,.48,3.09s1.74,1.17,2.35.6.38-1.43-.26-2.44l-1.1-1.67c-1.07-1.65-1.87-3.53-.06-5.22s4.37-1,6.35,1.09S69.1,334.21,67.15,336.41Z"/><path d="M54.31,328.91c-4.47,3.56-7.83,3.85-10.39.64s-1.54-6.44,2.95-10,7.83-3.84,10.4-.61S58.78,325.36,54.31,328.91Zm.93-8.38c-1.46-1.84-3.47-1-6.46,1.41s-4.29,4.15-2.83,6,3.46,1,6.45-1.42S56.69,322.35,55.24,320.53Z"/><path d="M49.08,317.55l-1.75-2.49c1.55-1.14,1.85-2.56.79-4.07s-2.53-1.74-4.16-.6-1.93,2.78-1,4.12a3.28,3.28,0,0,0,2.31,1.42L47,318.31l-8,4.27L33.58,315l2.36-1.65L40,319l3.47-1.82a4.78,4.78,0,0,1-2.94-2.07c-1.66-2.38-1.21-5.24,1.57-7.18s6-1.63,8.19,1.54C52.2,312.3,52.06,315.44,49.08,317.55Z"/><path d="M27.5,305.62l-1.76-3.06,11.31-14.05,1.65,2.88L36,294.63l3.53,6.14,4.16-.71,1.65,2.88Zm6.58-8.73-4.72,5.61,7.24-1.22Z"/><path d="M26,293.89l-1.26-2.62,1.8-.86a4.28,4.28,0,0,1-3.76-2.73c-1.23-2.57-.27-4.55,2.27-5.76l7.24-3.48,1.29,2.68-6.81,3.27a2.16,2.16,0,0,0-1.15,3.11c.73,1.51,2.33,2.13,4.23,1.21l6-2.87,1.3,2.7Z"/><path d="M29.08,279.5c-2.52,1-4-.72-5-2.37l-1.29-2.3c-.42-.71-.87-1.33-1.74-1s-1.1,1.25-.55,2.63c.67,1.65,1.59,2.15,2.71,2l1.1,2.74c-2.81.67-4.84-.9-6.07-3.95s-.62-5.21,2-6.26l7.8-3.14,1,2.56-2,.81A4.63,4.63,0,0,1,31,274.33C31.84,276.55,31.3,278.61,29.08,279.5Zm-.73-5a3,3,0,0,0-4-2l-.55.23a9.44,9.44,0,0,1,1,1.5l.74,1.28c.47.82,1.08,1.71,2.15,1.28C28.62,276.45,28.8,275.61,28.35,274.49Z"/><path d="M11.64,272.46l-1-2.82,16.09-5.7,1,2.83Z"/><path d="M27.58,262.55l-.41-1.33c-.34-1.12-.84-1.57-1.72-1.67l-.52-.05-10,8.42L14,264.85l7.34-5.78-9.25-.41-.93-3,14.29,1.12c2.29.17,3.47,1.08,4.23,3.52l.46,1.49Z"/><path d="M19.41,252.05l-6,1.52.54,2.14-2.55.65-.55-2.14-2.79.71-1.55-2.7,3.61-.91-.64-2.52,2.56-.64.63,2.51,5.56-1.41c.93-.24,1.24-.67,1-1.62l-.38-1.49,2.54-.64.57,2.23C22.53,250,21.71,251.47,19.41,252.05Z"/><path d="M4.61,249.08l-.68-3,3-.67.67,3ZM9.31,248l-.65-2.93,12.06-2.69.65,2.93Z"/><path d="M14.61,243.12c-3.56.65-6.79-.9-7.52-4.94-.57-3.21.88-5.59,3.66-6.26l.54,3a2.22,2.22,0,0,0-1.65,2.81c.41,2.26,2.21,2.79,4.34,2.41s3.57-1.57,3.19-3.69a2.23,2.23,0,0,0-2.55-2.13l-.54-3c2.89-.32,5.1,1.55,5.68,4.78C20.49,240.12,18.06,242.51,14.61,243.12Z"/><path d="M14.77,231.63l-.36-3c1.21-.38,1.62-1.54,1.43-3.12-.16-1.33-.66-2.07-1.54-2s-1.09,1-1.16,2.24l-.06,1.68c-.1,2-.59,4.13-3.19,4.44s-4-1.42-4.41-4.52.71-5.33,3.38-5.87l.35,2.93c-1.17.28-1.6,1.33-1.43,2.78s.72,2,1.56,1.87,1.14-.94,1.21-2.13l.1-2c.1-2,.57-4,3-4.26,2.6-.31,4.15,1.73,4.5,4.61S17.64,231,14.77,231.63Z"/><path d="M8.78,218c-5.7.26-8.59-1.49-8.77-5.59s2.54-6.11,8.27-6.37,8.59,1.49,8.77,5.61S14.49,217.76,8.78,218Zm5.68-6.23c-.1-2.35-2.24-2.83-6.05-2.66s-5.92.84-5.81,3.19,2.24,2.8,6.05,2.63S14.57,214.1,14.46,211.78Z"/><path d="M11.22,205.78l0-3.05c1.92,0,3-1,3-2.83s-1-2.9-3-2.93-3.19,1.12-3.21,2.75a3.29,3.29,0,0,0,1,2.52l0,2.9-9-1.25.16-9.32,2.88.05-.12,7,3.88.57a4.88,4.88,0,0,1-1.17-3.41c0-2.9,2.1-5,5.49-4.9s5.79,2.19,5.73,6.05C16.83,203.35,14.87,205.81,11.22,205.78Z"/><path d="M.74,183.43l.37-3.51,17.4-4.75-.35,3.29-4.09,1-.74,7,3.78,1.87-.35,3.3Zm10.45-3.22L4.08,182l6.58,3.25Z"/><path d="M6.43,173.08,7,170.22l2,.35a4.24,4.24,0,0,1-1.45-4.4c.51-2.81,2.45-3.85,5.22-3.35l7.91,1.43-.53,2.93-7.44-1.35a2.15,2.15,0,0,0-2.75,1.85c-.3,1.65.64,3.09,2.72,3.46l6.54,1.19-.54,2.95Z"/><path d="M17.33,163.19c-2.64-.66-2.86-3-2.64-4.84l.31-2.62c.08-.82.07-1.59-.84-1.81s-1.62.36-2,1.81c-.43,1.72,0,2.67,1,3.17l-.71,2.87c-2.67-1.11-3.4-3.56-2.6-6.76s2.54-4.58,5.27-3.91l8.15,2-.66,2.68-2.1-.52a4.61,4.61,0,0,1,1.31,4.8C21.3,162.42,19.66,163.77,17.33,163.19Zm2.35-4.49a3,3,0,0,0-2.07-3.93l-.58-.14a9.16,9.16,0,0,1-.06,1.82l-.14,1.47c-.11.94-.13,2,1,2.3C18.75,160.45,19.39,159.87,19.68,158.7Z"/><path d="M7.32,147.3l.85-2.88,16.37,4.8-.85,2.88Z"/><path d="M26.05,148.59l.45-1.32a1.94,1.94,0,0,0-.42-2.37l-.39-.34-13,1,1-3.05,9.34-.39-7.26-5.75,1-3,10.93,9.28c1.75,1.48,2.18,2.92,1.36,5.33l-.5,1.48Z"/><path d="M25.58,135.3,19.82,133,19,135.07l-2.46-1,.82-2.05L14.69,131l.33-3.1,3.46,1.37.95-2.41,2.46,1-1,2.4,5.33,2.12c.89.35,1.4.19,1.76-.72l.57-1.43,2.43,1-.85,2.15C29.3,135.48,27.79,136.17,25.58,135.3Z"/><path d="M15.33,124.21l1.24-2.87,2.84,1.23-1.24,2.86Zm4.45,1.86L21,123.32l11.35,4.89L31.13,131Z"/><path d="M26.92,125.26c-3.27-1.57-5-4.71-3.2-8.41,1.42-2.94,4-4,6.63-2.93L29,116.66a2.22,2.22,0,0,0-3,1.31c-1,2.08.15,3.56,2.09,4.5s3.82.82,4.75-1.12a2.23,2.23,0,0,0-.82-3.22l1.32-2.75c2.54,1.43,3.23,4.25,1.81,7.21C33.44,126.26,30.08,126.78,26.92,125.26Z"/><path d="M33.79,116l1.46-2.65c1.21.4,2.23-.3,3-1.69.65-1.17.68-2.06-.1-2.49s-1.47.17-2.25,1.14l-1,1.32c-1.26,1.58-2.9,3-5.19,1.73s-2.44-3.52-.92-6.25,3.7-3.9,6.18-2.78l-1.43,2.58c-1.12-.45-2.08.14-2.79,1.42s-.57,2,.16,2.43,1.48-.09,2.24-1l1.24-1.56c1.24-1.54,2.78-2.88,4.94-1.68s2.36,3.83,1,6.37S36.49,117.19,33.79,116Z"/><path d="M36.91,101.48c-4.77-3.14-6.08-6.25-3.83-9.68s5.65-3.47,10.44-.31,6.09,6.25,3.82,9.7S41.69,104.62,36.91,101.48Zm8.26-1.72c1.3-2-.15-3.61-3.34-5.71s-5.29-2.79-6.58-.82.17,3.58,3.35,5.68S43.89,101.7,45.17,99.76Z"/><path d="M46.09,93l1.83-2.44c1.57,1.12,3,1,4.11-.51s.87-3-.72-4.15-3.24-1-4.22.34a3.34,3.34,0,0,0-.64,2.65l-1.74,2.32-6.55-6.31,5.59-7.44,2.31,1.73-4.22,5.6,2.81,2.74a4.83,4.83,0,0,1,1.05-3.44c1.75-2.32,4.61-2.78,7.32-.74s3.41,5.17,1.08,8.26C52.06,94.3,49,95.14,46.09,93Z"/><path d="M50.71,68.75l2.36-2.62L70,72.51,67.73,75,63.81,73.4l-4.74,5.27,2,3.74-2.22,2.46Zm10.35,3.54-6.8-2.74,3.41,6.5Z"/><path d="M61.4,63.72l2.1-2,1.38,1.44a4.26,4.26,0,0,1,1.42-4.42c2.06-2,4.24-1.67,6.19.35l5.56,5.81L75.9,67l-5.23-5.46a2.16,2.16,0,0,0-3.31-.12c-1.21,1.16-1.3,2.87.16,4.4l4.6,4.8L70,72.64Z"/><path d="M76,62.12c-1.75-2.08-.57-4.07.7-5.46l1.79-1.95c.54-.61,1-1.24.38-2s-1.52-.66-2.66.3c-1.36,1.14-1.55,2.18-1,3.18L73,58.14c-1.51-2.46-.66-4.87,1.86-7s4.75-2.22,6.56-.07l5.41,6.41-2.1,1.78-1.4-1.65a4.63,4.63,0,0,1-1.75,4.66C79.69,63.82,77.57,64,76,62.12Zm4.54-2.26a3,3,0,0,0,.62-4.39L80.8,55a9.37,9.37,0,0,1-1.11,1.44l-1,1.11c-.64.69-1.29,1.56-.55,2.44C78.78,60.73,79.64,60.63,80.56,59.86Z"/><path d="M77.25,43.36l2.38-1.84L90.07,55,87.7,56.85Z"/><path d="M91.65,55.4l1.13-.8c1-.69,1.23-1.29,1-2.17l-.12-.5L82.58,45.06,85.2,43.2,93,48.35l-2.51-8.91,2.57-1.82,3.41,13.91c.56,2.23.06,3.65-2,5.12l-1.27.91Z"/><path d="M99.07,44.34l-3.33-5.22-1.86,1.19-1.42-2.23,1.86-1.19-1.55-2.42,2.08-2.33,2,3.14L99,33.89l1.42,2.22-2.19,1.4,3.09,4.83c.51.81,1,1,1.84.44l1.3-.82,1.41,2.2-2,1.24C102,46.67,100.35,46.34,99.07,44.34Z"/><path d="M97.24,29.36l2.68-1.6,1.59,2.65L98.83,32Zm2.52,4.11,2.57-1.54,6.35,10.61-2.58,1.54Z"/><path d="M106,37c-1.73-3.18-1.28-6.73,2.33-8.69,2.86-1.56,5.58-.93,7.09,1.5l-2.68,1.45a2.21,2.21,0,0,0-3.18-.67c-2,1.1-2,3-.93,4.87s2.62,2.9,4.51,1.87a2.23,2.23,0,0,0,1.22-3.09L117,32.78c1.22,2.64.14,5.33-2.75,6.9C110.7,41.63,107.68,40.08,106,37Z"/><path d="M117,33.52l2.73-1.28c.75,1,2,1,3.42.38,1.21-.57,1.76-1.28,1.38-2.08s-1.29-.72-2.49-.39l-1.61.46c-2,.55-4.11.74-5.22-1.63s.08-4.28,2.9-5.6,5.29-1,6.63,1.36L122.06,26c-.64-1-1.76-1.1-3.09-.48s-1.64,1.3-1.28,2.06,1.25.8,2.4.49l1.93-.53c1.9-.53,3.93-.71,5,1.52s-.33,4.48-3,5.72S118.49,36.05,117,33.52Z"/></g></g></svg>