<svg id="Layer_2" data-name="Layer 2" xmlns="http://www.w3.org/2000/svg" viewBox="0 0 406.33 406.32"><path d="M136.13,25.53c-1.93-5.37-1.12-8.65,2.74-10s6.59.62,8.53,6,1.12,8.65-2.76,10.05S138.06,30.91,136.13,25.53Zm7.63,3.58c2.22-.8,2-3,.75-6.57s-2.55-5.4-4.76-4.61-2,3-.73,6.56S141.57,29.9,143.76,29.11Z" transform="translate(-4.39 -3.33)"/><path d="M148.41,17.8l-.76-2.6a5.11,5.11,0,0,0,3.48-3.38l2.6-.75,4.58,15.86-2.88.83-3.56-12.31A6.55,6.55,0,0,1,148.41,17.8Z" transform="translate(-4.39 -3.33)"/><path d="M166.28,19l3.09-.56c.74,2.28,2.38,3,4.56,2.6,2-.36,2.87-1.35,2.62-2.7s-1.32-1.63-2.75-1.74l-2.52-.15c-3.38-.19-5.2-1.22-5.68-3.86-.62-3.4,1.75-5.49,5.15-6.12s6.56.56,7.35,4l-3.1.56c-.55-1.85-2.06-2.21-3.83-1.88-1.94.35-2.79,1.27-2.54,2.66s1.46,1.71,3.12,1.82l2.44.14c3.08.17,4.94,1,5.42,3.62.62,3.42-1.91,5.71-5.26,6.33C170.66,24.43,167.14,22.88,166.28,19Z" transform="translate(-4.39 -3.33)"/><path d="M181.47,15.85c-.41-4,1.85-6.63,5.48-7s6.41,1.78,6.82,5.75-1.85,6.65-5.5,7S181.88,19.84,181.47,15.85Zm6.51,3c1.84-.19,3-1.5,2.76-3.93s-1.66-3.45-3.5-3.26-3,1.49-2.74,3.9S186.17,19,188,18.83Z" transform="translate(-4.39 -3.33)"/><path d="M197.13,10.91l-1.91.09-.12-2.64L197,8.28,197,7.17c-.11-2.49,1-3.64,3.2-3.74l2.33-.1.11,2.52-1.54.07c-.86,0-1.13.41-1.1,1.27l.05,1L202.39,8l.11,2.64-2.37.1.42,9.71-3,.13Z" transform="translate(-4.39 -3.33)"/><path d="M206.09,16.81l.1-6.2-2.21,0L204,7.94l2.21,0,0-2.88,3-.79L209.24,8l2.59,0,0,2.65-2.6-.05-.09,5.74c0,1,.31,1.37,1.3,1.39l1.53,0,0,2.62-2.31,0C207.23,20.35,206.05,19.18,206.09,16.81Z" transform="translate(-4.39 -3.33)"/><path d="M213.68,7.85l3.16.25,2,9.46,3-9,3.52.28,1.56,9.42,3.44-9,3.16.25-5,12L225,21.16l-1.7-8.81-3.08,8.43-3.49-.28Z" transform="translate(-4.39 -3.33)"/><path d="M233.76,18.66c.46-2.67,2.74-3.06,4.63-3l2.63.11c.83,0,1.59,0,1.75-1s-.48-1.59-2-1.84c-1.75-.3-2.67.23-3.09,1.28l-2.91-.5c.9-2.74,3.3-3.65,6.54-3.1s4.76,2.2,4.29,5l-1.41,8.28-2.72-.46.36-2.13A4.62,4.62,0,0,1,237.19,23C234.83,22.57,233.36,21,233.76,18.66Zm4.65,2a3,3,0,0,0,3.76-2.36l.1-.59a8.58,8.58,0,0,1-1.81.08l-1.48,0c-.94,0-2,0-2.22,1.16C236.6,19.87,237.23,20.47,238.41,20.67Z" transform="translate(-4.39 -3.33)"/><path d="M250.12,12.56l2.83.67-.52,2.19a3.15,3.15,0,0,1,3.64-1.61l1.05.25-.67,2.85-1-.25c-2.2-.52-3.29.58-3.81,2.78l-1.37,5.84-2.92-.69Z" transform="translate(-4.39 -3.33)"/><path d="M256.92,20.65c1.07-3.59,4-5.65,7.8-4.51,3.2,1,4.93,3.38,3.76,7.31l-.41,1.36-8.55-2.56a3,3,0,0,0,2.3,3.79c1.26.38,2.3.19,2.9-.73l2.8.83c-1.3,2.52-4,3-6.56,2.28C257.6,27.41,255.74,24.6,256.92,20.65ZM266,21.8c.42-1.57-.17-2.7-2-3.24a3,3,0,0,0-3.77,1.53Z" transform="translate(-4.39 -3.33)"/><path d="M280.76,17.06l5.54,2.36c5.12,2.18,6.06,6.59,4.34,10.65s-5.87,6.94-11.28,4.65l-5.17-2.2Zm-.26,15c3.54,1.5,6-.26,7.21-3.17s.78-5.43-2.54-6.84l-2.71-1.15-4.32,10.15Z" transform="translate(-4.39 -3.33)"/><path d="M291.58,33.54c1.75-3.31,5-4.77,8.53-2.92,3,1.56,4.19,4.27,2.28,7.9l-.66,1.25-7.9-4.15a3,3,0,0,0,1.52,4.16c1.17.61,2.22.62,3-.16L300.93,41c-1.76,2.22-4.52,2.2-6.88,1C291,40.31,289.66,37.19,291.58,33.54Zm8.68,2.88c.72-1.46.36-2.68-1.3-3.55a3,3,0,0,0-4,.77Z" transform="translate(-4.39 -3.33)"/><path d="M306.54,34.29,309.3,36l-2.2,9.85L315,39.52l2.76,1.71-10.6,8-3-1.87Z" transform="translate(-4.39 -3.33)"/><path d="M315.39,47.32c2.2-3,5.64-4,8.86-1.67,2.7,2,3.54,4.81,1.13,8.14l-.83,1.14-7.23-5.24a3,3,0,0,0,.92,4.34,2.35,2.35,0,0,0,3,.27L323.59,56c-2.06,2-4.79,1.54-6.95,0C313.8,53.93,313,50.66,315.39,47.32Zm8.18,4.09c.92-1.35.74-2.61-.78-3.71a3,3,0,0,0-4.06.2Z" transform="translate(-4.39 -3.33)"/><path d="M334.08,47.49l2.33,1.88L325.68,62.64l-2.33-1.89Z" transform="translate(-4.39 -3.33)"/><path d="M331.77,59.56c2.67-3,6.17-3.07,8.88-.62s3,6,.3,8.91-6.18,3.08-8.91.62S329.08,62.54,331.77,59.56Zm2.15,6.83c1.37,1.24,3.12,1.23,4.77-.59s1.45-3.54.07-4.78-3.1-1.21-4.73.59S332.57,65.17,333.92,66.39Z" transform="translate(-4.39 -3.33)"/><path d="M347.46,65.58l2,2.11-1.62,1.53a4.1,4.1,0,0,1,4.55,1.24c2.09,2.19,2.31,5.42-.75,8.33s-6.31,2.49-8.41.28A4.23,4.23,0,0,1,342,74.93l-4.75,4.51-2.07-2.17ZM344.78,76.7c1.21,1.27,3,1.57,4.76-.12s1.54-3.42.34-4.69-3-1.67-4.77,0S343.59,75.45,344.78,76.7Z" transform="translate(-4.39 -3.33)"/><path d="M358.38,77.16l1.79,2.28-1.45,1.14a3.68,3.68,0,0,1,3.77,1.47,3.21,3.21,0,0,1,.24,4.08,4.16,4.16,0,0,1,4.35,1.78,3.78,3.78,0,0,1-.67,5.64l-6.74,5.28-1.85-2.36L364,91.6a1.82,1.82,0,0,0,.38-2.82,2.43,2.43,0,0,0-3.65-.26L355.08,93l-1.85-2.36,6.21-4.87a1.82,1.82,0,0,0,.39-2.81,2.41,2.41,0,0,0-3.64-.25l-5.69,4.45-1.85-2.36Z" transform="translate(-4.39 -3.33)"/><path d="M365.9,97.44c3.15-2,6.7-1.69,8.86,1.65,1.81,2.81,1.56,5.77-1.89,8l-1.19.77-4.85-7.51a3,3,0,0,0-.71,4.38c.71,1.11,1.62,1.64,2.68,1.33l1.59,2.46c-2.63,1.06-5-.3-6.47-2.54C362,103,362.43,99.68,365.9,97.44Zm6.14,6.78c1.35-.93,1.63-2.17.62-3.74a3,3,0,0,0-3.86-1.28Z" transform="translate(-4.39 -3.33)"/><path d="M379.32,106.81l1.39,2.55-1.75,1a4.28,4.28,0,0,1,3.89,2.53c1.36,2.51.5,4.53-2,5.88l-7.06,3.84L372.4,120l6.64-3.62a2.14,2.14,0,0,0,1-3.16c-.8-1.47-2.43-2-4.28-1l-5.84,3.18-1.44-2.63Z" transform="translate(-4.39 -3.33)"/><path d="M378.66,124.57l5.62-2.61-.93-2,2.39-1.11.93,2,2.61-1.21,2,2.36-3.37,1.57,1.09,2.35L386.64,127l-1.1-2.35-5.2,2.42c-.87.4-1.09.88-.68,1.77l.65,1.39-2.37,1.11-1-2.09C376,127.15,376.51,125.57,378.66,124.57Z" transform="translate(-4.39 -3.33)"/><path d="M388.52,135.06c5.37-1.93,8.65-1.12,10,2.75s-.61,6.59-6,8.53-8.65,1.12-10-2.76S383.14,137,388.52,135.06Zm-3.58,7.64c.79,2.21,3,2,6.57.75s5.4-2.55,4.61-4.77-3-2-6.56-.73S384.15,140.51,384.94,142.7Z" transform="translate(-4.39 -3.33)"/><path d="M396.24,147.31l2.6-.75a5.11,5.11,0,0,0,3.38,3.47l.75,2.6-15.86,4.58-.84-2.88,12.32-3.55A6.57,6.57,0,0,1,396.24,147.31Z" transform="translate(-4.39 -3.33)"/><path d="M395,165.22l.56,3.09c-2.28.73-3,2.38-2.6,4.55.36,2,1.35,2.88,2.7,2.63s1.63-1.32,1.74-2.76l.15-2.51c.18-3.38,1.22-5.2,3.86-5.69,3.4-.62,5.49,1.76,6.11,5.15s-.55,6.57-4,7.35l-.56-3.09c1.85-.56,2.2-2.06,1.88-3.83-.35-1.94-1.27-2.8-2.66-2.54s-1.71,1.46-1.82,3.11l-.14,2.44c-.17,3.08-1,4.94-3.62,5.42-3.42.63-5.71-1.9-6.33-5.26C389.62,169.6,391.17,166.07,395,165.22Z" transform="translate(-4.39 -3.33)"/><path d="M398.19,180.39c4-.41,6.64,1.85,7,5.48s-1.78,6.41-5.74,6.82-6.66-1.85-7-5.5S394.21,180.8,398.19,180.39Zm-3,6.51c.19,1.84,1.49,3,3.93,2.75s3.45-1.65,3.26-3.49-1.49-3-3.9-2.74S395,185.08,395.22,186.9Z" transform="translate(-4.39 -3.33)"/><path d="M403.14,196l-.09-1.91,2.64-.12.08,1.92,1.11-.05c2.49-.11,3.64,1,3.74,3.2l.1,2.32-2.52.11-.06-1.53c0-.86-.41-1.13-1.28-1.1l-1,.05.11,2.37-2.64.11-.1-2.37-9.71.43-.13-3Z" transform="translate(-4.39 -3.33)"/><path d="M397.24,205l6.2.1,0-2.21,2.64.05,0,2.21,2.88,0,.79,3-3.72-.05,0,2.59-2.64,0,0-2.6-5.74-.09c-1,0-1.37.32-1.39,1.3l0,1.54-2.62,0,0-2.31C393.7,206.17,394.87,205,397.24,205Z" transform="translate(-4.39 -3.33)"/><path d="M406.2,212.6l-.25,3.16-9.46,2,9.05,3-.28,3.52-9.42,1.55,9,3.45-.26,3.16-12-5,.29-3.52,8.8-1.7-8.42-3.08.28-3.5Z" transform="translate(-4.39 -3.33)"/><path d="M395.39,232.68c2.68.45,3.07,2.74,3,4.62l-.11,2.64c0,.82.05,1.59,1,1.75s1.59-.49,1.84-1.95c.3-1.76-.23-2.67-1.27-3.09l.49-2.92c2.74.91,3.65,3.3,3.1,6.55s-2.2,4.76-5,4.29l-8.28-1.41.46-2.72,2.13.36a4.63,4.63,0,0,1-1.66-4.69C391.48,233.74,393,232.28,395.39,232.68Zm-2,4.65a3,3,0,0,0,2.36,3.76l.59.1a8.62,8.62,0,0,1-.08-1.81l0-1.48c0-1,0-2-1.16-2.22C394.18,235.52,393.58,236.15,393.38,237.33Z" transform="translate(-4.39 -3.33)"/><path d="M401.49,249l-.66,2.83-2.2-.52a3.14,3.14,0,0,1,1.61,3.63L400,256l-2.85-.67.24-1.05c.52-2.2-.58-3.3-2.78-3.81l-5.84-1.37.69-2.92Z" transform="translate(-4.39 -3.33)"/><path d="M393.4,255.85c3.59,1.07,5.65,4,4.51,7.81-1,3.2-3.38,4.93-7.31,3.75l-1.36-.4,2.56-8.56a3,3,0,0,0-3.79,2.3c-.38,1.27-.19,2.3.73,2.9l-.83,2.81c-2.52-1.3-3-4-2.28-6.57C386.63,256.54,389.45,254.67,393.4,255.85Zm-1.15,9.07c1.57.43,2.7-.16,3.24-2A3,3,0,0,0,394,259.2Z" transform="translate(-4.39 -3.33)"/><path d="M397,279.66l-2.36,5.55c-2.18,5.12-6.59,6.07-10.66,4.34s-6.94-5.87-4.65-11.29l2.2-5.17Zm-15-.25c-1.5,3.54.25,6,3.17,7.22s5.43.77,6.84-2.55l1.15-2.72L383,277.05Z" transform="translate(-4.39 -3.33)"/><path d="M380.51,290.52c3.31,1.74,4.77,5,2.91,8.53-1.55,2.95-4.26,4.19-7.89,2.28l-1.25-.66,4.15-7.9a3,3,0,0,0-4.16,1.52c-.62,1.17-.63,2.22.16,3l-1.36,2.59c-2.22-1.76-2.2-4.52-1-6.88C373.74,289.89,376.85,288.6,380.51,290.52Zm-2.89,8.68c1.47.72,2.69.36,3.56-1.3a3,3,0,0,0-.77-4Z" transform="translate(-4.39 -3.33)"/><path d="M379.77,305.46l-1.71,2.76L368.2,306l6.34,7.86-1.71,2.75-8-10.59,1.86-3Z" transform="translate(-4.39 -3.33)"/><path d="M366.73,314.33c3,2.19,4,5.63,1.67,8.86-1.95,2.7-4.81,3.53-8.14,1.13l-1.14-.83,5.24-7.24a3,3,0,0,0-4.34.92c-.78,1.07-.94,2.11-.27,3L358,322.52c-1.94-2.06-1.53-4.79,0-6.94C360.12,312.74,363.39,311.91,366.73,314.33Zm-4.09,8.18c1.35.92,2.61.74,3.71-.78a3,3,0,0,0-.2-4.06Z" transform="translate(-4.39 -3.33)"/><path d="M366.56,333l-1.88,2.33-13.27-10.73,1.88-2.33Z" transform="translate(-4.39 -3.33)"/><path d="M354.5,330.69c3,2.67,3.07,6.17.62,8.88s-5.95,3-8.91.3-3.08-6.18-.62-8.91S351.52,328,354.5,330.69Zm-6.83,2.15c-1.24,1.38-1.23,3.13.59,4.77s3.54,1.45,4.78.08,1.21-3.11-.59-4.73S348.89,331.49,347.67,332.84Z" transform="translate(-4.39 -3.33)"/><path d="M348.5,346.37l-2.11,2-1.54-1.61a4.08,4.08,0,0,1-1.23,4.55c-2.19,2.08-5.42,2.31-8.33-.75s-2.5-6.31-.29-8.42a4.26,4.26,0,0,1,4.14-1.25l-4.51-4.75,2.17-2.07Zm-11.12-2.67c-1.27,1.21-1.57,3,.11,4.76s3.43,1.54,4.7.33,1.67-3,0-4.77S338.63,342.51,337.38,343.7Z" transform="translate(-4.39 -3.33)"/><path d="M336.9,357.31l-2.28,1.79-1.14-1.46a3.68,3.68,0,0,1-1.47,3.77,3.21,3.21,0,0,1-4.08.24,4.16,4.16,0,0,1-1.77,4.35,3.79,3.79,0,0,1-5.65-.67l-5.28-6.74,2.36-1.85,4.87,6.21a1.82,1.82,0,0,0,2.82.38,2.42,2.42,0,0,0,.26-3.64L321.08,354l2.36-1.85,4.87,6.22a1.84,1.84,0,0,0,2.81.39,2.43,2.43,0,0,0,.26-3.65l-4.46-5.68,2.36-1.85Z" transform="translate(-4.39 -3.33)"/><path d="M316.63,364.81c2,3.15,1.7,6.7-1.64,8.86-2.8,1.81-5.77,1.55-8-1.89l-.77-1.19,7.5-4.84a3,3,0,0,0-4.38-.72c-1.11.72-1.63,1.63-1.32,2.68l-2.46,1.59c-1.07-2.62.3-5,2.53-6.46C311.05,360.94,314.4,361.34,316.63,364.81ZM309.86,371c.93,1.34,2.17,1.62,3.74.61a3,3,0,0,0,1.28-3.86Z" transform="translate(-4.39 -3.33)"/><path d="M307.24,378.25l-2.55,1.39-.95-1.75a4.28,4.28,0,0,1-2.53,3.89c-2.51,1.37-4.54.5-5.88-2l-3.84-7.06,2.61-1.42,3.61,6.63a2.16,2.16,0,0,0,3.16,1c1.48-.8,2-2.43,1-4.29l-3.18-5.84,2.64-1.43Z" transform="translate(-4.39 -3.33)"/><path d="M289.5,377.59l2.61,5.62,2-.93,1.11,2.39-2,.93,1.22,2.61-2.37,2-1.57-3.37-2.35,1.1-1.12-2.4,2.35-1.09-2.42-5.2c-.41-.87-.89-1.1-1.78-.69l-1.39.65-1.11-2.37,2.09-1C286.92,374.9,288.49,375.44,289.5,377.59Z" transform="translate(-4.39 -3.33)"/><path d="M279,387.44c1.94,5.38,1.13,8.65-2.74,10s-6.59-.61-8.54-6-1.12-8.65,2.76-10.05S277.08,382.07,279,387.44Zm-7.64-3.57c-2.21.79-2,3-.75,6.57s2.56,5.4,4.78,4.6,2-3,.72-6.56S273.57,383.08,271.38,383.87Z" transform="translate(-4.39 -3.33)"/><path d="M266.74,395.17l.75,2.61a5.06,5.06,0,0,0-3.47,3.37l-2.61.75L256.84,386l2.88-.83,3.55,12.31A6.59,6.59,0,0,1,266.74,395.17Z" transform="translate(-4.39 -3.33)"/><path d="M248.86,394l-3.09.57c-.73-2.28-2.38-3-4.55-2.61-2,.37-2.87,1.36-2.63,2.7s1.33,1.64,2.76,1.74l2.52.15c3.37.19,5.2,1.22,5.68,3.87.62,3.4-1.75,5.49-5.15,6.11s-6.57-.55-7.35-4l3.09-.57c.56,1.85,2.07,2.21,3.84,1.89,1.93-.36,2.79-1.27,2.54-2.66s-1.46-1.71-3.12-1.82l-2.44-.14c-3.08-.17-4.94-1-5.42-3.62-.62-3.42,1.91-5.72,5.26-6.33C244.48,388.55,248,390.1,248.86,394Z" transform="translate(-4.39 -3.33)"/><path d="M233.66,397.13c.4,4-1.85,6.63-5.48,7s-6.41-1.78-6.82-5.75,1.85-6.65,5.5-7S233.25,393.14,233.66,397.13Zm-6.51-3c-1.84.18-3,1.49-2.76,3.92s1.66,3.45,3.5,3.26,3-1.49,2.73-3.9S229,394,227.15,394.16Z" transform="translate(-4.39 -3.33)"/><path d="M218,402.07l1.92-.08.11,2.63-1.91.09,0,1.1c.11,2.49-1,3.65-3.19,3.74l-2.33.1-.11-2.51,1.53-.07c.87,0,1.14-.41,1.1-1.27l0-1-2.37.1-.12-2.63,2.37-.11-.42-9.71,3-.13Z" transform="translate(-4.39 -3.33)"/><path d="M209,396.18l-.1,6.19,2.21,0,0,2.64-2.21,0-.05,2.88-3,.8.06-3.73-2.59,0,0-2.64,2.59.05.09-5.74c0-1-.31-1.38-1.3-1.39l-1.53,0,0-2.61,2.3,0C207.9,392.63,209.08,393.8,209,396.18Z" transform="translate(-4.39 -3.33)"/><path d="M201.45,405.13l-3.16-.25-2-9.45-3,9.05-3.51-.29-1.56-9.42-3.44,9-3.16-.25,5-12,3.52.28,1.7,8.81,3.08-8.42,3.49.28Z" transform="translate(-4.39 -3.33)"/><path d="M181.39,394.33c-.46,2.67-2.74,3.06-4.63,3l-2.63-.11c-.83,0-1.59,0-1.75,1s.48,1.59,2,1.84c1.75.3,2.67-.23,3.09-1.28l2.91.5c-.9,2.74-3.3,3.65-6.54,3.1s-4.77-2.2-4.29-5l1.41-8.28,2.72.46-.37,2.13A4.63,4.63,0,0,1,178,390C180.32,390.42,181.79,392,181.39,394.33Zm-4.65-2a3,3,0,0,0-3.77,2.35l-.1.6a8.68,8.68,0,0,1,1.82-.08l1.48,0c.94,0,2,0,2.22-1.16C178.55,393.11,177.92,392.52,176.74,392.32Z" transform="translate(-4.39 -3.33)"/><path d="M165,400.43l-2.82-.67.51-2.19a3.14,3.14,0,0,1-3.63,1.61l-1.05-.24.67-2.86,1.05.25c2.2.52,3.29-.58,3.81-2.78l1.37-5.84,2.92.69Z" transform="translate(-4.39 -3.33)"/><path d="M158.2,392.34c-1.08,3.58-4,5.64-7.81,4.5-3.2-.95-4.93-3.37-3.76-7.3l.41-1.36,8.55,2.55a3,3,0,0,0-2.3-3.79,2.34,2.34,0,0,0-2.89.74l-2.81-.84c1.3-2.52,4-3,6.56-2.27C157.51,385.57,159.38,388.38,158.2,392.34Zm-9.08-1.16c-.42,1.58.17,2.71,2,3.24a3,3,0,0,0,3.76-1.53Z" transform="translate(-4.39 -3.33)"/><path d="M134.38,395.94l-5.54-2.35c-5.13-2.18-6.07-6.6-4.34-10.66s5.87-6.95,11.28-4.65l5.17,2.2Zm.25-15c-3.53-1.5-6,.25-7.21,3.17s-.77,5.44,2.54,6.85l2.72,1.15L137,381.93Z" transform="translate(-4.39 -3.33)"/><path d="M123.56,379.46c-1.75,3.31-5,4.77-8.53,2.91-3-1.55-4.19-4.26-2.28-7.89l.66-1.25,7.9,4.15a3,3,0,0,0-1.52-4.16c-1.17-.62-2.22-.63-3,.16L114.21,372c1.76-2.22,4.52-2.2,6.88-1C124.19,372.69,125.48,375.8,123.56,379.46Zm-8.68-2.89c-.72,1.47-.36,2.69,1.3,3.56a3,3,0,0,0,4-.77Z" transform="translate(-4.39 -3.33)"/><path d="M108.58,378.7,105.83,377l2.19-9.85-7.86,6.33-2.75-1.71,10.6-8,3,1.86Z" transform="translate(-4.39 -3.33)"/><path d="M99.73,365.67c-2.19,3-5.63,4-8.86,1.68-2.7-2-3.53-4.82-1.12-8.14l.83-1.15,7.23,5.24a3,3,0,0,0-.92-4.34c-1.07-.77-2.11-.93-3-.26L91.54,357c2.06-2,4.79-1.54,6.95,0C101.32,359.06,102.16,362.33,99.73,365.67Zm-8.18-4.09c-.92,1.35-.73,2.61.78,3.71a3,3,0,0,0,4.06-.2Z" transform="translate(-4.39 -3.33)"/><path d="M81,365.5l-2.33-1.89,10.73-13.27,2.33,1.89Z" transform="translate(-4.39 -3.33)"/><path d="M83.35,353.43c-2.67,3-6.16,3.07-8.87.63s-3-5.95-.3-8.91,6.18-3.09,8.9-.63S86,350.46,83.35,353.43Zm-2.15-6.82c-1.37-1.24-3.12-1.23-4.76.58S75,350.73,76.36,352s3.11,1.22,4.73-.58S82.56,347.83,81.2,346.61Z" transform="translate(-4.39 -3.33)"/><path d="M67.67,347.43l-2-2.1,1.62-1.54a4.08,4.08,0,0,1-4.55-1.23c-2.09-2.2-2.31-5.43.75-8.34s6.31-2.49,8.41-.28a4.24,4.24,0,0,1,1.26,4.14l4.75-4.51L80,335.74Zm2.68-11.12c-1.21-1.27-3-1.57-4.76.12s-1.55,3.43-.34,4.69,3,1.68,4.77,0S71.54,337.57,70.35,336.31Z" transform="translate(-4.39 -3.33)"/><path d="M56.74,335.84,55,333.55l1.45-1.14A3.67,3.67,0,0,1,52.63,331a3.23,3.23,0,0,1-.24-4.08,4.16,4.16,0,0,1-4.34-1.78,3.77,3.77,0,0,1,.66-5.64l6.75-5.29,1.85,2.36-6.22,4.87a1.84,1.84,0,0,0-.37,2.83,2.41,2.41,0,0,0,3.64.25L60.05,320l1.85,2.36-6.22,4.87a1.82,1.82,0,0,0-.39,2.81,2.42,2.42,0,0,0,3.64.25l5.69-4.45,1.85,2.36Z" transform="translate(-4.39 -3.33)"/><path d="M49.24,315.57c-3.15,2-6.7,1.7-8.86-1.65-1.81-2.8-1.56-5.76,1.89-8l1.19-.77,4.84,7.5a3,3,0,0,0,.72-4.37c-.72-1.11-1.63-1.64-2.69-1.33l-1.58-2.46c2.62-1.06,5,.3,6.46,2.54C53.11,310,52.7,313.33,49.24,315.57Zm-6.15-6.77c-1.34.92-1.63,2.16-.61,3.74a3,3,0,0,0,3.85,1.28Z" transform="translate(-4.39 -3.33)"/><path d="M35.81,306.21l-1.39-2.55,1.75-1a4.25,4.25,0,0,1-3.89-2.53c-1.37-2.5-.51-4.53,2-5.88l7.06-3.85,1.42,2.62-6.64,3.62a2.15,2.15,0,0,0-1,3.16c.81,1.47,2.44,2,4.29,1l5.84-3.18,1.43,2.63Z" transform="translate(-4.39 -3.33)"/><path d="M36.45,288.43l-5.61,2.62.93,2-2.39,1.12-.93-2-2.62,1.21-2-2.36,3.38-1.57-1.1-2.36,2.4-1.11,1.09,2.35,5.2-2.43c.87-.4,1.1-.88.68-1.77l-.65-1.39,2.38-1.11,1,2.09C39.14,285.85,38.61,287.43,36.45,288.43Z" transform="translate(-4.39 -3.33)"/><path d="M26.61,278c-5.38,1.93-8.65,1.12-10-2.74s.61-6.6,6-8.54,8.65-1.13,10,2.76S32,276,26.61,278Zm3.57-7.64c-.8-2.22-3-2-6.57-.75s-5.4,2.56-4.61,4.77,3,2,6.57.73S31,272.51,30.18,270.32Z" transform="translate(-4.39 -3.33)"/><path d="M18.87,265.67l-2.6.76A5.09,5.09,0,0,0,12.89,263l-.75-2.61L28,255.77l.83,2.88-12.32,3.56A6.55,6.55,0,0,1,18.87,265.67Z" transform="translate(-4.39 -3.33)"/><path d="M20.08,247.8l-.56-3.09c2.28-.74,3-2.38,2.6-4.55-.36-2-1.35-2.88-2.7-2.63s-1.63,1.32-1.74,2.76l-.15,2.51c-.18,3.38-1.22,5.2-3.86,5.69-3.4.62-5.49-1.76-6.12-5.16s.56-6.56,4-7.34l.56,3.09c-1.85.56-2.21,2.06-1.88,3.83.35,1.94,1.27,2.8,2.66,2.54s1.71-1.46,1.82-3.11l.14-2.44c.17-3.08,1-4.94,3.62-5.42,3.42-.63,5.71,1.9,6.33,5.26C25.5,243.42,24,247,20.08,247.8Z" transform="translate(-4.39 -3.33)"/><path d="M16.92,232.63c-4,.41-6.63-1.84-7-5.47s1.77-6.41,5.74-6.82,6.66,1.84,7,5.49S20.91,232.22,16.92,232.63Zm3-6.51c-.19-1.84-1.49-3-3.93-2.75s-3.45,1.66-3.26,3.5,1.5,3,3.91,2.73S20.08,227.94,19.89,226.12Z" transform="translate(-4.39 -3.33)"/><path d="M12,217l.08,1.91L9.43,219l-.09-1.92-1.1.05c-2.49.11-3.65-1-3.74-3.2l-.11-2.32,2.52-.11L7,213c0,.86.41,1.14,1.27,1.1l1,0L9.1,211.7l2.64-.11.11,2.37,9.7-.43.14,3Z" transform="translate(-4.39 -3.33)"/><path d="M17.87,208l-6.19-.1,0,2.21-2.64,0,0-2.21-2.89,0-.79-3,3.72.06.05-2.6,2.64.05,0,2.59,5.73.1c1,0,1.37-.32,1.39-1.3l0-1.54,2.61,0,0,2.3C21.42,206.85,20.24,208,17.87,208Z" transform="translate(-4.39 -3.33)"/><path d="M8.91,200.43l.25-3.16,9.45-2-9-3,.28-3.52,9.42-1.56-9-3.44.25-3.16,12,5-.28,3.52-8.8,1.7,8.42,3.08-.28,3.5Z" transform="translate(-4.39 -3.33)"/><path d="M19.72,180.32c-2.68-.45-3.07-2.74-3-4.62l.11-2.64c0-.82-.05-1.59-1-1.75s-1.59.49-1.84,2c-.3,1.75.23,2.66,1.27,3.09l-.49,2.91c-2.75-.91-3.65-3.3-3.1-6.55s2.2-4.76,5-4.29L25,169.84l-.46,2.72-2.13-.36A4.63,4.63,0,0,1,24,176.89C23.62,179.26,22.08,180.72,19.72,180.32Zm2-4.65a3,3,0,0,0-2.36-3.76l-.59-.1a8.62,8.62,0,0,1,.08,1.81l0,1.48c0,1,0,2,1.16,2.22C20.93,177.48,21.53,176.85,21.73,175.67Z" transform="translate(-4.39 -3.33)"/><path d="M13.62,164l.66-2.83,2.2.52A3.14,3.14,0,0,1,14.87,158l.24-1.05,2.85.66-.24,1.06c-.52,2.19.58,3.29,2.78,3.8l5.84,1.37-.69,2.92Z" transform="translate(-4.39 -3.33)"/><path d="M21.7,157.17c-3.59-1.07-5.64-4-4.51-7.81,1-3.2,3.38-4.93,7.31-3.75l1.36.4-2.56,8.55a3,3,0,0,0,3.8-2.29c.37-1.27.18-2.3-.74-2.9l.84-2.81c2.51,1.3,3,4,2.27,6.56C28.47,156.48,25.66,158.35,21.7,157.17Zm1.16-9.07c-1.58-.43-2.71.16-3.24,2a3,3,0,0,0,1.53,3.76Z" transform="translate(-4.39 -3.33)"/><path d="M18.1,133.34l2.35-5.55c2.18-5.12,6.6-6.07,10.66-4.34s7,5.87,4.65,11.29l-2.2,5.17Zm15,.25c1.5-3.54-.26-6-3.17-7.22s-5.44-.77-6.85,2.55L22,131.64,32.11,136Z" transform="translate(-4.39 -3.33)"/><path d="M34.59,122.49c-3.31-1.74-4.77-5-2.92-8.53,1.55-2.95,4.26-4.18,7.9-2.27l1.25.66-4.16,7.9a3,3,0,0,0,4.17-1.53c.61-1.16.62-2.22-.17-3L42,113.15c2.21,1.76,2.2,4.52,1,6.87C41.36,123.13,38.24,124.41,34.59,122.49Zm2.88-8.68c-1.47-.71-2.69-.35-3.56,1.31a3,3,0,0,0,.78,4Z" transform="translate(-4.39 -3.33)"/><path d="M35.33,107.56l1.7-2.75L46.89,107l-6.34-7.85,1.71-2.75,8,10.59-1.86,3Z" transform="translate(-4.39 -3.33)"/><path d="M48.36,98.69c-3-2.2-4-5.64-1.67-8.86,2-2.71,4.81-3.54,8.14-1.13l1.15.83-5.24,7.23a3,3,0,0,0,4.34-.92c.77-1.07.93-2.11.26-3l1.72-2.37c1.94,2.06,1.54,4.79,0,7C55,100.28,51.71,101.11,48.36,98.69Zm4.09-8.19c-1.35-.92-2.61-.73-3.71.78A3,3,0,0,0,49,95.34Z" transform="translate(-4.39 -3.33)"/><path d="M48.53,80l1.88-2.34L63.68,88.39,61.8,90.73Z" transform="translate(-4.39 -3.33)"/><path d="M60.59,82.32c-3-2.67-3.07-6.17-.62-8.88s6-3,8.91-.3,3.08,6.18.62,8.91S63.57,85,60.59,82.32Zm6.83-2.15c1.24-1.38,1.23-3.13-.59-4.77s-3.54-1.45-4.78-.07-1.21,3.1.59,4.72S66.2,81.52,67.42,80.17Z" transform="translate(-4.39 -3.33)"/><path d="M66.59,66.64l2.1-2,1.54,1.62a4.1,4.1,0,0,1,1.24-4.55c2.19-2.08,5.42-2.31,8.33.75s2.49,6.31.28,8.41a4.24,4.24,0,0,1-4.14,1.26l4.52,4.75-2.18,2.06Zm11.12,2.67c1.27-1.21,1.57-3-.12-4.76S74.17,63,72.9,64.21s-1.67,3,0,4.78S76.46,70.5,77.71,69.31Z" transform="translate(-4.39 -3.33)"/><path d="M78.17,55.7l2.29-1.79,1.14,1.45a3.68,3.68,0,0,1,1.46-3.77,3.23,3.23,0,0,1,4.09-.24A4.14,4.14,0,0,1,88.92,47a3.78,3.78,0,0,1,5.65.66l5.29,6.75L97.5,56.26,92.62,50a1.84,1.84,0,0,0-2.83-.37,2.43,2.43,0,0,0-.25,3.64L94,59l-2.36,1.85-4.87-6.21A1.82,1.82,0,0,0,84,54.25a2.41,2.41,0,0,0-.25,3.64l4.46,5.69L85.8,65.43Z" transform="translate(-4.39 -3.33)"/><path d="M98.45,48.19c-2-3.14-1.7-6.7,1.65-8.86,2.8-1.81,5.76-1.55,8,1.9l.76,1.19-7.49,4.84a3,3,0,0,0,4.37.71c1.11-.71,1.64-1.62,1.33-2.68l2.46-1.59c1.06,2.63-.3,5-2.54,6.47C104,52.07,100.69,51.66,98.45,48.19Zm6.77-6.14c-.93-1.34-2.17-1.63-3.74-.61a3,3,0,0,0-1.28,3.85Z" transform="translate(-4.39 -3.33)"/><path d="M107.83,34.75l2.55-1.39,1,1.75a4.27,4.27,0,0,1,2.52-3.9c2.51-1.36,4.54-.5,5.88,2l3.85,7.06L121,41.66,117.36,35a2.15,2.15,0,0,0-3.16-1c-1.47.8-2,2.43-1,4.29l3.19,5.83-2.64,1.44Z" transform="translate(-4.39 -3.33)"/><path d="M125.58,35.41,123,29.8l-2,.93-1.11-2.39,2-.93-1.22-2.61,2.36-2,1.58,3.37,2.34-1.1L128,27.43l-2.35,1.1,2.43,5.2c.4.87.88,1.09,1.77.68l1.39-.65,1.11,2.37-2.09,1C128.16,38.1,126.59,37.56,125.58,35.41Z" transform="translate(-4.39 -3.33)"/></svg>