<svg xmlns="http://www.w3.org/2000/svg" viewBox="0 0 405.68 402"><g id="Layer_2" data-name="Layer 2"><g id="Layer_2-2" data-name="Layer 2"><path d="M131.28,22.3c-1.93-5.37-1.12-8.65,2.74-10s6.6.61,8.54,6,1.12,8.65-2.77,10S133.21,27.68,131.28,22.3Zm7.64,3.58c2.21-.79,2-3,.75-6.56s-2.56-5.41-4.77-4.61-2,3-.73,6.56S136.73,26.67,138.92,25.88Z"/><path d="M151.07,21l-7.63,2.21-.75-2.59,4-12.13,3.62-1,2.91,10,2.49-.72.78,2.7-2.49.72.9,3.11-2.88.84Zm-.77-2.67-2.05-7.08-2.77,8.47Z"/><path d="M157.4,5.33l7.54-1.48A5.07,5.07,0,0,1,171.21,8a5.33,5.33,0,0,1-4.48,6.56l-4.22.83,1.15,5.84-3,.59Zm8.52,6.49a2.49,2.49,0,0,0,2.22-3.13c-.29-1.46-1.35-2.27-3.14-1.92l-4,.79,1,5Z"/><path d="M171.88,7.14l2.87-.41L175.07,9a3.14,3.14,0,0,1,2.8-2.82L178.94,6l.41,2.9-1.07.15c-2.23.31-2.86,1.73-2.54,4l.83,5.94-3,.42Z"/><path d="M178.82,12.34c-.37-4,1.92-6.61,5.56-6.94s6.38,1.85,6.74,5.82-1.92,6.63-5.58,7S179.18,16.33,178.82,12.34Zm6.47,3.05c1.84-.17,3-1.45,2.8-3.89S186.47,8,184.63,8.2s-3,1.45-2.78,3.87S183.47,15.56,185.29,15.39Z"/><path d="M190.8,11.25c-.11-3.77,2-6.49,5.41-6.58a4.16,4.16,0,0,1,3.92,1.86L200,.08,203,0l.46,17.05-2.81.08,0-2.11a4,4,0,0,1-4,2.48C193.13,17.59,190.9,15,190.8,11.25Zm6.31,3.5c2.08-.06,3.22-1.65,3.16-3.83S199,7.31,196.93,7.36s-3.15,1.57-3.09,3.76S195,14.81,197.11,14.75Z"/><path d="M204.39,12.79l.31-8.08,3,.11-.28,7.68a2.1,2.1,0,0,0,2.16,2.44c1.63.06,2.79-1.2,2.86-3.24L212.68,5l3,.11-.47,12.36-2.8-.11.08-2.16a3.89,3.89,0,0,1-4,2.28C205.73,17.39,204.29,15.6,204.39,12.79Z"/><path d="M215.92,11.45c.35-3.6,2.71-6.29,6.8-5.89,3.24.32,5.14,2.36,5,5.22l-3-.3a2.21,2.21,0,0,0-2.26-2.34c-2.29-.22-3.29,1.36-3.5,3.51s.53,3.87,2.68,4.08a2.22,2.22,0,0,0,2.74-1.88l3,.3c-.48,2.87-2.88,4.49-6.15,4.17C217.21,17.92,215.57,14.94,215.92,11.45Z"/><path d="M228.36,15.32l.9-6.12-2.19-.32.39-2.62,2.18.32.42-2.85,3.09-.39L232.61,7l2.56.37L234.79,10l-2.56-.38-.84,5.67c-.13.95.14,1.41,1.11,1.55l1.52.22-.38,2.59-2.28-.33C229,19,228,17.67,228.36,15.32Z"/><path d="M241.19,3.78l4.27,1,1.42,13.89,7.54-11.75,4.28,1L254.8,24.3,252,23.62l3-12.47-7.29,11.44-3.17-.76L243.11,8.34l-3,12.46-2.85-.68Z"/><path d="M256.14,21.27c.84-2.58,3.16-2.63,5-2.27l2.6.49c.81.14,1.58.19,1.87-.7s-.25-1.64-1.66-2.11c-1.69-.55-2.67-.16-3.25.81l-2.8-.92c1.3-2.58,3.8-3.12,6.93-2.1s4.38,2.88,3.51,5.55l-2.62,8-2.62-.86.67-2.05a4.61,4.61,0,0,1-4.88.95C256.62,25.29,255.39,23.55,256.14,21.27Zm4.3,2.67a3,3,0,0,0,4.07-1.77l.19-.57a8.64,8.64,0,0,1-1.81-.19l-1.46-.25c-.93-.18-2-.28-2.36.82C258.77,22.89,259.3,23.57,260.44,23.94Z"/><path d="M271.12,16.8l2.69,1.08-.74,1.85a4.27,4.27,0,0,1,4.61-.54c2.66,1.06,3.29,3.17,2.24,5.78l-3,7.47-2.76-1.11,2.8-7a2.15,2.15,0,0,0-1.26-3.06c-1.56-.62-3.15,0-3.94,2l-2.46,6.17-2.79-1.11Z"/><path d="M278.46,29.37c1.16-2.45,3.46-2.2,5.25-1.62l2.51.82c.79.24,1.54.38,1.95-.46s0-1.66-1.38-2.3c-1.61-.76-2.63-.51-3.32.39l-2.67-1.27c1.61-2.39,4.16-2.62,7.13-1.21s4,3.41,2.79,6l-3.6,7.59-2.49-1.19.92-2a4.61,4.61,0,0,1-5,.33C278.42,33.42,277.43,31.54,278.46,29.37Zm3.93,3.2a3,3,0,0,0,4.25-1.25l.26-.54a9.56,9.56,0,0,1-1.77-.42l-1.41-.43c-.9-.29-2-.53-2.45.51C280.86,31.31,281.3,32.05,282.39,32.57Z"/><path d="M287.19,37.76l2.64,1.47c-.41,1.14,0,2.37,1.66,3.28,1.79,1,3.3.65,4.24-1l1-1.87a4.34,4.34,0,0,1-4.58,0c-2.5-1.39-3.88-4.33-1.91-7.89s5.38-4.1,8-2.66a4.06,4.06,0,0,1,2.36,3.56l.85-1.53L304,32.46l-5.61,10.12c-1.89,3.39-5.14,3.62-8.1,2C287.58,43,286.11,40.49,287.19,37.76Zm6.86-.06c1.45.81,3.27.69,4.46-1.45s.42-3.72-1.09-4.56a3.1,3.1,0,0,0-4.49,1.47A3.07,3.07,0,0,0,294.05,37.7Z"/><path d="M301.28,38.19c2-3.16,5.39-4.33,8.75-2.18,2.81,1.8,3.8,4.61,1.59,8.06l-.77,1.19-7.51-4.82a3,3,0,0,0,1.16,4.29c1.11.71,2.16.81,3,.09L310,46.4c-1.94,2.06-4.69,1.81-6.93.37C300.07,44.88,299.05,41.66,301.28,38.19Zm8.4,3.61c.84-1.4.58-2.64-1-3.65a3,3,0,0,0-4,.43Z"/><path d="M315.63,39.78,318,41.53,316.83,43a3.69,3.69,0,0,1,4,.47,3.2,3.2,0,0,1,1.26,3.88,4.18,4.18,0,0,1,4.66.62,3.78,3.78,0,0,1,.78,5.63l-5.18,6.82L320,58.61l4.78-6.29a1.84,1.84,0,0,0-.35-2.83,2.42,2.42,0,0,0-3.59.68l-4.38,5.75-2.38-1.82,4.78-6.28A1.83,1.83,0,0,0,318.5,45a2.42,2.42,0,0,0-3.59.68l-4.37,5.75-2.39-1.82Z"/><path d="M326.25,56c2.49-2.79,6-3.42,9-.76,2.49,2.22,3,5.15.29,8.21l-.94,1-6.66-5.95a3,3,0,0,0,.47,4.42c1,.87,2,1.14,2.94.56l2.18,2c-2.25,1.73-4.92,1-6.91-.73C324,62.38,323.5,59.05,326.25,56Zm7.72,4.9c1-1.25,1-2.52-.4-3.77a3,3,0,0,0-4.06-.21Z"/><path d="M339.94,59.76,342,61.83l-1.42,1.4A4.26,4.26,0,0,1,345,64.58c2,2,1.74,4.21-.25,6.19L339,76.42,337,74.31,342.32,69a2.15,2.15,0,0,0,.07-3.31c-1.18-1.19-2.89-1.25-4.4.23l-4.72,4.68-2.11-2.14Z"/><path d="M342.7,75.3l4.61-4.13-1.47-1.65,2-1.76,1.47,1.65,2.15-1.92,2.62,1.67-2.77,2.48L353,73.57l-2,1.76-1.72-1.93L345,77.23c-.71.64-.79,1.16-.14,1.89l1,1.15L344,82l-1.54-1.71C340.87,78.54,340.93,76.88,342.7,75.3Z"/><path d="M352.2,78.83c4.5-3.52,7.86-3.78,10.39-.54s1.48,6.45-3,10-7.86,3.77-10.4.52S347.7,82.35,352.2,78.83Zm-1,8.37c1.45,1.85,3.47,1,6.47-1.34s4.34-4.12,2.89-6-3.46-1-6.46,1.37S349.75,85.37,351.19,87.2Z"/><path d="M359.65,97.21l-4.49-6.55,2.21-1.52,12.77-.06,2.13,3.11-8.63,5.92,1.47,2.14-2.31,1.59-1.47-2.14-2.67,1.84L357,99.06Zm2.3-1.57L368,91.47l-8.91,0Z"/><path d="M376.5,98.28l3.78,6.69a5.05,5.05,0,0,1-2,7.25,5.32,5.32,0,0,1-7.64-2.19l-2.11-3.74-5.18,2.93-1.51-2.67ZM373,108.41a2.48,2.48,0,0,0,3.66,1.12c1.3-.73,1.74-2,.84-3.59l-2-3.57L371,104.9Z"/><path d="M379.34,112.59l1.29,2.61-2,1a3.13,3.13,0,0,1,3.55,1.77l.48,1-2.62,1.3-.48-1c-1-2-2.55-2.17-4.57-1.17l-5.37,2.67-1.33-2.69Z"/><path d="M376.6,120.84c3.65-1.59,6.88-.25,8.34,3.09s.25,6.65-3.41,8.24-6.9.26-8.37-3.11S372.92,122.44,376.6,120.84Zm-.86,7.1c.74,1.69,2.33,2.41,4.58,1.43s2.78-2.62,2-4.32-2.32-2.39-4.55-1.42S375,126.27,375.74,127.94Z"/><path d="M381.4,131.84c3.54-1.28,6.77-.17,7.94,3.08a4.11,4.11,0,0,1-.54,4.3l6.08-2.19,1,2.83-16.05,5.78-.95-2.64,2-.72c-1.39,0-2.84-.89-3.6-3C376.1,136,377.83,133.12,381.4,131.84Zm-1.35,7.09c.71,2,2.57,2.54,4.63,1.8s3-2.34,2.33-4.28-2.48-2.5-4.53-1.76S379.35,137,380.05,138.93Z"/><path d="M384.19,145.25,392,143l.82,2.89L385.41,148a2.1,2.1,0,0,0-1.64,2.82c.45,1.57,2,2.27,4,1.71l6.43-1.85.82,2.86L383.11,157l-.77-2.7,2.07-.6a3.91,3.91,0,0,1-3.41-3.09C380.25,148,381.49,146,384.19,145.25Z"/><path d="M389.06,155.77c3.54-.78,6.83.63,7.71,4.64.71,3.19-.64,5.63-3.4,6.41l-.65-3a2.21,2.21,0,0,0,1.52-2.87c-.49-2.25-2.32-2.71-4.43-2.24s-3.5,1.71-3,3.82a2.23,2.23,0,0,0,2.64,2l.66,3c-2.88.44-5.17-1.34-5.88-4.55C383.31,159,385.64,156.53,389.06,155.77Z"/><path d="M389.25,168.81l6.1-1.05-.37-2.18,2.6-.45.38,2.18,2.83-.49,1.34,2.82-3.67.63.44,2.55-2.6.45-.44-2.56-5.65,1c-.95.16-1.29.56-1.12,1.53l.26,1.52-2.58.44-.39-2.27C386,170.59,386.91,169.21,389.25,168.81Z"/><path d="M404.21,177.42l.36,4.38-12.76,5.67L405.32,191l.36,4.38-16.75,1.38-.24-2.92,12.78-1-13.14-3.38-.27-3.25,12.41-5.48-12.77,1.05-.24-2.92Z"/><path d="M392.15,197c2.71,0,3.51,2.13,3.78,4l.38,2.61c.13.81.34,1.56,1.27,1.54s1.48-.77,1.46-2.25c0-1.78-.72-2.59-1.83-2.81l0-2.95c2.86.39,4.19,2.57,4.24,5.86s-1.28,5.09-4.09,5.13l-8.4.14-.05-2.76,2.16,0a4.61,4.61,0,0,1-2.49-4.3C388.5,198.75,389.75,197,392.15,197ZM391,201.92a3,3,0,0,0,3,3.27h.6a9.18,9.18,0,0,1-.41-1.77L394,202c-.14-.94-.39-2-1.55-2C391.47,200,391,200.72,391,201.92Z"/><path d="M401.16,209.88l-.17,2.89-2-.12a4.29,4.29,0,0,1,2,4.21c-.17,2.85-2,4.11-4.79,3.94l-8-.48.18-3,7.55.45a2.15,2.15,0,0,0,2.51-2.15c.1-1.68-1-3-3.11-3.13l-6.63-.4.18-3Z"/><path d="M391.53,220.79c2.7.33,3.19,2.6,3.2,4.48l0,2.64c0,.82.12,1.59,1,1.7s1.57-.56,1.75-2c.22-1.77-.35-2.66-1.41-3l.36-2.93c2.78.78,3.8,3.13,3.39,6.39-.41,3.41-2,4.86-4.76,4.52l-8.34-1,.34-2.74,2.14.27a4.64,4.64,0,0,1-1.87-4.61C387.68,222,389.15,220.5,391.53,220.79Zm-1.79,4.74a3,3,0,0,0,2.53,3.65l.59.07a8.9,8.9,0,0,1-.16-1.81l0-1.48c0-.94-.11-2-1.25-2.16C390.45,223.68,389.89,224.34,389.74,225.53Z"/><path d="M386.32,231.72l-.56,3c-1.22,0-2.25.77-2.6,2.62-.37,2,.43,3.32,2.34,3.68l2.1.4a4.33,4.33,0,0,1-1.4-4.37c.53-2.8,2.88-5.05,6.89-4.29s5.58,3.82,5,6.74a4,4,0,0,1-2.64,3.36l1.73.33-.55,2.9-11.37-2.15c-3.82-.72-5.06-3.74-4.43-7.07C381.44,233.75,383.39,231.56,386.32,231.72Zm2.22,6.5c-.31,1.63.37,3.32,2.78,3.78s3.66-.78,4-2.48-.44-3.35-2.8-3.8A3.07,3.07,0,0,0,388.54,238.22Z"/><path d="M390.35,245.24c3.63.93,5.81,3.77,4.82,7.63-.83,3.23-3.18,5.06-7.16,4l-1.37-.35,2.22-8.65a3,3,0,0,0-3.7,2.44c-.33,1.28-.1,2.31.85,2.87l-.73,2.84c-2.56-1.2-3.19-3.89-2.53-6.47C383.62,246.19,386.36,244.22,390.35,245.24Zm-.79,9.11c1.59.36,2.7-.27,3.16-2.09a3,3,0,0,0-1.68-3.7Z"/><path d="M393.36,259.37l-.94,2.74-1.75-.6a3.68,3.68,0,0,1,.82,4,3.21,3.21,0,0,1-3.29,2.42,4.16,4.16,0,0,1,.88,4.61A3.8,3.8,0,0,1,384,275l-8.1-2.79,1-2.84,7.47,2.57a1.84,1.84,0,0,0,2.58-1.22,2.42,2.42,0,0,0-1.77-3.2l-6.83-2.35,1-2.83,7.47,2.56a1.82,1.82,0,0,0,2.57-1.2,2.41,2.41,0,0,0-1.77-3.19l-6.83-2.35,1-2.84Z"/><path d="M381.31,274.53c3.43,1.49,5.12,4.64,3.53,8.29-1.33,3.06-3.94,4.49-7.7,2.85l-1.3-.57,3.56-8.18a3,3,0,0,0-4,1.82c-.52,1.21-.46,2.26.39,3l-1.17,2.69c-2.34-1.6-2.53-4.35-1.47-6.79C374.51,274.39,377.52,272.88,381.31,274.53Zm-2.24,8.87c1.52.6,2.71.15,3.45-1.56a3,3,0,0,0-1.06-3.92Z"/><path d="M382,288.73l-1.33,2.59-1.77-.91a4.28,4.28,0,0,1,.11,4.64c-1.31,2.54-3.47,3-6,1.69l-7.15-3.67,1.35-2.65,6.73,3.45a2.16,2.16,0,0,0,3.17-1c.76-1.49.29-3.14-1.59-4.1l-5.92-3L371,283.1Z"/><path d="M368.08,296.2l5.36,3.1,1.11-1.91,2.29,1.32-1.11,1.91,2.49,1.44-.77,3-3.22-1.86-1.3,2.24-2.28-1.32,1.29-2.24L367,299c-.84-.48-1.36-.39-1.85.46l-.77,1.33-2.26-1.31,1.15-2C364.43,295.48,366,295,368.08,296.2Z"/><path d="M367.69,306.32c4.75,3.18,6,6.3,3.75,9.71s-5.67,3.42-10.43.23-6-6.29-3.74-9.72S362.94,303.15,367.69,306.32ZM359.42,308c-1.31,1.95.13,3.61,3.3,5.73s5.26,2.83,6.57.88-.14-3.59-3.31-5.71S360.71,306,359.42,308Z"/><path d="M352.54,319.12l4.83-6.31,2.13,1.63,4,12.11-2.29,3-8.31-6.36-1.57,2.06-2.23-1.7,1.57-2.06-2.57-2,1.82-2.38Zm2.21,1.69,5.86,4.47-2.81-8.45Z"/><path d="M356.79,335.46l-5.17,5.68a5.07,5.07,0,0,1-7.51.4,5.31,5.31,0,0,1-.3-7.93l2.89-3.18-4.4-4,2.07-2.27Zm-10.71-.14a2.47,2.47,0,0,0,.08,3.83c1.1,1,2.44,1,3.67-.32l2.76-3-3.8-3.45Z"/><path d="M344.06,342.64l-2.07,2-1.58-1.6a3.14,3.14,0,0,1-.58,3.93l-.77.76L337,345.67l.77-.76c1.61-1.58,1.26-3.09-.32-4.7l-4.21-4.28,2.14-2.1Z"/><path d="M335.38,342.6c2.66,3,2.39,6.46-.33,8.89s-6.23,2.32-8.89-.66-2.4-6.47.34-8.92S332.71,339.61,335.38,342.6Zm-7,1.41c-1.38,1.23-1.56,3,.07,4.79s3.36,1.82,4.74.59,1.54-2.95-.07-4.76S329.73,342.79,328.37,344Z"/><path d="M326.42,350.6c2.33,3,2.29,6.38-.43,8.51a4.15,4.15,0,0,1-4.26.84l4,5.08-2.36,1.85-10.52-13.43,2.21-1.73,1.3,1.66a4,4,0,0,1,1.71-4.36C320.77,346.89,324.08,347.62,326.42,350.6Zm-7.15.95c-1.65,1.28-1.61,3.24-.26,5s3.17,2.14,4.79.87,1.6-3.14.25-4.86S320.89,350.27,319.27,351.55Z"/><path d="M314.57,357.45l4.56,6.68-2.48,1.7-4.33-6.35a2.1,2.1,0,0,0-3.19-.67c-1.34.92-1.53,2.62-.38,4.3l3.78,5.53-2.46,1.68-7-10.21,2.32-1.58,1.22,1.78a3.91,3.91,0,0,1,1.86-4.21C310.76,354.56,313,355.13,314.57,357.45Z"/><path d="M306.12,365.38c1.85,3.11,1.55,6.67-2,8.77-2.8,1.68-5.54,1.16-7.15-1.21l2.62-1.56a2.2,2.2,0,0,0,3.2.55c2-1.18,1.84-3.05.73-4.91s-2.73-2.79-4.58-1.68a2.23,2.23,0,0,0-1.09,3.14L295.27,370c-1.33-2.59-.36-5.32,2.46-7C301.23,360.94,304.32,362.37,306.12,365.38Z"/><path d="M293.82,369.66l2.91,5.46,1.95-1,1.24,2.32-1.94,1,1.35,2.54-2.25,2.16-1.75-3.28-2.28,1.22-1.25-2.33,2.29-1.22-2.71-5.06c-.45-.85-.94-1.05-1.8-.58l-1.36.72L287,369.3l2-1.08C291.1,367.11,292.7,367.56,293.82,369.66Z"/><path d="M290.33,386.56l-4,1.72L276.9,378l.92,13.92-4.05,1.72-6.56-15.46L269.9,377l5,11.79L274,375.26l3-1.27L286.08,384l-5-11.79,2.7-1.15Z"/><path d="M267.92,381.38c.85,2.58-1,4-2.68,4.81l-2.38,1.14c-.74.37-1.38.78-1.09,1.67s1.17,1.18,2.59.71c1.68-.55,2.25-1.45,2.13-2.57l2.8-.93c.49,2.85-1.2,4.77-4.32,5.8s-5.24.3-6.12-2.37l-2.64-8,2.62-.87.68,2.05a4.59,4.59,0,0,1,3.36-3.66C265.15,378.43,267.16,379.1,267.92,381.38Zm-5.05.41a3,3,0,0,0-2.22,3.84l.19.57a8.92,8.92,0,0,1,1.57-.92l1.32-.67c.85-.4,1.78-1,1.42-2.06C264.84,381.64,264,381.41,262.87,381.79Z"/><path d="M258.54,393.87l-2.81.73-.5-1.92a4.26,4.26,0,0,1-3.39,3.17c-2.76.72-4.52-.6-5.23-3.32l-2-7.77,2.88-.76,1.91,7.31a2.15,2.15,0,0,0,2.83,1.72c1.63-.43,2.54-1.88,2-3.93l-1.68-6.42,2.9-.77Z"/><path d="M245.16,388.12c.52,2.66-1.47,3.84-3.27,4.43l-2.5.83c-.78.28-1.47.61-1.29,1.53s1,1.32,2.48,1c1.74-.34,2.41-1.16,2.44-2.29l2.89-.56c.13,2.88-1.79,4.58-5,5.21s-5.23-.37-5.77-3.13l-1.61-8.24,2.71-.53.41,2.12a4.59,4.59,0,0,1,3.8-3.21C242.78,384.84,244.7,385.77,245.16,388.12Zm-5.06-.23a3,3,0,0,0-2.68,3.53l.11.59a9.42,9.42,0,0,1,1.67-.72l1.4-.49c.89-.3,1.88-.74,1.66-1.87C242.08,388,241.28,387.66,240.1,387.89Z"/><path d="M233.15,386.56l-3,.39c-.34-1.17-1.43-1.89-3.28-1.65-2,.26-3,1.43-2.79,3.36l.28,2.12a4.35,4.35,0,0,1,3.72-2.69c2.83-.37,5.69,1.17,6.22,5.22s-1.89,6.49-4.84,6.88a4.07,4.07,0,0,1-4-1.47l.23,1.74-2.93.38-1.49-11.47c-.51-3.86,2-6,5.34-6.41C229.7,382.56,232.4,383.73,233.15,386.56Zm-5.49,4.13a3.06,3.06,0,0,0-2.72,3.81c.31,2.36,1.87,3.25,3.59,3s3.05-1.46,2.74-3.84A3.07,3.07,0,0,0,227.66,390.69Z"/><path d="M221.54,394.59c.25,3.74-1.77,6.69-5.74,7-3.33.22-5.79-1.44-6.07-5.54l-.09-1.41,8.91-.59a3,3,0,0,0-3.48-2.75c-1.32.09-2.22.63-2.46,1.7l-2.92.19c.34-2.81,2.7-4.24,5.36-4.42C218.54,388.49,221.27,390.48,221.54,394.59Zm-8.9,2.09c.16,1.62,1.1,2.47,3,2.35a3,3,0,0,0,3-2.75Z"/><path d="M209.09,401.88l-2.91,0,0-1.85a3.68,3.68,0,0,1-3.51,2,3.22,3.22,0,0,1-3.33-2.38,4.15,4.15,0,0,1-4.11,2.26,3.78,3.78,0,0,1-4-4.07l.13-8.57,3,.05-.12,7.89a1.84,1.84,0,0,0,2,2.08,2.42,2.42,0,0,0,2.49-2.68l.11-7.22,3,0-.12,7.9a1.83,1.83,0,0,0,1.94,2.07,2.42,2.42,0,0,0,2.49-2.67l.11-7.22,3,0Z"/><path d="M190.92,395.15c-.34,3.73-2.8,6.32-6.76,6-3.32-.3-5.5-2.33-5.13-6.42l.13-1.41,8.89.81a3,3,0,0,0-3-3.26c-1.32-.12-2.29.27-2.7,1.3l-2.91-.27c.78-2.72,3.33-3.77,6-3.52C188.91,388.65,191.29,391,190.92,395.15Zm-9.12.66c-.1,1.63.7,2.62,2.56,2.79a3,3,0,0,0,3.39-2.25Z"/><path d="M177.63,400.26l-2.87-.45.31-2a4.26,4.26,0,0,1-4.37,1.56c-2.82-.43-3.91-2.35-3.48-5.12l1.22-7.95,2.94.46-1.15,7.47a2.16,2.16,0,0,0,1.91,2.7c1.66.25,3.08-.72,3.4-2.81l1-6.56,3,.45Z"/><path d="M166.17,389.41l-1.25,6.07,2.17.44-.54,2.59-2.16-.45-.58,2.82-3.11.22.75-3.64-2.54-.53.54-2.58,2.54.52,1.16-5.61c.19-.95-.06-1.41-1-1.61l-1.5-.31.52-2.56,2.26.46C165.71,385.72,166.66,387.09,166.17,389.41Z"/><path d="M156.45,392.23c-1.52,5.51-4.08,7.71-8,6.62s-5-4.31-3.5-9.84S149,381.3,153,382.4,158,386.73,156.45,392.23Zm-4.17-7.33c-2.26-.63-3.38,1.25-4.4,4.93s-1,5.89,1.23,6.52,3.36-1.26,4.38-4.94S154.53,385.52,152.28,384.9Z"/><path d="M139.53,381.87l7.5,2.6-.88,2.54-10.23,7.62-3.56-1.23,3.42-9.89-2.45-.84.92-2.66,2.45.85,1.06-3.06,2.84,1Zm-.91,2.63-2.42,7,7.16-5.32Z"/><path d="M125.35,391l-7-3.13a5.07,5.07,0,0,1-2.73-7,5.32,5.32,0,0,1,7.44-2.77l3.93,1.75,2.42-5.43,2.81,1.25Zm-3.21-10.22a2.49,2.49,0,0,0-3.62,1.28c-.61,1.35-.21,2.64,1.46,3.38l3.74,1.68,2.1-4.69Z"/><path d="M114.57,381.18,112,379.85l1-2a3.15,3.15,0,0,1-3.92.68l-1-.5,1.34-2.6,1,.5c2,1,3.34.23,4.37-1.78l2.75-5.33,2.66,1.37Z"/><path d="M111.9,372.92c-2,3.45-5.4,4.28-8.55,2.45s-4.15-5.2-2.15-8.64,5.4-4.31,8.58-2.47S113.9,369.45,111.9,372.92Zm-3.53-6.23c-1.59-.92-3.31-.55-4.53,1.56s-.68,3.77.91,4.69,3.29.55,4.51-1.55S110,367.61,108.37,366.69Z"/><path d="M101.48,366.89c-2.09,3.14-5.35,4.16-8.22,2.24a4.15,4.15,0,0,1-2.12-3.78l-3.58,5.36-2.5-1.66,9.49-14.18,2.33,1.56-1.18,1.75a4,4,0,0,1,4.68.27C103.25,360.37,103.59,363.74,101.48,366.89Zm-3.12-6.5c-1.74-1.16-3.58-.52-4.8,1.3s-1,3.68.67,4.83,3.48.54,4.69-1.28S100.07,361.54,98.36,360.39Z"/><path d="M91.27,357.77l-4.92,6.41L84,362.36l4.68-6.1a2.11,2.11,0,0,0-.36-3.24c-1.3-1-3-.64-4.2,1L80,359.32l-2.36-1.82,7.52-9.8,2.23,1.71-1.31,1.71a3.88,3.88,0,0,1,4.58.46C92.84,353.25,93,355.54,91.27,357.77Z"/><path d="M81.12,352.2c-2.38,2.74-5.86,3.56-9,.87-2.46-2.14-2.83-4.91-1.08-7.17l2.3,2a2.2,2.2,0,0,0,.48,3.21c1.74,1.51,3.48.8,4.89-.83s1.8-3.46.17-4.88a2.23,2.23,0,0,0-3.32-.06l-2.3-2c2-2.06,5-2,7.43.16C83.81,346.18,83.42,349.56,81.12,352.2Z"/><path d="M73.2,341.83l-4.28,4.48,1.6,1.52-1.83,1.91-1.59-1.52-2,2.08-2.75-1.47,2.57-2.69-1.88-1.79,1.83-1.91,1.87,1.8,4-4.15c.66-.69.7-1.22,0-1.9l-1.11-1.06,1.8-1.9,1.67,1.6C74.77,338.45,74.84,340.11,73.2,341.83Z"/><path d="M56.08,343.84l-2.9-3.3,6.87-12.15L47.1,333.62l-2.9-3.3,12.63-11.09,1.93,2.2-9.63,8.46,12.56-5.12,2.16,2.45L57.14,339l9.64-8.45,1.93,2.2Z"/><path d="M54,320.9c-2.18,1.62-4.1.32-5.41-1L46.73,318c-.58-.58-1.18-1.06-1.93-.51s-.75,1.49.14,2.68c1.06,1.43,2.08,1.68,3.11,1.22l1.76,2.37c-2.55,1.35-4.91.35-6.87-2.29s-1.92-4.88.34-6.55l6.74-5,1.65,2.21-1.74,1.29a4.64,4.64,0,0,1,4.54,2C55.9,317.34,55.9,319.47,54,320.9Zm-2-4.67a3,3,0,0,0-4.35-.9l-.48.36a9.48,9.48,0,0,1,1.37,1.2l1,1.05c.66.68,1.48,1.38,2.41.69C52.76,318.06,52.71,317.2,52,316.23Z"/><path d="M39.17,315.91l-1.59-2.43,1.67-1.09a4.25,4.25,0,0,1-4.07-2.22c-1.56-2.39-.85-4.48,1.5-6l6.74-4.38,1.63,2.49-6.34,4.12a2.16,2.16,0,0,0-.74,3.23c.91,1.41,2.58,1.81,4.35.66l5.58-3.62,1.63,2.52Z"/><path d="M40.42,301.41c-2.36,1.33-4.11-.2-5.23-1.71l-1.58-2.11c-.51-.65-1-1.21-1.86-.75s-.93,1.38-.2,2.68c.88,1.54,1.86,1.92,2.94,1.59l1.45,2.57c-2.7,1-4.91-.26-6.53-3.12s-1.29-5.08,1.15-6.46L37.88,290l1.36,2.4-1.89,1.06A4.63,4.63,0,0,1,41.6,296C42.78,298.12,42.51,300.23,40.42,301.41Zm-1.37-4.88a3,3,0,0,0-4.2-1.43l-.53.29a8.39,8.39,0,0,1,1.21,1.36l.91,1.17c.56.76,1.29,1.56,2.3,1C39.57,298.44,39.64,297.58,39.05,296.53Z"/><path d="M38.13,289.52l-1.32-2.73c1-.69,1.35-2,.53-3.64s-2.31-2.43-4.07-1.58l-1.92.93a4.33,4.33,0,0,1,3.72,2.68c1.24,2.57.68,5.78-3,7.55s-6.76.25-8-2.43a4.05,4.05,0,0,1,.12-4.27l-1.58.76-1.28-2.66,10.42-5c3.5-1.69,6.29,0,7.76,3C40.84,285,40.57,287.91,38.13,289.52Zm-5.65-3.91c-.72-1.5-2.28-2.45-4.48-1.39s-2.49,2.8-1.74,4.36,2.35,2.44,4.51,1.4S33.23,287.16,32.48,285.61Z"/><path d="M26.86,281.06c-3.47,1.41-6.9.42-8.4-3.27-1.26-3.09-.45-6,3.35-7.5l1.31-.53L26.48,278A3,3,0,0,0,28,273.86c-.49-1.22-1.29-1.91-2.39-1.8l-1.1-2.71c2.78-.56,4.88,1.23,5.88,3.7C31.71,276.29,30.68,279.51,26.86,281.06Zm-4.77-7.8c-1.5.66-2,1.83-1.3,3.56a3,3,0,0,0,3.54,2Z"/><path d="M16.05,271.49l-.88-2.77,1.77-.56a3.67,3.67,0,0,1-3-2.7,3.22,3.22,0,0,1,1.21-3.9,4.14,4.14,0,0,1-3.44-3.19,3.77,3.77,0,0,1,2.61-5.05l8.17-2.58.9,2.86L15.84,256a1.83,1.83,0,0,0-1.35,2.51A2.42,2.42,0,0,0,17.81,260l6.89-2.17.91,2.86-7.53,2.37a1.83,1.83,0,0,0-1.36,2.49A2.42,2.42,0,0,0,20,267.08l6.89-2.17.91,2.86Z"/><path d="M16.73,252.12c-3.65.83-6.88-.69-7.77-4.58-.74-3.25.51-5.95,4.51-6.86l1.38-.32,2,8.7A3,3,0,0,0,19,245.19c-.29-1.28-1-2.09-2.07-2.16l-.65-2.85c2.83-.11,4.61,2,5.21,4.59C22.28,248.19,20.75,251.2,16.73,252.12Zm-3.46-8.47c-1.58.41-2.28,1.48-1.86,3.31a3,3,0,0,0,3.19,2.52Z"/><path d="M7.75,241.1l-.47-2.86,2-.33a4.24,4.24,0,0,1-2.84-3.66c-.46-2.82,1-4.45,3.79-4.91l7.94-1.3.48,2.94-7.46,1.22a2.15,2.15,0,0,0-2,2.66c.27,1.66,1.63,2.7,3.72,2.36l6.56-1.08.48,3Z"/><path d="M14.49,226.82l-6.15.69.24,2.19L6,230l-.25-2.2-2.86.33-1.17-2.89,3.7-.42-.29-2.57,2.62-.3L8,224.53l5.7-.64c1-.11,1.32-.49,1.21-1.47l-.17-1.52,2.6-.3.26,2.29C17.86,225.23,16.85,226.55,14.49,226.82Z"/><path d="M8.8,218.47C3.09,218.73.2,217,0,212.89s2.53-6.12,8.25-6.39,8.6,1.48,8.79,5.6S14.5,218.2,8.8,218.47Zm5.66-6.25c-.1-2.35-2.24-2.83-6.05-2.65s-5.92.85-5.81,3.2,2.24,2.8,6.05,2.63S14.57,214.55,14.46,212.22Z"/><path d="M13.36,199.15l-.13,7.95-2.69,0L.1,199.7l.06-3.77,10.47.18,0-2.6,2.81.05-.05,2.59,3.24.06-.05,3Zm-2.78,0L3.21,199l7.28,5.14Z"/><path d="M.22,188.55,1,180.91a5.07,5.07,0,0,1,5.79-4.8,5.33,5.33,0,0,1,5,6.2l-.43,4.27,5.92.6-.31,3.06Zm8.69-6.27a2.5,2.5,0,0,0-2.35-3c-1.48-.15-2.57.63-2.76,2.45l-.41,4.08,5.11.52Z"/><path d="M6.16,175.23l.45-2.87,2.23.35A3.16,3.16,0,0,1,7,169.21l.17-1.07,2.89.45-.16,1.07c-.35,2.23.82,3.24,3.05,3.59l5.93.93-.46,3Z"/><path d="M13.16,170.09c-3.9-.8-5.76-3.76-5-7.34s3.63-5.57,7.53-4.76,5.79,3.77,5,7.37S17.09,170.91,13.16,170.09Zm4.8-5.3c.38-1.81-.51-3.32-2.91-3.81s-3.79.54-4.16,2.34.52,3.3,2.89,3.79S17.59,166.58,18,164.79Z"/><path d="M15.6,158.33c-3.63-1-5.63-3.78-4.71-7.11a4.14,4.14,0,0,1,2.93-3.2L7.59,146.3l.8-2.89L24.84,148l-.75,2.7-2-.56a4,4,0,0,1,1.21,4.52C22.35,158,19.26,159.34,15.6,158.33Zm5.2-5c.55-2-.64-3.56-2.74-4.14s-3.83.16-4.38,2.15.58,3.47,2.69,4.06S20.25,155.3,20.8,153.31Z"/><path d="M21.06,145.76l-7.63-2.66,1-2.83,7.26,2.53a2.1,2.1,0,0,0,3-1.36c.54-1.54-.32-3-2.25-3.68l-6.32-2.21,1-2.81,11.67,4.07-.93,2.66-2-.72a3.89,3.89,0,0,1,1,4.5C25.84,145.83,23.71,146.69,21.06,145.76Z"/><path d="M23.16,134.37c-3.34-1.41-5.21-4.46-3.62-8.24,1.26-3,3.78-4.22,6.47-3.27l-1.18,2.81a2.22,2.22,0,0,0-2.9,1.46c-.89,2.13.33,3.55,2.32,4.39s3.85.63,4.69-1.37A2.23,2.23,0,0,0,28,127l1.18-2.81c2.61,1.3,3.45,4.08,2.17,7.11C29.72,135,26.39,135.72,23.16,134.37Z"/><path d="M30.53,123.61l-5.59-2.67-1,2-2.38-1.13.95-2L20,118.56l.53-3.07,3.36,1.61L25,114.76l2.39,1.13-1.12,2.34,5.18,2.47c.87.41,1.38.29,1.8-.6l.67-1.39,2.36,1.13-1,2.08C34.23,124,32.68,124.63,30.53,123.61Z"/><path d="M23.3,107.94l2.23-3.78,13.69,2.74-9-10.67,2.23-3.78L46.91,101l-1.48,2.52L34.39,97l8.78,10.35-1.66,2.81-13.29-2.7,11,6.52-1.49,2.52Z"/><path d="M44.42,98.81c-2.21-1.57-1.58-3.8-.69-5.46L45,91c.38-.74.65-1.46-.12-2s-1.64-.25-2.5,1c-1,1.45-1,2.5-.18,3.33l-1.71,2.41c-2.08-2-1.86-4.55,0-7.23s4-3.35,6.33-1.73l6.85,4.85-1.59,2.26-1.76-1.25a4.64,4.64,0,0,1-.53,5C48.4,99.53,46.38,100.19,44.42,98.81Zm3.82-3.33a3,3,0,0,0-.5-4.41l-.49-.34a8.07,8.07,0,0,1-.71,1.67l-.67,1.32c-.44.83-.85,1.83.09,2.5C46.74,96.77,47.55,96.46,48.24,95.48Z"/><path d="M44.55,83.2l1.82-2.26,1.55,1.25a4.25,4.25,0,0,1,.84-4.56c1.79-2.23,4-2.21,6.18-.45l6.26,5-1.87,2.32L53.44,79.8a2.15,2.15,0,0,0-3.29.3c-1,1.31-.92,3,.73,4.35l5.17,4.16L54.17,91Z"/><path d="M58.73,79.86c-2-1.83-1.1-4,0-5.5l1.51-2.16c.46-.68.82-1.36.13-2s-1.6-.46-2.6.64c-1.2,1.31-1.25,2.37-.6,3.29l-2,2.18c-1.82-2.25-1.28-4.75.93-7.18s4.43-2.81,6.5-.92l6.2,5.67-1.86,2-1.59-1.45a4.63,4.63,0,0,1-1.15,4.84C62.59,81.08,60.5,81.48,58.73,79.86ZM62.93,77A3,3,0,0,0,63,72.6l-.45-.4a8.5,8.5,0,0,1-.91,1.57L60.8,75c-.54.77-1.08,1.71-.23,2.49S62.12,77.93,62.93,77Z"/><path d="M69.3,74l2.18-2.1c1,.73,2.28.67,3.62-.63s1.59-3,.24-4.36l-1.49-1.54a4.34,4.34,0,0,1-1.38,4.37c-2.06,2-5.28,2.45-8.11-.48s-2.34-6.34-.2-8.41a4,4,0,0,1,4.09-1.21L67,58.35l2.12-2,8,8.32c2.7,2.8,2,6-.47,8.33C74.46,75.14,71.59,75.8,69.3,74Zm2-6.59a3.06,3.06,0,0,0-.08-4.68c-1.65-1.71-3.44-1.49-4.68-.29s-1.58,3,.08,4.72A3.08,3.08,0,0,0,71.25,67.39Z"/><path d="M73.83,60.62c-2.43-2.85-2.56-6.42.48-9,2.54-2.16,5.51-2.29,8.17.84l.92,1.08-6.81,5.78a3,3,0,0,0,4.43.14c1-.86,1.41-1.83,1-2.84l2.23-1.89c1.4,2.46.36,5-1.68,6.74C79.87,63.74,76.5,63.77,73.83,60.62Zm5.91-7c-1.09-1.22-2.36-1.34-3.78-.12a3,3,0,0,0-.77,4Z"/><path d="M79.52,47.37l2.35-1.7L83,47.17a3.69,3.69,0,0,1,1.62-3.71,3.22,3.22,0,0,1,4.09-.07,4.15,4.15,0,0,1,1.94-4.28,3.78,3.78,0,0,1,5.62.9l5,7L98.8,48.71l-4.62-6.4a1.83,1.83,0,0,0-2.81-.49,2.42,2.42,0,0,0-.4,3.63l4.23,5.86-2.44,1.75-4.62-6.4a1.83,1.83,0,0,0-2.79-.51,2.44,2.44,0,0,0-.4,3.64l4.23,5.86L86.75,57.4Z"/><path d="M98.11,41.94c-1.94-3.2-1.51-6.75,1.9-8.81,2.85-1.73,5.81-1.39,7.94,2.12l.73,1.21-7.63,4.63a3,3,0,0,0,4.35.84c1.13-.69,1.68-1.58,1.4-2.65l2.5-1.52c1,2.66-.44,5-2.71,6.4C103.59,46,100.25,45.47,98.11,41.94Zm7-5.95c-.89-1.37-2.12-1.69-3.73-.72A3,3,0,0,0,100,39.09Z"/><path d="M105.76,29.94l2.58-1.35.92,1.77a4.26,4.26,0,0,1,2.59-3.85c2.53-1.33,4.54-.43,5.84,2l3.74,7.12-2.64,1.39-3.51-6.7a2.15,2.15,0,0,0-3.14-1c-1.49.78-2,2.41-1.07,4.28l3.09,5.88-2.66,1.4Z"/><path d="M121.42,31.86l-2.6-5.63-2,.93-1.11-2.4,2-.92-1.21-2.62,2.37-2,1.56,3.38,2.36-1.09,1.1,2.4L121.55,25l2.4,5.2c.4.88.88,1.11,1.77.69l1.4-.64,1.09,2.37-2.09,1C124,34.56,122.41,34,121.42,31.86Z"/></g></g></svg>