<svg width="416" height="418" viewBox="0 0 416 418" fill="none" xmlns="http://www.w3.org/2000/svg">
<path d="M58.6988 344.68C61.6485 347.872 65.5502 346.752 69.1481 343.427C72.7461 340.103 74.1884 336.285 71.2387 333.093C68.289 329.901 64.3697 331.038 60.7717 334.362C57.1738 337.687 55.7491 341.488 58.6988 344.68ZM68.8401 335.309C69.9808 336.544 68.7507 338.433 66.4755 340.535C64.2003 342.637 62.2382 343.698 61.0974 342.464C59.9567 341.229 61.1529 339.339 63.4281 337.237C65.7032 335.135 67.6993 334.075 68.8401 335.309Z" fill="inherit"/>
<path d="M48.9248 332.67L50.8919 335.094C53.0455 335.232 54.5522 336.174 55.6477 337.296L58.3886 335.071C57.6856 334.281 56.4969 333.236 55.0448 332.589L64.144 325.205L61.7532 322.259L48.9248 332.67Z" fill="inherit"/>
<path d="M43.6093 304.667C40.5841 306.622 41.6664 309.668 42.6754 312.247C43.3694 314.028 44.0268 315.576 42.8974 316.306C42.0503 316.854 41.0105 316.439 40.1502 315.108C39.4072 313.959 39.224 312.79 40.4568 311.822L38.2539 308.414C35.2465 310.529 35.1249 313.924 37.08 316.949C38.957 319.854 42.1439 321.511 45.2497 319.504C48.4564 317.431 47.2366 314.217 46.2608 311.645C45.6189 309.944 45.0327 308.55 46.0612 307.885C46.9083 307.338 47.941 307.786 48.8012 309.117C49.7919 310.649 49.823 312.202 48.2012 313.364L50.391 316.753C53.9027 314.311 53.7282 310.193 51.7731 307.167C49.8961 304.263 46.5941 302.738 43.6093 304.667Z" fill="inherit"/>
<path d="M33.6183 302.218C35.4352 305.549 38.8829 306.705 42.4456 304.761C46.0083 302.818 46.9032 299.293 45.0864 295.963C43.2695 292.632 39.8218 291.476 36.2591 293.42C32.6964 295.363 31.8015 298.887 33.6183 302.218ZM41.9032 297.699C42.6046 298.985 42.4168 300.346 40.5828 301.346C38.7487 302.347 37.503 301.768 36.8016 300.482C36.1001 299.196 36.2879 297.835 38.1219 296.835C39.956 295.834 41.2017 296.413 41.9032 297.699Z" fill="inherit"/>
<path d="M25.8553 288.428L22.8109 289.854L23.7889 291.942C24.7566 294.007 26.0975 295.342 29.2072 293.885L29.5768 293.712L30.3714 295.408L33.4158 293.982L32.6212 292.286L40.9715 288.374L39.3518 284.916L31.0015 288.828L30.0542 286.806L27.0098 288.232L27.9571 290.254L27.6745 290.387C27.1308 290.641 26.7721 290.385 26.4665 289.733L25.8553 288.428Z" fill="inherit"/>
<path d="M31.6883 275.218L32.2774 276.664C32.5856 277.42 32.29 277.903 31.6451 278.166L27.2644 279.952L26.3399 277.683L23.2267 278.952L24.1512 281.22L20.8156 282.58L23.2261 285.695L25.5832 284.734L26.3899 286.713L29.5031 285.444L28.6964 283.465L33.5219 281.498C36.7018 280.202 36.587 278.33 35.726 276.217L34.8015 273.949L31.6883 275.218Z" fill="inherit"/>
<path d="M17.3481 261.342L24.8898 261.252L18.7513 265.684L19.7484 268.768L27.3653 268.754L21.1738 273.178L22.4145 277.017L32.9918 268.828L31.943 265.584L24.9578 265.444L30.5472 261.265L29.4984 258.021L16.1369 257.595L17.3481 261.342Z" fill="inherit"/>
<path d="M15.0141 252.079C15.7078 255.049 17.555 257.256 20.7275 257.008L19.8973 253.453C19.0998 253.418 18.4434 252.93 18.1539 251.691C17.9463 250.802 18.0795 250.105 18.7576 249.947C19.5293 249.767 19.9254 250.512 20.1212 251.034L20.9059 253.021C21.5057 254.533 22.7035 256.916 25.533 256.255C27.9649 255.687 28.7727 253.55 28.2975 251.516C27.9425 249.996 26.9686 248.571 25.556 248.014L27.1227 247.648L26.3198 244.21L18.1588 246.116C15.2826 246.788 14.2768 248.922 15.0141 252.079ZM25.0188 251.098C25.2428 252.057 24.967 252.565 24.3356 252.713C23.447 252.92 23.0578 252.099 22.8278 251.536L22.4908 250.727C22.1593 249.941 21.9675 249.542 21.7632 249.195L22.2075 249.092C23.3533 248.824 24.6474 249.508 25.0188 251.098Z" fill="inherit"/>
<path d="M12.1566 236.269L12.3559 237.453C12.587 238.826 13.3624 239.816 14.5628 240.003L12.9762 240.27L13.6059 244.012L26.0144 241.924L25.3807 238.158L19.3422 239.175C17.3531 239.509 16.329 238.489 16.046 236.807L15.8507 235.647L12.1566 236.269Z" fill="inherit"/>
<path d="M16.6573 221.22C12.5732 221.647 10.8174 224.486 11.1514 227.686C11.5029 231.054 13.9855 233.788 18.38 233.33C22.7507 232.873 24.5006 229.745 24.154 226.425C23.8624 223.631 22.1751 221.344 19.292 221.018L19.6834 224.767C20.3179 225.063 20.629 225.731 20.7237 226.639C20.8733 228.072 20.4023 229.111 19.0584 229.42L18.1859 221.061L16.6573 221.22ZM16.6487 229.696C15.329 229.544 14.7064 228.667 14.5767 227.425C14.4396 226.112 14.9833 225.306 16.17 225.11L16.6487 229.696Z" fill="inherit"/>
<path d="M6.30605 204.716L6.21727 210.983L23.0249 211.221L23.1086 205.315C23.1929 199.36 18.6686 196.63 14.5147 196.571C10.3849 196.513 6.38632 199.05 6.30605 204.716ZM19.3382 205.309L19.3113 207.206L10.0191 207.074L10.0524 204.721C10.096 201.648 12.1529 200.548 14.4579 200.581C16.9551 200.616 19.3851 201.996 19.3382 205.309Z" fill="inherit"/>
<path d="M17.9291 183.825C13.84 183.45 11.5661 185.894 11.2721 189.098C10.9628 192.47 12.8668 195.634 17.2668 196.038C21.6428 196.44 23.967 193.711 24.2719 190.387C24.5286 187.589 23.3176 185.018 20.5529 184.138L20.2085 187.892C20.7734 188.306 20.9489 189.021 20.8655 189.93C20.7339 191.365 20.0701 192.292 18.6917 192.335L19.4595 183.965L17.9291 183.825ZM16.2743 192.137C15.0093 191.732 14.5688 190.751 14.6828 189.507C14.8035 188.192 15.4933 187.508 16.6955 187.546L16.2743 192.137Z" fill="inherit"/>
<path d="M13.8472 172.43L21.4861 176.765L12.8663 178.45L12.2214 182.408L25.4709 179.336L26.0617 175.71L14.4727 168.591L13.8472 172.43Z" fill="inherit"/>
<path d="M23.3054 157.541C19.3087 156.599 16.7159 158.701 15.9775 161.833C15.2005 165.129 16.6441 168.528 20.9446 169.542C25.2218 170.551 27.9041 168.173 28.6701 164.924C29.3148 162.19 28.4745 159.475 25.8598 158.217L24.9947 161.887C25.4963 162.375 25.5703 163.108 25.3609 163.996C25.0302 165.398 24.2434 166.224 22.8726 166.074L24.8012 157.893L23.3054 157.541ZM20.5064 165.541C19.3104 164.963 19.0111 163.93 19.2977 162.715C19.6008 161.429 20.3793 160.848 21.5644 161.053L20.5064 165.541Z" fill="inherit"/>
<path d="M15.1087 148.98L14.0227 152.641L30.3908 157.497L31.4769 153.837L15.1087 148.98Z" fill="inherit"/>
<path d="M22.6134 140.238C21.3238 143.807 22.744 147.154 26.5606 148.533C30.3773 149.913 33.6094 148.247 34.8989 144.678C36.1885 141.11 34.7683 137.763 30.9516 136.383C27.135 135.004 23.9029 136.67 22.6134 140.238ZM31.4888 143.446C30.9909 144.824 29.8476 145.585 27.8828 144.875C25.918 144.165 25.5256 142.848 26.0235 141.471C26.5214 140.093 27.6646 139.332 29.6294 140.042C31.5942 140.752 31.9866 142.068 31.4888 143.446Z" fill="inherit"/>
<path d="M28.9084 125.154C28.1819 126.776 28.353 128.273 29.2396 129.407L27.574 128.661L26.0228 132.123L41.7137 139.153L43.2747 135.669L37.5112 133.086C38.6967 132.907 39.9009 132.157 40.6569 130.47C41.9136 127.665 41.0212 124.371 37.0985 122.613C33.2635 120.895 30.1847 122.305 28.9084 125.154ZM37.0843 129.869C36.4952 131.184 35.1127 132.038 33.2937 131.223C31.4748 130.408 31.2259 128.85 31.8248 127.513C32.4237 126.176 33.7428 125.346 35.5617 126.161C37.3806 126.976 37.6734 128.554 37.0843 129.869Z" fill="inherit"/>
<path d="M39.1511 105.852C38.4124 107.172 38.1296 108.858 38.9623 110.369C37.447 110.127 36.3485 110.86 35.6332 112.139C34.9999 113.27 34.7833 114.69 35.5119 115.896L34.1917 115.157L32.3389 118.468L43.3195 124.613L45.184 121.281L38.8136 117.716C37.5354 117 37.3356 115.981 37.875 115.017C38.391 114.095 39.1452 113.829 40.1091 114.368L46.9196 118.179L48.7841 114.847L42.4137 111.283C41.1354 110.567 40.924 109.568 41.4868 108.562C42.2842 107.137 43.4368 107.782 43.7092 107.935L50.5197 111.746L52.3842 108.414L44.966 104.263C42.5143 102.891 40.2535 103.882 39.1511 105.852Z" fill="inherit"/>
<path d="M53.811 95.0511C50.4133 92.7452 47.241 93.7846 45.4341 96.4471C43.5327 99.2488 43.6687 102.94 47.3248 105.421C50.9609 107.889 54.3148 106.624 56.1892 103.862C57.7669 101.538 57.9502 98.7018 55.9562 96.594L53.8391 99.7135C54.1335 100.349 53.9412 101.06 53.4287 101.815C52.6197 103.007 51.5899 103.498 50.363 102.868L55.0826 95.9141L53.811 95.0511ZM48.3426 101.526C47.4315 100.56 47.5203 99.4882 48.2215 98.4549C48.9631 97.3621 49.8978 97.0968 50.9317 97.7114L48.3426 101.526Z" fill="inherit"/>
<path d="M54.9867 83.7412C53.9737 85.0219 53.4942 86.4797 54.0039 87.7708L52.8173 86.8322L50.4636 89.808L60.3326 97.614L62.7013 94.6194L57.2017 90.2695C55.8834 89.2267 55.944 87.9888 56.7335 86.9906C57.4337 86.1054 58.4032 85.77 59.439 86.5893L65.3529 91.267L67.7215 88.2724L61.4875 83.3415C59.1521 81.4942 56.819 81.4246 54.9867 83.7412Z" fill="inherit"/>
<path d="M71.6323 79.1158L70.5875 80.2754C70.0409 80.8819 69.4769 80.8263 68.9596 80.3601L65.4452 77.1934L67.0848 75.3738L64.5872 73.1234L62.9476 74.943L60.2717 72.5319L58.5169 76.0578L60.4079 77.7617L58.9772 79.3494L61.4748 81.5998L62.9054 80.0121L66.7766 83.5003C69.3277 85.7989 70.9632 84.8806 72.4902 83.1859L74.1298 81.3662L71.6323 79.1158Z" fill="inherit"/>
<path d="M73.9062 58.2901C70.6827 61.2056 71.7615 65.1191 75.0476 68.7522C78.3336 72.3853 82.1355 73.8681 85.359 70.9525C88.5825 68.037 87.4876 64.1058 84.2015 60.4727C80.9155 56.8396 77.1297 55.3746 73.9062 58.2901ZM83.1683 68.5305C81.9217 69.658 80.0462 68.4079 77.9683 66.1105C75.8904 63.813 74.8503 61.8397 76.0969 60.7122C77.3436 59.5846 79.2207 60.8009 81.2986 63.0983C83.3766 65.3957 84.415 67.4029 83.1683 68.5305Z" fill="inherit"/>
<path d="M86.0209 48.6451L83.5761 50.5863C83.4145 52.7384 82.4565 54.235 81.3237 55.3184L83.5187 58.0829C84.3163 57.3883 85.3745 56.2108 86.036 54.7656L93.3231 63.9429L96.2944 61.5836L86.0209 48.6451Z" fill="inherit"/>
<path d="M345.029 360.169C348.222 357.219 347.101 353.317 343.777 349.719C340.452 346.121 336.635 344.679 333.442 347.629C330.25 350.579 331.387 354.498 334.711 358.096C338.036 361.694 341.837 363.118 345.029 360.169ZM335.659 350.027C336.893 348.887 338.782 350.117 340.884 352.392C342.986 354.667 344.047 356.629 342.813 357.77C341.578 358.911 339.688 357.715 337.586 355.439C335.484 353.164 334.424 351.168 335.659 350.027Z" fill="inherit"/>
<path d="M333.018 369.941L335.442 367.973C335.58 365.82 336.523 364.313 337.644 363.218L335.419 360.477C334.629 361.18 333.584 362.368 332.937 363.821L325.553 354.721L322.607 357.112L333.018 369.941Z" fill="inherit"/>
<path d="M305.016 373.569C306.971 376.595 310.017 375.512 312.596 374.503C314.378 373.809 315.926 373.152 316.656 374.281C317.203 375.128 316.789 376.168 315.458 377.028C314.308 377.771 313.14 377.955 312.171 376.722L308.763 378.925C310.878 381.932 314.274 382.054 317.299 380.099C320.203 378.222 321.86 375.035 319.853 371.929C317.78 368.722 314.566 369.942 311.994 370.918C310.293 371.56 308.9 372.146 308.235 371.117C307.687 370.27 308.135 369.238 309.466 368.377C310.999 367.387 312.551 367.356 313.714 368.977L317.102 366.788C314.661 363.276 310.542 363.45 307.517 365.406C304.613 367.282 303.087 370.584 305.016 373.569Z" fill="inherit"/>
<path d="M302.565 383.56C305.896 381.743 307.052 378.295 305.108 374.733C303.165 371.17 299.641 370.275 296.31 372.092C292.979 373.909 291.823 377.357 293.767 380.919C295.71 384.482 299.235 385.377 302.565 383.56ZM298.046 375.275C299.332 374.574 300.693 374.762 301.693 376.596C302.694 378.43 302.115 379.675 300.829 380.377C299.543 381.078 298.182 380.89 297.182 379.056C296.182 377.222 296.76 375.977 298.046 375.275Z" fill="inherit"/>
<path d="M288.779 391.322L290.205 394.366L292.292 393.388C294.358 392.42 295.692 391.079 294.236 387.97L294.062 387.6L295.759 386.806L294.332 383.761L292.636 384.556L288.725 376.205L285.267 377.825L289.179 386.175L287.156 387.123L288.583 390.167L290.605 389.22L290.737 389.503C290.992 390.046 290.736 390.405 290.083 390.71L288.779 391.322Z" fill="inherit"/>
<path d="M275.569 385.489L277.014 384.9C277.77 384.592 278.254 384.888 278.517 385.533L280.302 389.913L278.034 390.838L279.303 393.951L281.571 393.027L282.931 396.362L286.045 393.952L285.085 391.595L287.064 390.788L285.795 387.675L283.816 388.481L281.849 383.656C280.553 380.476 278.681 380.591 276.568 381.452L274.3 382.376L275.569 385.489Z" fill="inherit"/>
<path d="M261.693 399.83L261.602 392.288L266.034 398.427L269.119 397.429L269.105 389.813L273.529 396.004L277.367 394.763L269.179 384.186L265.934 385.235L265.795 392.22L261.616 386.631L258.371 387.679L257.945 401.041L261.693 399.83Z" fill="inherit"/>
<path d="M252.426 402.164C255.396 401.471 257.603 399.624 257.355 396.451L253.801 397.281C253.765 398.079 253.278 398.735 252.038 399.025C251.15 399.232 250.453 399.099 250.294 398.421C250.114 397.649 250.86 397.253 251.382 397.057L253.368 396.273C254.88 395.673 257.264 394.475 256.603 391.646C256.035 389.214 253.898 388.406 251.864 388.881C250.344 389.236 248.919 390.21 248.361 391.623L247.995 390.056L244.558 390.859L246.464 399.02C247.136 401.896 249.27 402.902 252.426 402.164ZM251.446 392.16C252.405 391.936 252.913 392.212 253.06 392.843C253.268 393.732 252.446 394.121 251.884 394.351L251.075 394.688C250.289 395.019 249.89 395.211 249.543 395.415L249.439 394.971C249.172 393.825 249.856 392.531 251.446 392.16Z" fill="inherit"/>
<path d="M236.619 405.022L237.803 404.823C239.176 404.592 240.166 403.816 240.353 402.616L240.62 404.203L244.362 403.573L242.273 391.164L238.508 391.798L239.525 397.837C239.859 399.826 238.839 400.85 237.157 401.133L235.997 401.328L236.619 405.022Z" fill="inherit"/>
<path d="M221.57 400.518C221.997 404.602 224.836 406.358 228.036 406.024C231.404 405.672 234.139 403.19 233.68 398.795C233.224 394.425 230.095 392.675 226.776 393.021C223.981 393.313 221.695 395 221.368 397.883L225.118 397.492C225.414 396.858 226.081 396.546 226.989 396.452C228.422 396.302 229.461 396.773 229.77 398.117L221.411 398.99L221.57 400.518ZM230.046 400.527C229.894 401.846 229.017 402.469 227.775 402.599C226.462 402.736 225.657 402.192 225.46 401.005L230.046 400.527Z" fill="inherit"/>
<path d="M205.067 410.87L211.334 410.959L211.572 394.151L205.665 394.067C199.71 393.983 196.98 398.507 196.922 402.661C196.863 406.791 199.4 410.789 205.067 410.87ZM205.66 397.838L207.556 397.864L207.425 407.157L205.072 407.123C201.998 407.08 200.899 405.023 200.931 402.718C200.967 400.221 202.346 397.791 205.66 397.838Z" fill="inherit"/>
<path d="M184.174 399.249C183.798 403.338 186.242 405.612 189.447 405.906C192.818 406.216 195.983 404.312 196.387 399.912C196.788 395.536 194.06 393.211 190.736 392.906C187.938 392.65 185.367 393.861 184.487 396.625L188.241 396.97C188.654 396.405 189.37 396.229 190.279 396.313C191.713 396.444 192.641 397.108 192.683 398.487L184.314 397.719L184.174 399.249ZM192.486 400.904C192.08 402.169 191.1 402.61 189.856 402.495C188.541 402.375 187.857 401.685 187.895 400.483L192.486 400.904Z" fill="inherit"/>
<path d="M172.78 403.331L177.114 395.692L178.8 404.312L182.758 404.957L179.686 391.708L176.059 391.117L168.94 402.706L172.78 403.331Z" fill="inherit"/>
<path d="M157.889 393.872C156.947 397.868 159.049 400.461 162.181 401.199C165.477 401.976 168.877 400.533 169.89 396.232C170.899 391.955 168.521 389.273 165.273 388.507C162.538 387.862 159.823 388.702 158.565 391.317L162.235 392.182C162.723 391.681 163.456 391.607 164.344 391.816C165.747 392.147 166.573 392.934 166.422 394.304L158.242 392.376L157.889 393.872ZM165.889 396.67C165.311 397.866 164.278 398.166 163.063 397.879C161.777 397.576 161.196 396.798 161.402 395.612L165.889 396.67Z" fill="inherit"/>
<path d="M149.329 402.067L152.99 403.153L157.846 386.784L154.186 385.698L149.329 402.067Z" fill="inherit"/>
<path d="M140.589 394.562C144.157 395.851 147.505 394.431 148.884 390.615C150.263 386.798 148.597 383.566 145.029 382.276C141.461 380.987 138.113 382.407 136.734 386.224C135.354 390.04 137.021 393.272 140.589 394.562ZM143.796 385.687C145.174 386.184 145.935 387.328 145.225 389.292C144.515 391.257 143.199 391.65 141.821 391.152C140.444 390.654 139.682 389.511 140.392 387.546C141.102 385.581 142.419 385.189 143.796 385.687Z" fill="inherit"/>
<path d="M125.503 388.268C127.125 388.995 128.622 388.824 129.756 387.937L129.01 389.603L132.473 391.154L139.502 375.463L136.018 373.902L133.436 379.665C133.257 378.48 132.507 377.276 130.819 376.52C128.014 375.263 124.72 376.155 122.963 380.078C121.244 383.913 122.654 386.992 125.503 388.268ZM130.219 380.092C131.533 380.681 132.388 382.064 131.573 383.883C130.758 385.702 129.199 385.951 127.862 385.352C126.526 384.753 125.696 383.434 126.51 381.615C127.325 379.796 128.904 379.503 130.219 380.092Z" fill="inherit"/>
<path d="M106.2 378.026C107.52 378.765 109.206 379.048 110.718 378.215C110.475 379.731 111.209 380.829 112.487 381.544C113.618 382.178 115.038 382.394 116.244 381.666L115.505 382.986L118.816 384.839L124.961 373.858L121.629 371.994L118.064 378.364C117.349 379.642 116.329 379.842 115.365 379.303C114.443 378.787 114.177 378.032 114.716 377.068L118.528 370.258L115.196 368.393L111.631 374.764C110.915 376.042 109.917 376.254 108.911 375.691C107.486 374.893 108.131 373.741 108.283 373.468L112.094 366.658L108.762 364.793L104.611 372.212C103.239 374.663 104.23 376.924 106.2 378.026Z" fill="inherit"/>
<path d="M95.402 363.368C93.0961 366.765 94.1356 369.937 96.7981 371.744C99.5997 373.646 103.291 373.51 105.772 369.854C108.24 366.218 106.975 362.864 104.213 360.989C101.889 359.412 99.0527 359.228 96.9449 361.222L100.064 363.339C100.7 363.045 101.411 363.237 102.166 363.75C103.358 364.559 103.849 365.589 103.219 366.816L96.265 362.096L95.402 363.368ZM101.877 368.836C100.911 369.747 99.8391 369.658 98.8059 368.957C97.7131 368.215 97.4477 367.281 98.0623 366.247L101.877 368.836Z" fill="inherit"/>
<path d="M84.0918 362.19C85.3725 363.203 86.8303 363.682 88.1213 363.173L87.1828 364.359L90.1586 366.713L97.9646 356.844L94.97 354.475L90.6201 359.975C89.5773 361.293 88.3394 361.232 87.3412 360.443C86.456 359.743 86.1206 358.773 86.9399 357.737L91.6175 351.823L88.6229 349.455L83.692 355.689C81.8448 358.024 81.7752 360.357 84.0918 362.19Z" fill="inherit"/>
<path d="M79.4637 345.543L80.6233 346.588C81.2298 347.134 81.1742 347.698 80.708 348.216L77.5413 351.73L75.7217 350.091L73.4713 352.588L75.2909 354.228L72.8798 356.904L76.4057 358.658L78.1096 356.767L79.6973 358.198L81.9477 355.7L80.36 354.27L83.8481 350.399C86.1468 347.848 85.2285 346.212 83.5338 344.685L81.7141 343.045L79.4637 345.543Z" fill="inherit"/>
<path d="M114.078 43.6269C112.155 40.5811 109.097 41.6309 106.508 42.6125C104.719 43.2875 103.164 43.9283 102.446 42.7912C101.908 41.9384 102.333 40.903 103.674 40.057C104.831 39.3263 106.001 39.1555 106.956 40.3984L110.388 38.232C108.305 35.2022 104.911 35.0445 101.865 36.9674C98.9411 38.8133 97.25 41.9824 99.2242 45.1094C101.262 48.338 104.49 47.1525 107.072 46.204C108.779 45.5803 110.179 45.0089 110.833 46.0445C111.371 46.8973 110.913 47.9252 109.573 48.7712C108.029 49.7455 106.477 49.7602 105.332 48.1261L101.92 50.2797C104.324 53.8172 108.444 53.6865 111.49 51.7636C114.414 49.9177 115.975 46.6321 114.078 43.6269Z" fill="inherit"/>
<path d="M116.634 33.6613C113.284 35.4427 112.092 38.8779 113.998 42.4611C115.903 46.0443 119.418 46.9766 122.768 45.1953C126.117 43.4139 127.31 39.9787 125.404 36.3955C123.499 32.8124 119.984 31.88 116.634 33.6613ZM121.065 41.9938C119.772 42.6815 118.413 42.4792 117.432 40.6347C116.451 38.7901 117.043 37.5506 118.337 36.8629C119.63 36.1751 120.989 36.3774 121.97 38.222C122.95 40.0666 122.358 41.306 121.065 41.9938Z" fill="inherit"/>
<path d="M130.503 26.0461L129.109 22.9867L127.012 23.9424C124.936 24.8881 123.587 26.2148 125.011 29.3397L125.18 29.7112L123.475 30.4877L124.869 33.5471L126.574 32.7706L130.396 41.162L133.871 39.5792L130.048 31.1878L132.081 30.262L130.687 27.2026L128.655 28.1284L128.525 27.8443C128.276 27.298 128.536 26.942 129.192 26.6434L130.503 26.0461Z" fill="inherit"/>
<path d="M143.65 32.0199L142.198 32.5936C141.439 32.8937 140.959 32.593 140.703 31.9454L138.964 27.5459L141.242 26.6456L140.006 23.5191L137.728 24.4194L136.404 21.0695L133.264 23.4468L134.2 25.814L132.212 26.5995L133.448 29.7261L135.435 28.9405L137.351 33.7866C138.613 36.9801 140.486 36.8853 142.608 36.0467L144.886 35.1464L143.65 32.0199Z" fill="inherit"/>
<path d="M157.677 17.8263L157.688 25.3685L153.321 19.1833L150.226 20.1475L150.159 27.7641L145.801 21.5259L141.95 22.7258L150.025 33.3895L153.281 32.3753L153.495 25.392L157.614 31.0255L160.87 30.0113L161.437 16.655L157.677 17.8263Z" fill="inherit"/>
<path d="M166.968 15.5916C163.991 16.2537 161.765 18.0773 161.979 21.2522L165.542 20.4599C165.586 19.6628 166.081 19.0116 167.323 18.7353C168.214 18.5372 168.909 18.6778 169.06 19.3575C169.232 20.1311 168.482 20.5193 167.959 20.7095L165.964 21.473C164.445 22.0567 162.049 23.2291 162.68 26.0654C163.222 28.5033 165.35 29.3338 167.39 28.8803C168.913 28.5414 170.348 27.5827 170.921 26.1761L171.27 27.7466L174.716 26.9803L172.897 18.7995C172.256 15.9163 170.133 14.8878 166.968 15.5916ZM167.842 25.6062C166.881 25.8199 166.376 25.5387 166.235 24.9058C166.037 24.0151 166.863 23.6347 167.428 23.4106L168.241 23.0823C169.03 22.7592 169.431 22.5716 169.78 22.3709L169.879 22.8163C170.134 23.9649 169.436 25.2517 167.842 25.6062Z" fill="inherit"/>
<path d="M182.806 12.9044L181.619 13.091C180.244 13.3076 179.246 14.0723 179.045 15.2707L178.795 13.6814L175.047 14.2712L177.004 26.7012L180.775 26.1076L179.823 20.0587C179.51 18.0661 180.541 17.0529 182.226 16.7878L183.388 16.6049L182.806 12.9044Z" fill="inherit"/>
<path d="M197.805 17.5631C197.422 13.4747 194.602 11.6887 191.398 11.9887C188.027 12.3044 185.266 14.7577 185.678 19.1569C186.088 23.5322 189.197 25.3152 192.521 25.004C195.318 24.7421 197.622 23.0792 197.98 20.1998L194.226 20.5513C193.923 21.1826 193.252 21.4866 192.344 21.5716C190.909 21.706 189.875 21.224 189.58 19.8768L197.948 19.0932L197.805 17.5631ZM189.33 17.4643C189.496 16.1464 190.379 15.5331 191.623 15.4166C192.938 15.2935 193.737 15.8457 193.921 17.0344L189.33 17.4643Z" fill="inherit"/>
<path d="M214.418 7.38794L208.153 7.23251L207.736 24.0367L213.641 24.1832C219.595 24.3308 222.372 19.8358 222.475 15.6828C222.578 11.5538 220.084 7.52848 214.418 7.38794ZM213.687 20.413L211.79 20.366L212.021 11.0757L214.373 11.1341C217.446 11.2103 218.524 13.2788 218.466 15.5833C218.405 18.08 216.999 20.4952 213.687 20.413Z" fill="inherit"/>
<path d="M235.187 19.2316C235.605 15.1467 233.186 12.8469 229.985 12.5189C226.617 12.1737 223.432 14.044 222.981 18.4394C222.533 22.811 225.237 25.164 228.558 25.5043C231.352 25.7907 233.936 24.6071 234.846 21.8519L231.095 21.4676C230.676 22.0281 229.959 22.196 229.051 22.103C227.618 21.9561 226.697 21.2824 226.669 19.9036L235.03 20.7604L235.187 19.2316ZM226.893 17.4885C227.312 16.2279 228.297 15.7978 229.539 15.9251C230.853 16.0598 231.53 16.7567 231.479 17.9585L226.893 17.4885Z" fill="inherit"/>
<path d="M246.623 15.2732L242.207 22.8656L240.614 14.2284L236.663 13.5414L239.594 26.8228L243.213 27.4522L250.455 15.9396L246.623 15.2732Z" fill="inherit"/>
<path d="M261.412 24.8868C262.397 20.9004 260.322 18.2853 257.198 17.5137C253.911 16.7017 250.496 18.109 249.437 22.3986C248.383 26.6648 250.732 29.3722 253.972 30.1727C256.7 30.8464 259.423 30.0351 260.709 27.4339L257.049 26.5298C256.555 27.0262 255.821 27.0924 254.936 26.8735C253.537 26.528 252.719 25.7324 252.884 24.3633L261.044 26.3788L261.412 24.8868ZM253.443 22.0029C254.033 20.8132 255.069 20.5249 256.281 20.8243C257.564 21.1411 258.137 21.9257 257.919 23.1086L253.443 22.0029Z" fill="inherit"/>
<path d="M270.059 16.7837L266.41 15.6587L261.38 31.9743L265.028 33.0992L270.059 16.7837Z" fill="inherit"/>
<path d="M278.719 24.3798C275.165 23.0523 271.802 24.4368 270.383 28.2386C268.963 32.0404 270.594 35.29 274.149 36.6174C277.703 37.9448 281.065 36.5603 282.485 32.7586C283.905 28.9568 282.273 25.7072 278.719 24.3798ZM275.417 33.2206C274.045 32.7081 273.296 31.5568 274.027 29.5996C274.758 27.6425 276.078 27.2641 277.45 27.7766C278.823 28.2891 279.572 29.4404 278.841 31.3975C278.11 33.3547 276.79 33.7331 275.417 33.2206Z" fill="inherit"/>
<path d="M293.737 30.8348C292.123 30.091 290.624 30.2462 289.48 31.1207L290.244 29.4632L286.798 27.8752L279.602 43.4904L283.07 45.0884L285.713 39.3527C285.88 40.54 286.617 41.7522 288.296 42.526C291.088 43.8125 294.391 42.9552 296.19 39.0514C297.949 35.2349 296.572 32.1413 293.737 30.8348ZM288.935 38.96C287.626 38.357 286.787 36.9654 287.621 35.1553C288.455 33.3452 290.016 33.1128 291.347 33.7259C292.677 34.339 293.493 35.6668 292.659 37.4769C291.825 39.2871 290.243 39.5631 288.935 38.96Z" fill="inherit"/>
<path d="M312.93 41.2831C311.617 40.5303 309.935 40.2297 308.415 41.0462C308.673 39.5336 307.951 38.4273 306.681 37.6984C305.556 37.0532 304.139 36.8215 302.925 37.5373L303.678 36.225L300.387 34.3371L294.126 45.2517L297.438 47.1516L301.07 40.8194C301.799 39.5488 302.821 39.3599 303.779 39.9096C304.696 40.4353 304.953 41.1923 304.404 42.1505L300.52 48.92L303.832 50.8199L307.465 44.4877C308.194 43.2171 309.195 43.0163 310.194 43.5898C311.611 44.4024 310.954 45.548 310.798 45.8188L306.915 52.5883L310.227 54.4882L314.457 47.1146C315.855 44.6775 314.888 42.4063 312.93 41.2831Z" fill="inherit"/>
<path d="M323.571 56.0549C325.913 52.6819 324.907 49.4988 322.264 47.6636C319.483 45.7326 315.791 45.8293 313.271 49.4588C310.765 53.0684 311.993 56.4356 314.735 58.3393C317.043 59.9416 319.877 60.155 322.005 58.1836L318.909 56.0334C318.27 56.3211 317.561 56.1212 316.812 55.6008C315.628 54.779 315.148 53.7441 315.791 52.5239L322.695 57.3173L323.571 56.0549ZM317.154 50.518C318.131 49.6172 319.201 49.7174 320.227 50.4295C321.312 51.1828 321.567 52.1202 320.942 53.1475L317.154 50.518Z" fill="inherit"/>
<path d="M334.868 57.3506C333.599 56.324 332.146 55.8291 330.85 56.325L331.801 55.1485L328.85 52.7633L320.94 62.5487L323.909 64.949L328.317 59.4961C329.374 58.1889 330.611 58.2627 331.601 59.0628C332.478 59.7723 332.804 60.7453 331.973 61.7724L327.233 67.6362L330.202 70.0365L335.199 63.8553C337.071 61.5396 337.165 59.2074 334.868 57.3506Z" fill="inherit"/>
<path d="M339.319 74.0462L338.171 72.9891C337.57 72.4361 337.632 71.8728 338.104 71.3604L341.307 67.8799L343.11 69.5387L345.386 67.0653L343.584 65.4064L346.024 62.7563L342.517 60.9641L340.793 62.8368L339.22 61.3894L336.944 63.8629L338.516 65.3103L334.987 69.1442C332.661 71.6706 333.562 73.3158 335.24 74.8608L337.043 76.5197L339.319 74.0462Z" fill="inherit"/>
<path d="M360.119 76.5412C357.238 73.2868 353.313 74.324 349.645 77.5712C345.978 80.8184 344.454 84.6043 347.336 87.8586C350.217 91.1129 354.159 90.0599 357.827 86.8127C361.495 83.5655 363 79.7955 360.119 76.5412ZM349.781 85.6938C348.667 84.4352 349.937 82.5732 352.256 80.5198C354.575 78.4664 356.56 77.4474 357.674 78.706C358.788 79.9645 357.552 81.8286 355.233 83.882C352.913 85.9354 350.895 86.9524 349.781 85.6938Z" fill="inherit"/>
<path d="M369.635 88.7598L367.72 86.2945C365.57 86.11 364.084 85.1361 363.013 83.9918L360.225 86.1574C360.911 86.9623 362.077 88.0329 363.515 88.7098L354.261 95.8988L356.588 98.895L369.635 88.7598Z" fill="inherit"/>
<path d="M374.355 116.866C377.421 114.976 376.403 111.907 375.449 109.308C374.793 107.512 374.169 105.95 375.314 105.244C376.172 104.715 377.203 105.152 378.035 106.501C378.753 107.666 378.912 108.838 377.658 109.779L379.788 113.234C382.84 111.183 383.034 107.791 381.144 104.725C379.329 101.782 376.178 100.057 373.03 101.998C369.78 104.002 370.931 107.241 371.852 109.833C372.458 111.547 373.014 112.953 371.972 113.596C371.113 114.125 370.09 113.656 369.258 112.307C368.301 110.753 368.302 109.201 369.949 108.073L367.831 104.639C364.269 107.005 364.355 111.126 366.246 114.192C368.06 117.136 371.329 118.731 374.355 116.866Z" fill="inherit"/>
<path d="M384.291 119.53C382.546 116.162 379.123 114.933 375.52 116.8C371.917 118.667 370.947 122.172 372.693 125.54C374.438 128.909 377.861 130.138 381.464 128.271C385.067 126.404 386.037 122.899 384.291 119.53ZM375.912 123.872C375.238 122.572 375.455 121.215 377.31 120.254C379.165 119.293 380.398 119.898 381.072 121.199C381.746 122.499 381.529 123.856 379.674 124.817C377.819 125.778 376.586 125.173 375.912 123.872Z" fill="inherit"/>
<path d="M391.759 133.477L394.833 132.116L393.9 130.008C392.976 127.922 391.664 126.56 388.524 127.95L388.151 128.115L387.392 126.403L384.318 127.764L385.077 129.476L376.645 133.21L378.191 136.701L386.622 132.968L387.527 135.01L390.601 133.649L389.697 131.606L389.982 131.48C390.531 131.237 390.884 131.501 391.176 132.16L391.759 133.477Z" fill="inherit"/>
<path d="M385.646 146.56L385.088 145.102C384.796 144.34 385.102 143.863 385.752 143.614L390.17 141.922L391.046 144.209L394.185 143.007L393.309 140.719L396.673 139.431L394.329 136.266L391.952 137.176L391.188 135.18L388.048 136.383L388.813 138.379L383.947 140.242C380.74 141.47 380.815 143.345 381.631 145.475L382.507 147.762L385.646 146.56Z" fill="inherit"/>
<path d="M399.688 160.739L392.146 160.67L398.378 156.369L397.446 153.264L389.831 153.116L396.115 148.825L394.956 144.961L384.207 152.922L385.187 156.188L392.167 156.477L386.49 160.536L387.47 163.802L400.819 164.512L399.688 160.739Z" fill="inherit"/>
<path d="M401.824 170.052C401.194 167.068 399.394 164.822 396.217 165.002L396.972 168.573C397.768 168.626 398.414 169.128 398.677 170.373C398.866 171.266 398.718 171.96 398.036 172.104C397.261 172.267 396.881 171.513 396.696 170.988L395.954 168.985C395.387 167.46 394.24 165.052 391.397 165.652C388.953 166.169 388.1 168.288 388.532 170.332C388.855 171.859 389.798 173.304 391.198 173.892L389.624 174.224L390.354 177.678L398.554 175.946C401.443 175.335 402.494 173.223 401.824 170.052ZM391.801 170.819C391.598 169.856 391.884 169.354 392.519 169.22C393.411 169.031 393.783 169.861 394.001 170.428L394.321 171.244C394.635 172.037 394.819 172.44 395.016 172.791L394.569 172.885C393.418 173.128 392.139 172.417 391.801 170.819Z" fill="inherit"/>
<path d="M404.345 185.918L404.171 184.73C403.969 183.352 403.215 182.346 402.019 182.133L403.611 181.9L403.061 178.146L390.611 179.97L391.165 183.748L397.223 182.86C399.219 182.568 400.221 183.61 400.468 185.297L400.639 186.461L404.345 185.918Z" fill="inherit"/>
<path d="M399.525 200.866C403.618 200.526 405.434 197.725 405.168 194.518C404.888 191.144 402.464 188.357 398.061 188.722C393.681 189.086 391.865 192.176 392.141 195.502C392.373 198.302 394.012 200.624 396.887 201.012L396.575 197.255C395.947 196.946 395.651 196.271 395.575 195.362C395.456 193.926 395.949 192.897 397.299 192.617L397.994 200.993L399.525 200.866ZM399.714 192.392C401.03 192.572 401.634 193.462 401.737 194.706C401.847 196.023 401.286 196.816 400.095 196.987L399.714 192.392Z" fill="inherit"/>
<path d="M409.523 217.589L409.745 211.326L392.946 210.73L392.737 216.634C392.526 222.585 396.991 225.411 401.143 225.558C405.271 225.704 409.322 223.253 409.523 217.589ZM396.507 216.719L396.574 214.823L405.861 215.153L405.778 217.504C405.669 220.576 403.589 221.632 401.285 221.55C398.789 221.462 396.389 220.031 396.507 216.719Z" fill="inherit"/>
<path d="M397.458 238.227C401.539 238.689 403.864 236.294 404.226 233.096C404.607 229.732 402.771 226.527 398.38 226.03C394.014 225.536 391.632 228.214 391.257 231.531C390.941 234.323 392.097 236.919 394.842 237.858L395.266 234.112C394.71 233.686 394.55 232.967 394.653 232.061C394.815 230.629 395.498 229.716 396.877 229.703L395.931 238.054L397.458 238.227ZM399.29 229.952C400.546 230.384 400.965 231.374 400.825 232.615C400.676 233.927 399.972 234.596 398.771 234.533L399.29 229.952Z" fill="inherit"/>
<path d="M401.297 249.705L393.752 245.209L402.406 243.707L403.135 239.764L389.823 242.553L389.155 246.166L400.59 253.53L401.297 249.705Z" fill="inherit"/>
<path d="M391.524 264.391C395.5 265.418 398.137 263.371 398.941 260.256C399.788 256.977 398.417 253.548 394.139 252.443C389.885 251.343 387.152 253.663 386.317 256.895C385.615 259.615 386.397 262.347 388.984 263.66L389.927 260.01C389.436 259.511 389.378 258.777 389.606 257.893C389.967 256.498 390.771 255.689 392.138 255.869L390.036 264.006L391.524 264.391ZM394.492 256.452C395.676 257.056 395.953 258.095 395.641 259.304C395.31 260.582 394.52 261.147 393.339 260.916L394.492 256.452Z" fill="inherit"/>
<path d="M399.537 273.123L400.701 269.486L384.44 264.282L383.276 267.919L399.537 273.123Z" fill="inherit"/>
<path d="M391.848 281.703C393.213 278.163 391.864 274.786 388.078 273.326C384.291 271.866 381.025 273.463 379.66 277.003C378.294 280.543 379.643 283.92 383.429 285.38C387.216 286.84 390.483 285.243 391.848 281.703ZM383.043 278.308C383.57 276.941 384.729 276.204 386.678 276.956C388.627 277.707 388.992 279.032 388.465 280.399C387.938 281.765 386.778 282.502 384.829 281.75C382.88 280.999 382.516 279.674 383.043 278.308Z" fill="inherit"/>
<path d="M385.234 296.653C385.994 295.047 385.855 293.546 384.993 292.394L386.642 293.175L388.267 289.746L372.729 282.385L371.094 285.835L376.802 288.539C375.613 288.693 374.393 289.417 373.601 291.088C372.285 293.866 373.107 297.178 376.991 299.019C380.789 300.818 383.897 299.474 385.234 296.653ZM377.16 291.765C377.777 290.463 379.177 289.638 380.978 290.491C382.78 291.345 382.995 292.909 382.368 294.232C381.741 295.556 380.404 296.358 378.603 295.504C376.802 294.651 376.543 293.067 377.16 291.765Z" fill="inherit"/>
<path d="M374.583 315.732C375.349 314.428 375.668 312.748 374.868 311.219C376.378 311.494 377.491 310.784 378.234 309.521C378.891 308.403 379.138 306.989 378.435 305.768L379.739 306.534L381.662 303.264L370.814 296.887L368.879 300.178L375.173 303.878C376.435 304.62 376.613 305.644 376.054 306.596C375.518 307.507 374.758 307.757 373.806 307.197L367.078 303.242L365.143 306.533L371.436 310.233C372.699 310.975 372.889 311.978 372.305 312.972C371.478 314.38 370.339 313.71 370.07 313.552L363.342 309.597L361.407 312.889L368.735 317.197C371.157 318.621 373.439 317.678 374.583 315.732Z" fill="inherit"/>
<path d="M359.696 326.216C363.044 328.593 366.238 327.622 368.101 324.998C370.062 322.238 370.004 318.545 366.402 315.986C362.819 313.442 359.439 314.635 357.506 317.356C355.879 319.647 355.636 322.478 357.584 324.628L359.767 321.554C359.487 320.912 359.694 320.206 360.222 319.462C361.057 318.287 362.097 317.818 363.31 318.473L358.443 325.326L359.696 326.216ZM365.301 319.858C366.192 320.844 366.08 321.913 365.357 322.932C364.592 324.008 363.652 324.254 362.632 323.617L365.301 319.858Z" fill="inherit"/>
<path d="M358.28 337.498C359.32 336.239 359.831 334.792 359.349 333.49L360.515 334.453L362.931 331.528L353.231 323.514L350.799 326.458L356.205 330.924C357.5 331.994 357.413 333.231 356.603 334.212C355.884 335.082 354.908 335.397 353.889 334.555L348.076 329.753L345.645 332.697L351.772 337.759C354.068 339.656 356.399 339.775 358.28 337.498Z" fill="inherit"/>
<path d="M341.54 341.773L342.609 340.636C343.169 340.041 343.731 340.108 344.239 340.586L347.685 343.826L346.007 345.611L348.456 347.914L350.134 346.129L352.758 348.597L354.588 345.109L352.733 343.365L354.197 341.808L351.748 339.505L350.284 341.062L346.488 337.493C343.986 335.14 342.332 336.023 340.769 337.685L339.091 339.47L341.54 341.773Z" fill="inherit"/>
</svg>
