<?xml version="1.0" standalone="no"?>
<!DOCTYPE svg PUBLIC "-//W3C//DTD SVG 20010904//EN"
 "http://www.w3.org/TR/2001/REC-SVG-20010904/DTD/svg10.dtd">
<svg version="1.0" xmlns="http://www.w3.org/2000/svg"
 width="700.000000pt" height="700.000000pt" viewBox="0 0 700.000000 700.000000"
 preserveAspectRatio="xMidYMid meet">
<metadata>
Created by potrace 1.14, written by Peter Selinger 2001-2017
</metadata>
<g transform="translate(0.000000,700.000000) scale(0.100000,-0.100000)"
fill="#000000" stroke="none">
<path d="M3270 6869 c-141 -13 -205 -19 -225 -23 -11 -2 -40 -7 -65 -10 -25
-3 -56 -8 -70 -11 -104 -20 -189 -39 -270 -61 -52 -13 -102 -26 -110 -29 -106
-27 -358 -125 -505 -196 -256 -123 -473 -263 -723 -467 -125 -102 -278 -257
-444 -449 -80 -93 -228 -305 -308 -443 -103 -176 -231 -451 -274 -590 -10 -30
-21 -64 -26 -75 -38 -91 -113 -413 -135 -579 -25 -187 -30 -267 -30 -491 0
-195 6 -313 20 -410 2 -16 6 -48 9 -70 32 -250 125 -589 234 -850 55 -133 214
-426 306 -565 59 -88 112 -165 119 -172 7 -7 28 -33 47 -58 164 -211 410 -450
645 -626 82 -61 227 -158 280 -188 17 -9 44 -25 60 -35 299 -179 745 -341
1110 -402 33 -5 72 -12 86 -14 26 -5 67 -10 159 -20 246 -27 568 -21 830 16
564 79 1103 300 1558 638 70 52 129 97 132 100 3 3 34 31 70 61 326 275 645
686 836 1080 89 183 121 262 179 435 40 121 95 325 109 405 2 14 7 43 11 65
12 65 13 71 20 122 4 26 9 59 11 73 25 149 25 786 0 829 -2 3 -7 35 -10 71 -4
36 -18 121 -32 190 -62 309 -162 596 -304 875 -238 468 -575 872 -995 1191
-77 59 -292 204 -301 204 -2 0 -21 11 -42 24 -229 144 -667 316 -972 381 -103
22 -100 22 -150 30 -25 4 -52 9 -60 10 -8 1 -40 6 -70 10 -30 3 -66 8 -80 10
-126 18 -492 26 -630 14z"/>
</g>
</svg>
